<?xml version="1.0" encoding="UTF-8"?>
<svg id="Layer_1" data-name="Layer 1" xmlns="http://www.w3.org/2000/svg" viewBox="0 0 537.2 500">
  <path d="M46.8,98.8c-.3-.4-.5-.8-.4-1.3,0-.2.1-.4.3-.7h0c0,0,16.8-19.9,16.8-19.9.3-.3.6-.7.9-1,.3-.4.7-.6,1.1-.8.1,0,.2,0,.3,0,.1,0,.3,0,.4,0,.2,0,.3.1.5.2l.2.2c.2,0,.3.2.4.3l1.9,1.6c.2.1.3.3.5.4.2.2.4.4.6.6.4.7.4,1.4,0,1.9-.3.4-.7.9-1.2,1.5l-3.4,4c-.4.5-.8,1-1,1.4-.1.2-.2.4,0,.8,0,0,.1.1.2.1.2.1.4.3.5.5.1.1.2.2.4.3.2.2.4.3.6.4l18.4,15.5c.4.4.8.7,1.1,1,.4.4.5.9.3,1.5-.1.3-.3.6-.5.9l-2.8,3.3c-.3.3-.5.6-.7.8-.3.3-.7.5-1.1.5h0c-.5,0-.9-.3-1.3-.6l-19.1-16.1c-.2-.2-.4-.3-.6-.5-.1-.1-.3-.2-.4-.3-.3-.1-.4-.3-.6-.5h0s0,0,0,0c-.2,0-.3-.1-.4-.1s-.3,0-.4.2c-.4.4-.8.8-1.2,1.3l-3.1,3.6c-.2.3-.5.6-.8,1-.3.4-.6.7-.9.9-.3.2-.6.3-.9.3s-.1,0-.2,0c-.3,0-.6-.2-.9-.4-.2-.2-.4-.3-.7-.5l-1.9-1.6c-.4-.3-.7-.6-.9-.9ZM527.4,216.5c1.7.9,3.3,2,4.5,3.2,1.2,1.3,2.3,2.8,3.3,4.7.2.5.4.9.6,1.5.1.5.3.9.5,1.4,0,.2.2.4.2.6,0,.1,0,.3,0,.4l.3,1.5c0,.2,0,.3,0,.5h0s0,.1,0,.1c.3,2.5.2,4.6-.2,6.5-.4,1.9-1.1,3.6-2,5.1-.3.5-.6,1-.9,1.5-.4.6-.8,1-1.2,1.4-.1.1-.3.3-.5.5-.2.2-.4.4-.5.5-.5.4-1.1.9-1.6,1.3-.6.4-1.2.8-1.8,1.2-.5.2-.9.5-1.4.7l-1.4.6c-.4.1-.7.3-1.1.4-.3,0-.7.2-1,.3-.3.1-.5.2-.8.2-.2,0-.3,0-.5.1-.3.1-.5.2-.8.2-.2,0-.3,0-.5,0h-.4c-.2.1-.6.2-1.1.3-.3,0-.5,0-.7,0s-.3,0-.4,0h-.6c-.3,0-.4,0-.6,0s-.3,0-.5,0c-.2,0-.4,0-.6,0s-.4,0-.6,0c-.3,0-.5,0-.7,0-.3,0-.5,0-.8,0-.6-.1-1.2-.2-1.8-.3-.6-.1-1.2-.3-1.8-.5-2.5-.8-4.7-2.1-6.5-3.7-1.8-1.6-3.2-3.7-4.3-6.3-.2-.4-.3-.8-.4-1.2l-.3-1.1c0-.1-.1-.4-.2-.6,0-.2,0-.3,0-.4l-.3-1.7c0-.1,0-.4,0-.8,0-.5,0-.7,0-.8,0,0,0-.2,0-.3,0-.2,0-.4,0-.6v-.5c0,0,0,0,0,0,0-.3,0-.5,0-.7,0-.3,0-.6,0-.9,0-.3,0-.5.1-.8,0-.3,0-.6.1-.9.1-.4.2-.8.3-1.2.1-.4.2-.8.4-1.2.7-2.2,1.8-4.1,3.2-5.6,1.4-1.6,3.1-2.9,5.1-4,.5-.3,1-.5,1.5-.7.5-.2,1-.4,1.5-.6.2,0,.4-.2.6-.2,0,0,.2,0,.3,0,.2,0,.5-.2.8-.2.2,0,.5-.1.7-.2.2,0,.4,0,.6,0h0c.1,0,.1,0,.2,0h0s0,0,0,0c.2,0,.4,0,.6,0s.3,0,.3,0c.1,0,.2,0,.3,0,.2,0,.5-.2.9-.2.2,0,.3,0,.4,0,.2,0,.4,0,.6,0,0,0,.1,0,.2,0,.1,0,.3,0,.5,0s0,0,.1,0h.3s0,0,0,0c.1,0,.2,0,.3,0s.1,0,.2,0c.1,0,.2,0,.4,0s.3,0,.5,0c.1,0,.2,0,.3,0,.1,0,.2,0,.3,0,.2,0,.4,0,.6,0,.5.1,1.1.2,1.6.2.6,0,1.2.2,1.8.3.6.2,1.2.4,1.8.6.6.2,1.2.5,1.8.8ZM528.3,228.3c-.7-1.3-1.6-2.3-2.7-3-1.1-.7-2.4-1.2-3.9-1.6-.3,0-.7-.1-1-.1-.4,0-.8,0-1.2-.1,0,0-.1,0-.2,0-.1,0-.2,0-.2,0-.1,0-.2,0-.4,0-.1,0-.2,0-.2,0s-.1,0-.2,0c-.2,0-.4,0-.5,0s-.2,0-.2,0h0s-.1,0-.4,0-.2,0-.4,0c-.6,0-.7,0-.7.1h0s-.6,0-.6,0c-.2,0-.3,0-.5,0-.1,0-.2,0-.3,0h0s0,0,0,0c-.1,0-.2,0-.3,0-.1,0-.3,0-.4,0-.4.1-.7.2-1.1.3-.3,0-.6.2-.9.3-1,.5-2,1-2.9,1.6-.8.6-1.5,1.3-1.9,2.1-.2.2-.3.4-.3.5,0,.2-.2.4-.2.6-.2.4-.3.8-.4,1.2,0,.4-.2.9-.3,1.4,0,.1,0,.2,0,.3,0,.2,0,.4,0,.6,0,.2,0,.4,0,.5v1.1c.1.1.2.3.2.5,0,0,0,0,0,.2.1.4.2.8.3,1.1,0,.3.2.6.3.8.7,1.4,1.5,2.4,2.4,3.1.9.7,2.1,1.3,3.6,1.7.4.1.8.2,1.2.3.5,0,.9.1,1.4.2h1.1c.1,0,.2,0,.3,0s0,0,.1,0h1c0,0,0,0,0,0,0,0,.1,0,.3,0s.2,0,.3,0c.3,0,.5,0,.5-.1h0s.9-.1.9-.1c.1,0,.3,0,.4,0h0s.2,0,.2,0c.3-.1.6-.2.9-.2.2,0,.4,0,.6-.2h0s0,0,0,0c.1,0,.2,0,.4-.1l1.1-.4c.3-.1.7-.3,1-.5,1.6-.9,2.8-2,3.7-3.4.9-1.4,1.2-3.3,1-5.6,0-.1,0-.3,0-.4,0-.2-.1-.4-.1-.6,0,0,0,0,0-.2-.1-.4-.2-.8-.4-1.1-.1-.3-.2-.6-.4-.9ZM0,225c0,.2,0,.3,0,.5h0c0,0,0,.1,0,.1,0,.5.2,1,.2,1.5,0,.5.2,1,.3,1.6.5,1.4,1.1,2.6,1.7,3.6.7,1,1.6,2,2.7,2.7.2.2.4.3.6.5.2.2.4.3.7.4l.8.4c.3.1.6.2.8.3.4.2.8.4,1.3.5.4,0,.8.2,1.3.3.2,0,.4,0,.7.1.2,0,.4,0,.7.1h.4c.2,0,.4.1.6.1s.3,0,.4,0c.4,0,.7-.2.9-.5.3-.3.4-.6.5-1,0-.3,0-.6,0-1l.2-2.6c0-.3,0-.6,0-.9,0-.4,0-.7-.2-.9-.3-.5-.8-.9-1.4-.9-.4,0-.8-.1-1.2-.2-.6-.2-1.1-.4-1.7-.6-.5-.2-.9-.4-1.4-.8-.9-.7-1.5-1.6-1.8-2.8,0-.2,0-.4-.1-.7,0-.2,0-.4,0-.6.1-.3.2-.5.2-.8,0-.1,0-.2,0-.4,0-.3.2-.5.3-.7,0-.2.2-.4.3-.6.6-.9,1.4-1.5,2.6-1.8.1,0,.3,0,.5,0,.2,0,.4,0,.6,0,.1,0,.2,0,.4,0,.2,0,.5,0,.7,0,.4,0,.8.1,1,.2.2,0,.4.2.6.2.1,0,.3,0,.4.2.5.3,1,.6,1.5,1,.5.4.9.9,1.2,1.3.2.2.3.4.5.6.1.2.3.4.4.6.6,1,1.2,2,1.8,3,.6,1,1.1,2,1.7,3,.8,1.2,1.6,2.5,2.5,3.7.9,1.3,1.9,2.4,3.1,3.3,1.1.9,2.4,1.6,4,2.3.3,0,.6.2.9.3.3,0,.6.2.8.3h0s0,0,0,0c0,0,.2,0,.3,0,.1,0,.2,0,.3,0,.3,0,.6.1.9.1s.3,0,.4,0c.5,0,.9-.4,1.2-.8.2-.3.2-.7.2-1.1,0-.4,0-.7,0-1l1.5-22.1c0-.4,0-.8-.2-1-.2-.4-.6-.7-1-.8-.2,0-.5-.1-.8-.1h0c-.2,0-.4,0-.6,0-.3,0-.6,0-1,0-.4,0-.7,0-1.1,0h-.1c-.3,0-.6,0-.9,0-.4,0-.7.2-.9.5-.3.3-.5.9-.5,1.7,0,.7,0,1.3,0,1.7l-.7,10c0,.2,0,.4,0,.6,0,.1,0,.3,0,.4h0c0,0,0,.2,0,.2v.2c0,.1,0,.3-.2.4,0,0,0,0,0,0,0,0-.2-.1-.3-.2-.2-.1-.4-.3-.6-.5-.2-.2-.3-.4-.5-.6,0-.1-.1-.2-.2-.3-.2-.2-.3-.4-.5-.6-.1-.2-.3-.4-.4-.6-.5-.7-.9-1.4-1.3-2.1-.4-.7-.9-1.5-1.3-2.2-.2-.3-.3-.6-.5-.9-.2-.3-.3-.6-.5-.9-.6-1-1.3-2-1.9-2.9-.7-1-1.5-1.8-2.5-2.6-.8-.6-1.7-1.1-2.5-1.5-.6-.3-1.2-.5-2-.7-.7-.2-1.5-.3-2.3-.3-.2,0-.5,0-.7,0-.5,0-1,0-1.5,0-.7,0-1.4.2-2,.4-.3.1-.5.2-.8.3-.3,0-.6.2-.9.4-1.8.9-3.3,2.4-4.5,4.2-1.2,1.8-1.9,4.2-2,7H0c0,.1,0,.2,0,.2C0,224.2,0,224.3,0,224.5c0,.2,0,.3,0,.5ZM4.9,267c-1.5-1-2.8-2.5-3.7-4.4-.2-.4-.4-.9-.5-1.4-.1-.4-.2-.9-.4-1.4,0-.2,0-.4-.1-.6,0-.1,0-.2,0-.4,0-.2,0-.3,0-.5h0s0-.1,0-.1c-.2-1.8,0-3.5.3-4.9.4-1.4.9-2.7,1.7-3.8.8-1.1,1.7-2,2.9-2.8,1.1-.8,2.3-1.4,3.7-2,.6-.3,1.2-.5,1.8-.6.6-.1,1.2-.3,1.7-.5.3-.1.6-.2,1-.2.2,0,.4,0,.6-.1.4-.1.8-.2,1.2-.2.3,0,.6,0,.9-.2h0s.8,0,.8,0c.2,0,.4,0,.7,0s.5,0,.7,0c.1,0,.3,0,.5,0,.1,0,.2,0,.4,0s.2,0,.3,0h.7c0,0,1.9,0,1.9,0,.2,0,.5,0,.7,0h.3c.2,0,.5,0,.7,0,.7.1,1.3.2,1.9.3.7,0,1.3.2,1.9.3,2.2.5,4.1,1.3,5.6,2.3,1.6,1,2.8,2.6,3.8,4.6.2.5.4,1,.5,1.5,0,.5.2.9.4,1.4,0,.3.1.6.1.8,0,.2,0,.4,0,.6,0,0,0,.3,0,.6,0,.2,0,.4,0,.5v.6c0,.2,0,.4,0,.5,0,.2,0,.5,0,.7,0,.3,0,.6,0,.9-.1.7-.3,1.3-.5,1.9-.2.6-.4,1.1-.7,1.7-.7,1.4-1.6,2.5-2.7,3.3-1,.8-2.3,1.6-3.7,2.3-.5.2-1,.4-1.5.5-.5.1-1,.3-1.4.5-.4.1-.8.3-1.3.3-.4,0-.8.2-1.1.3-.2,0-.4,0-.6,0s0,0,0,0c0,0-.1,0-.2,0h-.1c0,0-.7.1-.7.1-.2,0-.4,0-.5,0-.2,0-.3,0-.5,0h-.1c0,0-.2,0-.3,0-.3,0-.6.2-1,.2-.3,0-.6,0-.9,0-.2,0-.5,0-.7,0-.1,0-.2,0-.4,0s-.3,0-.4,0h-.7s0,0,0,0c-.1,0-.2,0-.3,0s-.2,0-.3,0c-.2,0-.3,0-.5,0s-.3,0-.4,0h-.5s0,0,0,0c0,0-.2,0-.3,0s0,0-.1,0c-.1,0-.2,0-.3,0-.2,0-.4,0-.5,0-.1,0-.2,0-.4,0,0,0-.2,0-.3,0-.2,0-.4,0-.6,0-.4,0-.9-.2-1.3-.2-.5,0-1-.1-1.5-.3-2.1-.5-4-1.3-5.4-2.4ZM7,257.5c0,.2.1.4,0,.6,0,.2.2.4.2.5,0,.1,0,.3.2.4.3.7.8,1.2,1.4,1.5.6.4,1.4.7,2.1,1,.5.2,1,.2,1.5.3.6,0,1.2,0,1.9.2.2,0,.4,0,.6,0h.2c.2,0,.5,0,.7,0,0,0,.2,0,.3,0,.2,0,.3,0,.5,0h1.5c0-.1,0,0,0,0,0,0,.1,0,.2,0s0,0,.1,0c.2,0,.4,0,.6,0h.5c.1,0,.3,0,.4-.1.2,0,.3,0,.5,0s.3,0,.4,0c.1,0,.2,0,.3,0h0s.7,0,.7,0c.3,0,.7-.1,1-.2.3,0,.6,0,.9-.2h0s.4,0,.4,0c.3,0,.6-.2.9-.2.3,0,.6-.1.9-.2.6-.2,1.2-.5,1.8-.7.5-.2,1-.5,1.4-.9.4-.4.7-.7,1-1.1.2-.4.4-.9.6-1.5,0-.2,0-.4.1-.7,0-.2,0-.4,0-.6,0-.2-.2-.4-.2-.7,0-.1,0-.2,0-.3-.2-.3-.4-.7-.6-1.1-.3-.3-.5-.6-.8-.8-.4-.2-.8-.5-1.2-.6-.4-.2-.8-.3-1.3-.5-.4-.1-.8-.2-1.3-.2-.5,0-1-.1-1.5-.2,0,0-.1,0-.2,0,0,0-.2,0-.3,0-.1,0-.3,0-.4,0-.2,0-.3,0-.4,0s-.2,0-.2,0c-.1,0-.3,0-.4,0s-.3,0-.5,0h-.8c-.2,0-.4,0-.6,0s-.2,0-.4,0h-.4c-.2,0-.2,0-.3,0,0,0-.2,0-.2,0-.2,0-.4,0-.6,0-.1,0-.3,0-.4,0,0,0-.1,0-.1,0-.2,0-.3,0-.4,0h-.5s-.7,0-.7,0c-.2,0-.4,0-.6,0h-.6c-.3.1-.6.2-1,.2-.3,0-.6,0-1,.1-.2,0-.5.1-.8.2-.3,0-.5.1-.7.2-.9.3-1.8.7-2.5,1.1-.7.4-1.3.9-1.6,1.5-.3.4-.4.8-.5,1.3,0,.4-.1,1,0,1.6ZM437.7,102.9c-.1.4,0,.9.2,1.3.2.3.5.7.8,1l14.6,16.6c.3.3.6.5.9.6.2,0,.3,0,.5,0s.3,0,.6,0c.2,0,.5-.2.7-.5.2-.2.3-.3.5-.5l2.5-2.2c.3-.3.5-.6.6-1,0-.3,0-.6-.2-1-.2-.3-.4-.6-.6-.9-.2-.3-.5-.6-.8-.9-.3-.3-.5-.5-.7-.7l-7.9-9c-.5-.6-.4-.9-.4-1,0-.1.2-.2.3-.4.1-.1.3-.3.5-.4l.4-.4h0c.1-.2.2-.4.4-.5.2-.2.4-.3.6-.5l18.3-16.1c.4-.3.6-.7.7-1.1,0-.3,0-.8-.3-1.3-.2-.3-.5-.6-.7-.9l-2.9-3.4h0c0-.1-.2-.2-.3-.3-.4-.2-.7-.4-1-.4s-.2,0-.2,0c-.3,0-.6.2-.9.4-.3.2-.5.4-.7.6l-24.7,21.7c-.3.3-.5.6-.6.9ZM4.6,193.4c0-.4,0-.9,0-1.3,0-.4,0-.8,0-1.2,0-.1,0-.4.1-.8,0-.3,0-.4,0-.4h0c0-.1,0-.1,0-.1.2-1.3.6-2.5,1.1-3.5.5-1,1.1-1.9,1.7-2.7.7-.7,1.4-1.4,2.2-1.9.8-.5,1.7-1,2.6-1.3.5-.2,1-.3,1.6-.4.5,0,1.1-.2,1.6-.2,0,0,.1,0,.2,0,.2,0,.4,0,.6,0,.4.1.6.3.8.5.3.2.3.6.3.8,0,.1,0,.3,0,.5h0c0,0-.1.6-.1.6,0,.3,0,.5-.1.8,0,.2-.2.5-.2.7,0,.3,0,.5-.1.8,0,.3-.1.7-.3,1,0,0,0,.2-.2.6h0c0,0,0,.1,0,.1-.3.7-.8,1.1-1.4,1.2-.4,0-.8.2-1.3.4-1,.4-1.8,1.1-2.4,2.1,0,.2-.2.4-.3.7,0,.2-.1.5-.1.7,0,.4,0,.7,0,1,0,.3,0,.5.2.8.3.8.7,1.6,1.3,2.2.6.6,1.3,1.2,2.2,1.8.1,0,.3.2.4.2.2,0,.3.2.5.3.2.1.5.3.7.4l.8.4c0,0,.2,0,.3,0,0,0,.1,0,.1,0h0s0,0,0,0c.1,0,.3.1.4.1,0,0,.1,0,.2,0h.1s0,0,0,0c0-.2,0-.3,0-.4-.2-.3-.4-.6-.5-.9-.2-.4-.4-.9-.5-1.5-.1-.5-.2-1.1-.3-1.6,0-.3,0-.6,0-.9,0-.3,0-.6,0-.8,0-.3,0-.5.1-.7,0,0,0,0,0-.1,0-.3,0-.5,0-.8,0-.3.1-.5.2-.7,0,0,0-.2.2-.5,0-.2.1-.4.2-.5,0-.2.2-.4.3-.6,0-.2.2-.4.3-.7.1-.3.3-.5.4-.8.7-1,1.5-1.9,2.3-2.6.8-.7,1.8-1.3,2.8-1.8.5-.2,1.1-.4,1.7-.5.6-.1,1.2-.2,1.8-.3.2,0,.5,0,.7,0,0,0,.5,0,.7,0s.3,0,.4,0c.3,0,.5,0,.7,0,.2,0,.4,0,.6,0h.6c.2.1.5.2.9.3.4.1.7.2.9.3.2,0,.3,0,.3.1.1,0,.3,0,.5.2.3.1.7.3,1,.4.4.1.7.3,1,.5,1.6.9,3,2.1,4.1,3.5,1.1,1.4,1.8,3,2.2,4.8,0,.3.1.7.1,1.1,0,.3,0,.7,0,1,0,.4,0,.7,0,1,0,.3,0,.6,0,.9,0,.2,0,.5-.1.7,0,.1,0,.2,0,.3,0,.2,0,.5,0,.9,0,.3-.2.6-.3.8v.3c0,0,0,0,0,0,0,0,0,.2-.1.3,0,.2-.1.4-.2.5,0,.1-.1.2-.1.3,0,.2-.1.5-.3.7-.3.6-.6,1.2-1,1.7-.3.6-.7,1.1-1.2,1.5-1.2,1.2-2.5,2.2-4,2.8-1.5.6-3.2,1-5,1.2-.4,0-.9.1-1.4.1s-.3,0-.5,0c-.4,0-.8,0-1.2,0h-.7c-.3,0-.5,0-.8,0-.2,0-.5,0-.8,0h-.2c-.3,0-.6-.1-.9-.2-.3,0-.6,0-1-.1h-.6c0-.1-.1-.1-.2-.1-.2,0-.3,0-.5,0-.2,0-.3,0-.5-.1-.2,0-.3,0-.5,0-.2,0-.4,0-.6-.2h-.5c0-.1-2-.7-2-.7-.5-.3-1-.4-1.5-.6-.6-.2-1.1-.4-1.5-.7-1.2-.6-2.3-1.3-3.3-1.9-1-.7-2-1.5-2.8-2.4-.9-1-1.7-2.2-2.3-3.4-.6-1.2-1-2.6-1.2-4.2ZM23.2,194.5c0,.3,0,.5,0,.8,0,.2,0,.4,0,.6.3,1.5,1.2,2.7,2.6,3.5.2.1.4.2.6.3.2,0,.4.2.6.3h.4c0,0,0,.1,0,.1.2.1.5.2.9.3.3,0,.6,0,.8,0,.2,0,.3,0,.4,0s.2,0,.2,0c0,0,.1,0,.2,0,0,0,.2,0,.2,0,1.6-.1,2.8-.7,3.9-1.8.3-.3.5-.7.8-1.2,0-.2.1-.4.2-.5,0,0,0-.2.1-.4,0-.1,0-.3,0-.4,0-.3,0-.6,0-.9,0-.2,0-.5,0-.7-.1-.7-.5-1.4-.9-2-.5-.6-1.1-1.1-1.7-1.5-.6-.4-1.4-.6-2.2-.8-.6-.1-1.1-.2-1.6-.2s-.5,0-.7,0c-1.2.1-2.2.4-3.1,1-.8.5-1.4,1.4-1.7,2.8,0,.1,0,.3,0,.4,0,0,0,.1,0,.1ZM35,144.5l3.8,1.8c.4.2.7.3,1,.4.2,0,.5.1.7.1s.3,0,.4,0c.4,0,.7-.3,1-.8.2-.3.4-.6.5-1l1.5-3.1c.2-.4.3-.7.4-1,.2-.4.2-.8.1-1.2,0-.3-.3-.6-.7-.9-.3-.2-.6-.4-1-.5l-3.3-1.6c-.4-.2-.7-.3-1-.4-.2,0-.4-.1-.6-.1s-.4,0-.6.1c-.3.2-.6.5-.8.9l-2.3,4.8h0c0,.2-.1.2-.2.3h0c0,0,0,.2,0,.2,0,.5,0,.9.2,1.2.1.3.4.6.8.8ZM15.8,301.1c.4,0,.7.1,1.1.1s.2,0,.3,0c.3,0,.6,0,.9,0h.4c.2,0,.5,0,.7,0,.2,0,.4,0,.7,0h.4c0,0,0,0,0,0,.3,0,.6,0,.9-.2.4-.2.6-.4.7-.7.2-.3.2-.7.2-1.1,0-.3-.1-.6-.2-1l-.5-2.6c0-.3-.1-.6-.2-.9,0-.4-.2-.6-.4-.9-.3-.4-.8-.5-1.2-.5s-.2,0-.3,0c-.4,0-.7,0-1.1,0h-.1c-.6,0-1.2,0-1.8-.2-.5,0-1-.2-1.5-.4-1.1-.4-1.9-1.1-2.5-2.2,0-.2-.2-.4-.3-.6,0-.2-.1-.4-.1-.6,0-.3,0-.5,0-.8,0-.1,0-.2,0-.4,0-.3,0-.5,0-.7,0-.2,0-.4.2-.6.3-1,1-1.8,2-2.4.1,0,.3-.2.4-.2.2,0,.4-.2.5-.2.3-.1.6-.2,1.1-.3.4,0,.7,0,.9,0h0c.2,0,.4,0,.6,0,.1,0,.3,0,.4,0,.6.1,1.1.3,1.7.6.6.3,1.1.6,1.5,1,.2.2.4.3.6.5.2.1.4.3.6.5.9.8,1.7,1.6,2.5,2.4.8.8,1.6,1.6,2.5,2.4,1.1,1,2.3,2,3.4,2.9,1.2,1,2.5,1.8,3.9,2.4,1.3.6,2.8.9,4.4,1.1.3,0,.6,0,.9,0,.3,0,.9,0,.9,0h0c0,0,.2,0,.3,0,.1,0,.3,0,.4,0,.5,0,.9,0,1.3-.3.5-.2.8-.6,1-1.1,0-.3,0-.7,0-1.1,0-.3-.2-.7-.2-.9l-4.5-21.7c0-.4-.3-.7-.5-1-.3-.3-.7-.5-1.1-.5s0,0-.1,0c0,0-.1,0-.2,0-.2,0-.4,0-.6,0-.2,0-.4.1-.6.2-.3,0-.6.1-1,.2-.4,0-.7.1-1.1.2-.4.1-.7.2-1,.4-.4.2-.6.4-.8.7-.2.4-.2,1,0,1.8.2.7.3,1.2.4,1.7l2,9.9c0,.2,0,.4.2.6,0,.1,0,.3,0,.4h0c0,0,0,.3,0,.3,0,.1,0,.3,0,.4,0,0,0,0,0,0-.1,0-.2,0-.3,0-.2,0-.5-.2-.7-.3-.2-.2-.5-.3-.6-.4,0,0-.2-.2-.3-.2-.2-.2-.4-.3-.6-.5-.2-.1-.4-.3-.6-.5-.6-.6-1.3-1.1-1.9-1.7-.6-.6-1.2-1.2-1.8-1.8-.2-.2-.5-.5-.7-.7-.3-.2-.5-.5-.7-.7-.9-.8-1.8-1.6-2.6-2.3-.9-.8-2-1.4-3.1-1.9-.9-.4-1.9-.7-2.9-.8-.5,0-1-.1-1.5-.1s-.4,0-.6,0c-.7,0-1.5.2-2.3.3-.7.2-1.5.4-2.2.7-.7.3-1.3.6-1.9.9-.2.2-.5.3-.7.5-.3.2-.5.4-.8.6-1.5,1.4-2.5,3.2-3.2,5.3-.7,2.1-.7,4.6,0,7.3h0c0,.1,0,.2,0,.2,0,.1,0,.3,0,.4,0,.1.1.3.2.4,0,.1,0,.3.1.4h0c0,0,0,.1,0,.1.2.5.4.9.6,1.3.2.5.4,1,.7,1.4.8,1.2,1.7,2.2,2.6,3,1,.8,2.1,1.4,3.4,1.9.2,0,.5.2.7.3.3,0,.5.2.7.2h.9c.3.2.6.2.9.3ZM395.5,61.2c-.2.7-.4,1.5-.6,2.2-.2.7-.4,1.5-.6,2.2-.1.4-.2.8-.4,1.2-.2.6-.1,1.1.1,1.6.2.4.5.7.9,1,.4.2.7.4,1,.6l3.1,2c.2.2.5.3.8.5.3.2.6.4.9.5.3,0,.5.1.7.1.4,0,.7,0,1-.3.4-.2.8-.5,1.2-.8.7-.5,1.3-1,2-1.6.6-.5,1.3-1,2-1.5,2.3-1.8,11.4-9.1,13.7-10.9.6-.5,1.3-1,1.9-1.5.6-.5,1.2-1,1.8-1.4.2-.1.4-.3.5-.4.1-.1.3-.2.5-.4.7-.5,1.4-1.1,2-1.6.7-.6,1.3-1.1,2-1.6.3-.2.6-.5.9-.8.5-.5.6-1.1.3-1.5-.1-.3-.4-.6-.8-.8l-4.6-3c-.3-.2-.7-.3-1.1-.3h0c-.4,0-.8.1-1.1.4-.2.2-.4.3-.7.5-.4.4-2.2,1.8-2.6,2.1-1.9,1.5-3.7,3-5.5,4.4-1.8,1.5-3.6,3-5.5,4.4-.7.5-1.3,1-1.9,1.6-.6.5-1.2,1-1.8,1.4l-.8.6c0,0-.1,0-.1,0s0,0,0,0c0,0,0,0,0,0,0-.2,0-.5,0-.8l.2-.9c.2-.6.3-1.2.5-1.8.2-.6.3-1.2.5-1.7.6-2.1,1.2-4.3,1.8-6.4.6-2.1,1.2-4.3,1.8-6.4.2-.7.4-1.4.6-2,.2-.7.4-1.3.5-2,0-.4.2-.7.3-1.1.2-.5.1-1,0-1.4-.1-.4-.4-.7-.8-1l-4.4-2.9h0s-.1,0-.1,0c-.1-.1-.3-.2-.4-.2-.2,0-.4-.1-.6-.1s-.5,0-.6.2c-.2.1-.4.3-.5.5,0,.2-.2.3-.3.6,0,.3-.2.6-.2.9,0,.3-.2.6-.3.9-.2,1-.5,1.9-.8,2.9-.3.9-.5,1.9-.8,2.9,0,.3-.1.6-.2.8-.1.3-.2.7-.3,1-.2,1-.5,1.9-.8,2.9-.3,1-.6,2-.9,3-.6,2.3-1.2,4.5-1.8,6.6-.6,2.2-1.2,4.4-1.8,6.6ZM492,183.1l28.9-8.1c.4-.1.8-.2,1.2-.4.3,0,.6-.2.9-.2s.4,0,.5,0c.4,0,.7.4,1,.8,0,0,.1.2.1.3h0s4.1,14.8,4.1,14.8c0,.2.1.4.2.6,0,.3.2.5.2.8h0c0,0,0,.1,0,.1,0,0,0,.2,0,.2.1.2.2.4.2.7v.3c0,0,0,0,0,0,0,.1,0,.3,0,.4,0,.3.1.6.1.9,0,.2,0,.5,0,.7,0,.3,0,.6,0,.9,0,.7-.1,1.4-.2,2,0,.7-.2,1.3-.4,1.9-.3.8-.8,1.6-1.4,2.3-.6.6-1.3,1.2-2.2,1.8-.2.2-.5.3-.8.4-.2,0-.4.2-.6.3-.2.1-.4.2-.6.2,0,0-.1,0-.2,0-.1,0-.3.1-.5.2-.1,0-.2,0-.3,0h0s-.4,0-.4,0c-.1,0-.3,0-.4,0-.1,0-.2,0-.2,0h0s0,0,0,0c-.2,0-.4,0-.5,0-.2,0-.3,0-.4,0s-.2,0-.3,0c-1.3-.1-2.5-.4-3.5-.9-.3-.2-.6-.4-.9-.7-.2-.2-.4-.3-.7-.4-.1,0-.2-.1-.3-.1-.1.1-.2.4-.3.5,0,.4-.2.8-.3,1.1-.4,1.1-.9,2.1-1.6,2.9-.6.8-1.5,1.5-2.4,2.1-.2.2-.5.3-.8.5-.2.1-.5.2-.7.3h0s-.6.2-.6.2c-.3.2-.8.3-1.5.4-.6.1-1.1.2-1.5.2-.4,0-.7,0-1,0-.1,0-.3,0-.4,0-.2,0-.4,0-.6,0-1.9-.2-3.7-1-5.2-2.2-.6-.5-1.1-1-1.6-1.6-.5-.6-.9-1.2-1.4-1.9-.2-.3-.5-.7-.6-1.1-.2-.4-.3-.7-.5-1.1,0-.2-.2-.4-.2-.5,0-.1,0-.2-.1-.4,0-.2-.2-.4-.2-.6,0,0,0-.1,0-.2-.1-.2-.2-.4-.2-.6,0-.1,0-.3,0-.4l-4-14.4c-.2-.6-.3-1.1-.3-1.5,0-.4,0-1,.6-1.5.3-.2.7-.4,1.4-.6.5-.1,1-.3,1.3-.3ZM512.7,187.1c0,.3,0,.6.1.9,0,.3.2.7.3,1,.1.4.2.7.3,1,.1.5.3,1,.4,1.6.1.5.3,1.1.4,1.6.1.5.3,1,.5,1.5.2.4.4.8.6,1.1.5.8,1.2,1.3,2.1,1.5.2,0,.4,0,.6,0s.6,0,1,0c1-.2,1.8-.6,2.2-1.1.5-.5.8-1.1.9-1.9,0-.1,0-.4,0-.6,0-.2,0-.5,0-.8,0,0,0-.2,0-.5h0c0,0,0-.1,0-.1,0-.4,0-.8-.2-1.3-.2-.5-.3-1-.4-1.5l-1.1-4.1c0,0-.1-.2-.1-.3-.2-.3-.3-.4-.4-.4,0,0-.2,0-.3,0s-.2,0-.3,0l-3.7,1c-.2,0-.5.1-.8.2-.3,0-.4.1-.5.2h-.5c-.2.3-.3.4-.5.4-.1,0-.2.1-.3.2,0,0,0,.2,0,.3ZM497.8,191.3c0,.3,0,.6.1.9,0,.4.2.7.3,1.1.1.4.2.7.3,1,.3,1,.5,1.9.8,2.9.2.9.5,1.7.8,2.5.3.7.7,1.4,1.1,1.9.4.5.9.8,1.5,1,.3,0,.5.1.9.1h1.1s.2,0,.2,0c.5,0,.9-.2,1.4-.4.5-.2.8-.5,1-.6,1-.7,1.5-1.7,1.5-3.1,0-.5,0-1.2-.2-1.8-.2-.7-.3-1.4-.5-2.1l-1.5-5.4c-.2-.2-.2-.4-.2-.5,0-.1-.2-.3-.4-.3-.1,0-.2,0-.3,0s-.3,0-.5,0l-5.5,1.5c-.4.1-.8.2-1.2.4-.3,0-.5.2-.6.4,0,0,0,.2,0,.4ZM430.5,65.6c1.7-1,3.6-2,5.4-2.9.1,0,.3-.1.4-.2.1,0,.3-.2.5-.3.7-.4,1.3-.7,2-1.1.7-.4,1.4-.8,2.1-1.1.4-.2.7-.4,1-.6.4-.2.8-.4,1.3-.4h.1c.3,0,.6.1.8.3.1,0,.2.1.3.2h0s3.5,3,3.5,3c.3.2.6.5.9.7.4.3.6.7.7,1.1.2.5.2,1,0,1.5-.2.4-.3.7-.4,1.1-.2.6-.4,1.2-.6,1.7-.2.6-.4,1.1-.6,1.7l-.5,1.2c-.2.7-.5,1.4-.7,2-.3.7-.5,1.3-.7,2-.6,1.7-1.3,3.5-1.9,5.2-.7,1.7-1.3,3.4-1.9,5.2,0,.2-.1.3-.2.5,0,0,0,.1,0,.2l-1.2,3.3c0,.3-.2.6-.3.8-.1.2-.2.5-.3.7-.4,1.1-.8,2.2-1.2,3.3-.4,1.1-.8,2.2-1.2,3.2,0,.1,0,.3-.2.4h0c0,0,0,.2,0,.2,0,.1-.1.2-.2.4,0,.2-.2.5-.3.7-.1.3-.3.5-.5.6-.2.2-.4.3-.7.3s-.2,0-.3,0c-.4,0-.8-.3-1.4-.9-.4-.4-.8-.8-1.1-1l-1.8-1.6c-.2-.2-.4-.3-.5-.4-.2-.2-.4-.4-.6-.6-.3-.4-.4-.9-.3-1.4,0-.3.2-.7.3-1,.1-.3.2-.6.3-.8.2-.6.5-1.1.7-1.6.2-.5.4-1,.6-1.6l.4-.8c0-.2.2-.4.2-.6,0-.1,0-.3,0-.5,0-.2-.1-.4-.3-.6,0,0-.2-.2-.3-.3,0,0-.2-.2-.3-.3l-6.1-5.3c-.4-.4-.9-.8-1.4-1.3-.4-.4-.8-.6-1.1-.6h0c-.3,0-.4,0-.6.2-.3.2-.6.4-1,.6-.6.3-1.1.6-1.7.9-.6.4-1.2.7-1.7,1-.3.2-.6.3-1,.5-.4.2-.8.3-1.2.3h-.1c-.3,0-.6-.1-1-.4-.3-.2-.6-.4-.9-.7-.3-.3-.6-.5-.9-.8-.3-.3-.5-.5-.8-.7-.3-.3-.7-.6-1.2-1-.6-.5-.9-.9-1-1.3-.1-.3,0-.7.2-1,.1-.2.3-.4.6-.6.2-.1.4-.3.6-.4.2-.1.4-.2.6-.3.7-.3,1.5-.7,2.2-1.2.8-.4,1.5-.8,2.3-1.2.3-.1.5-.2.7-.4.3-.2.6-.3.9-.5.6-.3,1.3-.7,2-1.1.7-.4,1.4-.8,2.1-1.1.7-.3,1.3-.7,1.9-1,.6-.3,1.3-.7,1.9-1,1.8-.9,3.6-1.9,5.3-2.8ZM430.6,74.7c-.3.2-.6.4-.9.6-.2,0-.3.2-.3.4,0,0,0,.2.2.4.3.3.5.5.8.8l3.7,3.2c.3.2.5.4.7.5,0,0,.1,0,.2,0s.1,0,.2-.1c.2-.3.4-.6.5-.9,0-.2.1-.4.3-.5,0,0,0,0,0-.2.4-1.2.9-2.4,1.4-3.5.5-1.1,1-2.3,1.4-3.5,0-.2.2-.4.3-.7.1-.2.2-.4.2-.6,0-.2,0-.4,0-.6,0,0,0,0,0,0,0,0,0,0-.1,0h0v-.5s0,0,0,0v.5c-.3,0-.7.2-1,.5-.4.3-.8.6-1.3.8-.9.5-1.8.9-2.7,1.5-.9.5-1.8,1.1-2.8,1.6-.3.2-.6.3-.9.5ZM353.4,17.8c.3.2.7.3,1.1.5.4.1.8.3,1.2.4l4.5,1.6c.7.2,1.2.5,1.7.7.2,0,.4.3.4.8h0c0,.1,0,.2,0,.2-.1.2-.2.4-.2.7,0,.1,0,.3-.1.5-.1.2-.2.5-.3.7l-8.3,23.5c-.2.5-.2.9-.1,1.4.1.4.4.7.8.9.3.1.6.3,1,.4l4.1,1.4c.3.1.6.2.9.2h0s0,0,0,0c.6,0,1-.3,1.3-.9.2-.4.4-.8.6-1.4l8-22.7c0-.2.1-.4.2-.7,0-.2.1-.4.2-.5.2-.2.3-.4.3-.7,0,0,0-.1,0-.2.3-.4.5-.4.6-.4s0,0,.2,0c.5.1,1,.3,1.6.5l4.9,1.7c.7.2,1.3.4,1.8.6.2,0,.3,0,.5,0,.4,0,.9-.1,1.3-.8.2-.2.3-.5.4-.8,0-.2.1-.4.2-.6l.8-2.4c0-.2.1-.3.1-.5v-.3c.1-.2.1-.4.1-.6,0-.3,0-.5-.2-.7-.3-.3-.6-.6-1.1-.8-.4-.2-.8-.3-1.2-.5l-24.5-8.7h0c-.1,0-.3,0-.4,0-.2,0-.3,0-.4,0-.5.1-.8.4-1,.8-.2.3-.3.7-.5,1.2l-.8,2.4c0,.3-.2.5-.3.8,0,.3-.1.6,0,.9,0,.3.3.6.6.9ZM313,30.9c0,.2,0,.5,0,.7.1,1.2.4,2.3.8,3.2.6,1.6,1.5,2.9,2.6,4,1.1,1.1,2.5,2.1,4,2.9.4.2.8.4,1.2.6.4.1.8.3,1.2.5.2,0,.3.1.5.2.1,0,.3,0,.4.1.2.1.5.2.8.2.2,0,.4,0,.5.2h0s.5.1.5.1c.2,0,.5.2.9.2.4,0,.7.1,1,.1h0s0,0,0,0c.1,0,.3,0,.3,0h.5c0,0,0,0,0,0,0,0,.1,0,.2,0,0,0,.2,0,.3,0,.2,0,.4,0,.6,0s.2,0,.2,0h.3c.4,0,.8,0,1.2,0,.2,0,.4,0,.6,0,.4,0,.7,0,1.1,0,.7-.1,1.4-.2,2.1-.3.7-.1,1.4-.3,2.1-.6.2,0,.5-.2.7-.3.2-.1.4-.2.6-.3.3-.1.6-.3.8-.4.3-.2.5-.3.8-.6,0-.1.2-.2.3-.3.2-.1.4-.2.6-.4.4-.4.8-.9,1.2-1.4.3-.5.7-1,1-1.6.2-.3.3-.7.4-1,.1-.3.2-.7.4-1.1l.2-.8c.1-.2.1-.4.1-.7.1-.8.2-1.5.2-2.1h0c0,0,0-.1,0-.1,0-.1,0-.3,0-.5,0-.4-.1-.7-.2-1.1,0-.4-.2-.8-.3-1.1-.4-1.1-.9-2-1.5-2.7-.6-.7-1.3-1.4-2.1-2.2-.5-.5-1.2-.9-1.9-1.3-.7-.3-1.3-.7-1.9-1-.2-.1-.4-.2-.7-.3,0,0-.2,0-.3-.1-.9-.4-1.8-.9-2.7-1.3-.9-.4-1.8-.8-2.6-1.3-.4-.2-.8-.4-1.2-.6-.3-.1-.7-.3-1-.5-.6-.4-1.1-.7-1.5-1.1-.3-.3-.6-.8-.7-1.4,0,0,0-.3,0-.6,0-.2,0-.4.2-.6.3-.8.7-1.3,1.1-1.7.4-.3,1.1-.6,1.8-.8.3,0,.7-.1,1.1-.1s.3,0,.5,0c.6,0,1.2.1,1.8.3.6.1,1.2.3,1.7.5.5.2,1,.4,1.3.6.4.3.8.7,1.1,1.1.2.2.4.5.5.8.2.4.3.7.3,1.1,0,.4.2.8.2,1.1,0,.5.3,1,.9,1.3.2.1.5.2.9.3l4.1.7c.4,0,.8.1,1.1.1.4,0,.8-.1,1.1-.4.2-.2.4-.5.5-1,0-.4.1-.8.1-1.1,0-.7-.1-1.4-.2-2,0-.6-.3-1.3-.5-1.9-1.8-4.6-6.1-7.4-12.7-8.6h-.2s0,0,0,0c0,0,0,0,0,0-.2,0-.4-.1-.6-.1s-.1,0-.1,0c-.3,0-.6,0-.8,0-.3,0-.6,0-.9,0h-.2c-.9,0-1.8.1-2.6.2-.8,0-1.7.3-2.5.6-1.2.5-2.3,1.1-3.3,1.8-1,.7-1.9,1.6-2.6,2.8-.2.3-.4.7-.5,1-.1.3-.3.6-.4,1h0c0,0,0,.1,0,.1,0,.3-.1.4-.1.5-.1.4-.3.9-.3,1.5,0,.6-.1,1.1,0,1.4,0,.4,0,.7,0,1,0,.4,0,.7.1,1.1.2,1,.6,1.9,1.2,2.8.5.8,1.2,1.6,1.9,2.2.5.5,1.2,1,1.8,1.4.7.4,1.4.8,2.1,1.3.2.1.5.2.7.3.2.1.4.2.7.3.2.1.3.2.5.2,0,0,0,0,.2.1.5.3,1,.5,1.6.7.5.2,1,.5,1.5.7.3.1.5.2.7.3.2,0,.4.2.6.3.6.3,1.2.6,1.7.9.5.3,1,.6,1.5,1,.2.2.4.3.5.4.6.6,1,1.3,1.2,2.2,0,.1,0,.3,0,.6,0,.2,0,.4-.1.6-.4,1-1,1.7-1.6,2-.7.3-1.6.6-2.8.7,0,0-.2,0-.3,0s0,0-.1,0c-.2,0-.3,0-.5,0-.2,0-.3,0-.5,0h-.2c-.2,0-.5,0-.9,0-.4,0-.8-.2-1-.3h0s-.3,0-.3,0c-.3-.1-.5-.2-.8-.2-.2,0-.3,0-.5-.2-1-.5-1.8-1-2.4-1.6-.2-.2-.3-.3-.5-.5-.2-.2-.3-.4-.4-.6-.2-.3-.3-.7-.5-1-.1-.3-.2-.7-.3-1.1,0-.4-.1-.8-.1-1.1,0-.6-.2-1-.7-1.4-.3-.2-.6-.3-1-.4l-4-.7c-.4,0-.8-.1-1.2-.1-.5,0-.9.2-1.1.5-.3.3-.5.7-.5,1.2,0,.4,0,.8,0,1.1,0,.2,0,.4,0,.6ZM281.9,37.5c.4,0,.8.1,1.3.2l24,2c0,0,.1,0,.2,0,.4,0,.7,0,.9-.3.4-.2.7-.6.8-1.1,0-.4.1-.8.2-1.2l.2-2.3c0-.3,0-.6,0-.8,0-.3,0-.5,0-.8-.1-.4-.4-.7-.7-.9-.3-.2-.6-.3-.9-.3l-15.2-1.2c-.2,0-.4,0-.6,0h0c-.1,0-.3,0-.4,0h0s-.5,0-.5,0c-.2,0-.3-.1-.5-.2v.5h0v-.6c-.1,0-.2-.2-.2-.4,0-.3,0-.6,0-1l.4-5.3c0-.2,0-.3,0-.4,0-.2.2-.3.3-.4.2,0,.4-.2.6-.2,0,0,.2,0,.3,0,.2,0,.4,0,.6,0,.4,0,.8,0,1.2.1l9.9.8c.2,0,.5,0,.9,0,.4,0,.7,0,1.1.1.3,0,.5,0,.8,0s.2,0,.3,0c.4,0,.7,0,1-.2.3-.2.5-.5.6-.8.1-.2.2-.5.2-.8v-.7c0-.3.1-.6.2-.9,0-.4,0-.8,0-1.1,0-.4,0-.8,0-1.1,0-.5-.2-.8-.5-.9-.2-.2-.5-.3-.9-.4-.3,0-.6-.1-1-.2-.4,0-.7,0-1.1,0-.3,0-.6,0-.9,0l-11.5-.9c-.3,0-.6,0-.8,0-.2,0-.3,0-.5-.2,0,0-.1-.1-.1-.2,0-.2,0-.4-.1-.6l.4-4.3c0-.4,0-.7.2-1,0-.2.2-.3.3-.4,0,0,.1,0,.5,0,.2,0,.4,0,.6,0s.2,0,.3,0c.3,0,.7,0,1,0,.4,0,.7,0,1,.1l13.6,1.1s.3,0,.3,0c.3,0,.6,0,.8-.2.4-.2.7-.5.8-1.1h0c0,0,0-.1,0-.1,0-.4,0-.6.1-.7,0-.3,0-.6,0-.8,0-.2,0-.5,0-.8,0-.2,0-.5,0-.7,0-.3,0-.6,0-.8v-.7c0,0,0-.1,0-.1,0,0,0-.2,0-.3,0-.2,0-.4-.2-.6-.2-.4-.6-.6-1.1-.7-.4,0-.8-.1-1.2-.2l-4.4-.4-19.1-1.5h-.2s0,0,0,0c0,0-.2,0-.2,0-.5.1-.9.3-1,.6-.2.2-.4.6-.4,1l-2.8,33.7c0,.4,0,.8.2,1.1.2.4.6.7,1.1.8ZM218.3,7.2l3.6,30.4c0,.4.1.8.2,1.1,0,.4.3.8.6,1,.3.2.7.3,1.1.3h0c.3,0,.7,0,1.1,0l3-.4c.2,0,.5,0,.8,0h0c.3,0,.6,0,.9-.2.6-.2,1-.5,1.1-.9.2-.4.2-.9.1-1.5,0-.5-.1-1-.2-1.5l-3.6-30.4c0-.4-.1-.9-.2-1.2,0-.5-.2-.8-.5-1.1-.3-.3-.6-.5-1.1-.5h-.1c-.3,0-.7,0-1.1.1l-4.4.5c0,0-.2,0-.3,0,0,0-.1,0-.2,0h-.1s0,0,0,0c-.4.2-.6.5-.8.8-.2.4-.2.9-.1,1.7,0,.6.2,1.2.2,1.7ZM374.2,56.1c-.2.4-.2.8,0,1.2.1.3.4.6.8.9.3.2.6.4,1,.5l2.7,1.4c.2.1.4.2.7.4.3.2.6.3.9.4.2,0,.4,0,.6,0,.3,0,.6,0,.8-.2.4-.2.7-.6,1-1.2.2-.5.4-.9.6-1.3l13.8-27.3c.2-.4.4-.8.5-1.1.2-.4.3-.8.2-1.2,0-.3-.2-.7-.8-1-.3-.2-.6-.3-1-.5l-3.9-2c0,0-.2,0-.3-.1,0,0-.1,0-.2,0h0s-.2,0-.2,0c-.4,0-.7,0-1,.2-.4.2-.7.7-1,1.3-.3.6-.5,1.1-.7,1.5l-13.8,27.3c-.2.4-.3.7-.5,1ZM486.3,142l1.7,3c.2.3.4.7.6,1,.2.4.5.6.9.8.1,0,.3,0,.4,0s.4,0,.7-.2c.3-.1.6-.3,1-.5l3.2-1.8c.3-.2.6-.4.9-.6.4-.3.6-.6.7-1,0-.4,0-.8-.3-1.2l-2.6-4.6h0c0-.1,0-.2-.1-.3h0c0,0,0-.1,0-.1-.4-.3-.8-.5-1.1-.5h0c0,0-.1,0-.2,0-.3,0-.6,0-.9.3l-3.7,2.1c-.3.2-.7.4-.9.6-.3.2-.6.5-.7.9-.1.4-.1.8,0,1.2.1.3.3.7.5,1ZM437,443c0-.5-.2-1-.3-1.4,0-.5-.2-.9-.4-1.4-.2-.4-.3-.9-.5-1.4-.1-.3-.2-.6-.3-.8-.1-.2-.2-.4-.3-.8-.1-.3-.3-.6-.5-.8-.1-.2-.3-.5-.3-.7h0c0,0-.3-.5-.3-.5,0,0-.1-.2-.2-.3,0,0,0,0,0,0,0-.2-.2-.5-.4-.9-.2-.3-.4-.5-.6-.7l-.5-.8h0c0,0,0-.1-.1-.2,0-.2-.2-.4-.4-.5-.2-.2-.4-.4-.6-.7-.2-.3-.5-.5-.7-.8,0,0-.1-.1-.2-.2-.1-.2-.3-.3-.4-.4-.4-.4-.9-.7-1.2-1.1-.4-.4-.9-.7-1.3-1-1.9-1.2-3.9-2.1-6-2.6-1.1-.3-2.3-.4-3.4-.4s-2,0-3,.3c-.3,0-.6,0-1,.2-.3,0-.7.2-1,.2-.4.1-.7.2-1,.4-.3.1-.6.2-1,.4-.2.1-1.4.7-1.4.7-.2.1-.3.2-.3.2-.3.1-.6.3-.9.5l-1.5,1c-.2.2-.3.3-.5.4-.2.1-.3.3-.5.4h0c0,0,0,.1,0,.1,0,0-.1.1-.2.2-.2.1-.4.3-.5.4l-.8.8c-.3.3-.6.6-.8.9-2.4,3-3.6,6.4-3.5,9.9,0,.3,0,.6,0,1,0,.2,0,.5,0,.8,0,.5.1,1.1.3,1.6.1.5.3,1,.4,1.6l.5,1.3c.1.4.3.8.6,1.1.4.5.8.7,1.2.7.3,0,.7-.1,1-.3l4.1-2.7c.3-.2.5-.4.7-.7.3-.4.3-.9.2-1.3,0-.3-.2-.7-.3-1,0-.4-.2-.9-.3-1.3-.1-.4-.2-.8-.2-1.1,0-.8,0-1.6.2-2.3.1-.7.4-1.4.9-2.1.2-.3.4-.5.6-.8.3-.3.5-.5.9-.9,0,0,0,0,.3-.3.1-.1.3-.2.5-.4.2-.1.3-.2.4-.2h0s.4-.3.4-.3c.1,0,.2-.2.4-.2.1,0,.3-.1.4-.2.5-.2.9-.3,1.3-.4.4-.1.8-.2,1.1-.3.3,0,.6,0,1,0,.9,0,1.8.2,2.7.5,1.1.4,2.3,1.1,3.4,2,.2.2.5.4.7.6.2.2.5.5.7.8.2.2.4.4.5.5h0c0,0,0,.1,0,.1,0,0,.1.1.2.2.1.2.2.4.4.5l.2.4h0c0,0,.1.2.1.2,0,.1.1.3.2.4.2.2.3.5.5.7.1.2.3.4.3.6,0,.3.2.6.4.8,0,.1.2.3.2.5.1.2.2.4.3.6,0,.2.2.3.2.5.1.5.2.9.4,1.4.1.4.2.9.3,1.3.4,2.3,0,4.5-1.3,6.4-.1.2-.3.4-.4.5-.2.2-.3.4-.5.6-.4.5-1,.9-1.7,1.4-.7.4-1.3.7-1.8.9-.8.2-1.7.4-2.5.4h-.2c-1.1,0-2.1-.2-3.1-.8-.3-.1-.6-.3-.9-.5-.4-.3-.8-.5-1.4-.6-.3,0-.6.1-1,.3-.3.2-.7.3-1,.6-.4.2-.7.5-1.1.7-.3.2-.6.5-.9.6-.2.1-.4.2-.6.4-.2.1-.5.3-.6.5l-.3.2-.5.5c-.2.3-.3.6-.2,1,0,.4.3.7.6,1,.2.2.4.4.6.6.6.5,1.1.9,1.7,1.3.5.4,1.2.7,1.8,1,2,.9,4.1,1.3,6.4,1.3s.9,0,1.3,0c2.7-.2,5.6-1.4,8.6-3.4h0c0,0,0,0,0,0,.2,0,.3-.2.4-.3.2-.2.4-.3.5-.4.2-.2.4-.3.6-.5h0s0,0,0,0c0,0,.2-.2.3-.3.2-.1.4-.3.5-.5.3-.4.7-.7,1-1.1.3-.4.6-.7.9-1.1.7-1.1,1.4-2.1,1.8-3.2.5-1,.8-2.2,1.1-3.4l.2-.8c0-.3,0-.6.1-.9,0-1,0-2,0-3.1,0-.5,0-1-.2-1.5ZM362.3,486.8l-7.2-32c0-.4-.3-.7-.5-1-.3-.3-.7-.4-1.1-.4s-.1,0-.2,0c-.4,0-.8,0-1.3.2l-21.6,4.9c-.4,0-.7.3-.9.5-.2.2-.4.5-.5.9,0,.3,0,.5,0,.8,0,.2.1.5.2.7l.7,3.2c0,.4.3.7.6,1,.2.2.5.3,1,.3h0c.4,0,.7,0,1.1-.1.4,0,.8-.2,1.2-.3.4-.1.7-.2,1-.2l11.7-2.6c.2,0,.3,0,.5,0,.4,0,.5.1.6.2,0,.1.1.2.2.4,0,.2.1.4.2.6v.6c.1,0,.2,0,.2,0,0,.2.2.3.2.5,0,.3,0,.5.2.8l5.4,23.8c.1.5.3.9.6,1.1.3.2.6.3.9.3s.2,0,.3,0c.4,0,.7-.1,1.1-.2l4.4-1h0c.1,0,.3,0,.4-.2.5-.2.8-.6.9-1,0-.3,0-.6,0-1,0-.3-.1-.6-.2-.9ZM401.1,462c.1.6.2,1.2.2,1.8,0,.7,0,1.3,0,1.9,0,.7,0,1.3-.2,1.9-.3,1.9-.9,3.7-1.8,5.2-.8,1.5-2,3.1-3.5,4.5-.4.3-.8.7-1.2,1-.4.3-.8.6-1.2.9-.1.1-.3.3-.5.3-.1,0-.2.1-.3.2l-1.4.7c-.1.1-.3.2-.5.2h0s0,0,0,0c-2.3,1-4.4,1.6-6.3,1.7-.5,0-1,0-1.5,0-1.4,0-2.7-.2-4-.5-.5-.1-1.1-.3-1.7-.5-.6-.2-1.2-.4-1.6-.7-.2,0-.4-.2-.6-.3-.2-.1-.5-.2-.7-.3-.6-.4-1.1-.8-1.7-1.1-.6-.4-1.1-.9-1.7-1.4-.4-.4-.7-.7-1-1.1-.3-.4-.6-.7-1-1.2-.2-.3-.5-.6-.7-.9-.2-.3-.4-.6-.6-.9-.2-.2-.3-.5-.4-.7,0-.2-.1-.3-.2-.4-.2-.2-.3-.5-.4-.7,0-.2-.1-.3-.2-.4l-.2-.4c-.2-.2-.3-.5-.5-1-.2-.5-.3-.8-.4-1.1l-.2-.6h0c0-.4-.1-.7-.3-1-.1-.4-.3-.8-.3-1.2,0-.3,0-.5-.1-.7,0-.3-.1-.5-.1-.8,0-.6-.1-1.2-.2-1.8,0-.6-.1-1.2,0-1.9,0-2.6.6-5.1,1.7-7.3,1-2.2,2.6-4.2,4.7-6,.3-.3.6-.5,1-.7l.9-.6c.2-.2.4-.3.6-.4.1,0,.3-.1.4-.2l1.6-.8c0,0,.3-.2.7-.3.5-.2.7-.2.8-.2,0,0,.2,0,.3-.1.2,0,.4-.2.6-.2l.5-.2h0c.3,0,.5,0,.7-.2.3,0,.5-.1.8-.2.3,0,.5,0,.8-.1.3,0,.6-.1.9-.1.4,0,.9,0,1.3,0,.2,0,.4,0,.7,0s.4,0,.6,0c2.3,0,4.4.5,6.3,1.4,1.9.9,3.7,2.1,5.3,3.7.4.4.7.8,1.1,1.3.3.4.7.9,1,1.3.1.1.3.3.3.5,0,0,0,.1.1.2.2.2.3.4.5.7.1.2.3.4.4.6.1.2.2.4.3.6,0,0,0,0,0,.1h0s0,.1,0,.1c.1.2.2.5.3.7,0,.1,0,.3.2.4.2.2.3.4.4.8.2.4.2.7.2,1,0,0,0,0,0,.2.1.2.2.4.3.6v.3c.1,0,.1,0,.1,0,0,.2,0,.4.1.5.1.3.2.5.2.8,0,.1,0,.3,0,.4,0,.2.1.5.1.7,0,.5.1,1.1.2,1.6ZM392.6,464.3c0-.3-.1-.7-.2-1,0-.4-.2-.8-.2-1.2,0,0,0-.2,0-.3,0-.1,0-.3-.1-.5,0-.2,0-.3,0-.4-.1-.2-.2-.5-.3-.7,0-.1,0-.3-.2-.8-.2-.5-.3-.7-.3-.7h0c0,0-.2-.6-.2-.6,0-.1-.2-.3-.2-.4,0-.1,0-.2-.1-.3h0c0,0,0-.1,0-.1,0-.1,0-.2-.1-.3,0-.1-.1-.2-.2-.3-.2-.3-.4-.6-.6-1-.2-.3-.4-.6-.6-.8-.7-.9-1.5-1.6-2.4-2.3-.8-.6-1.7-1-2.6-1.3-.3-.1-.4-.2-.6-.2-.2,0-.4,0-.6,0-.3,0-.6,0-.9,0s-.2,0-.3,0c-.4,0-.9,0-1.4.1-.2,0-.2,0-.3,0-.2,0-.4.2-.6.2-.2,0-.4,0-.5.1l-1,.4c-.1,0-.3.2-.5.2,0,0,0,0-.2.1-.4.3-.7.4-1,.6-.3.2-.5.3-.7.5-1.1,1-1.9,2.1-2.3,3.2-.4,1.1-.6,2.4-.6,3.9,0,.4,0,.8,0,1.2,0,.5.2.9.2,1.4l.3,1.1c0,.2,0,.3,0,.4l.4.9h0c0,.2,0,.3.1.6.1.3.2.4.3.5h0c0,0,.3.9.3.9.1.2.2.3.2.5h0s0,.2,0,.2c.2.3.3.5.5.8,0,.2.2.4.3.5h0c0,0,0,.1,0,.1,0,.1.1.2.2.3l.7.9c.2.3.5.6.8.9,1.3,1.3,2.7,2.1,4.4,2.6.5.1,1.1.2,1.7.2,1.2,0,2.5-.3,4-.9.1,0,.2-.2.4-.2.2-.1.3-.2.5-.3,0,0,0,0,.2-.1.4-.3.7-.5,1-.7.3-.2.5-.4.7-.6,1-1,1.7-2.2,2.1-3.4.4-1.3.5-2.7.4-4.2ZM250.7,34.9c0,.4,0,.8,0,1.1,0,.6.3,1,.6,1.1.3.2.7.4,1.1.4.3,0,.6,0,.9,0h3.2c.2,0,.5,0,.7,0,.1,0,.2,0,.3,0,.2,0,.4,0,.7-.1.2,0,.3-.1.5-.2.3,0,.5-.3.7-.6.2-.4.3-1,.3-1.8,0-.7,0-1.3,0-1.8v-9.8c0-.1,0-.3,0-.5h0s0,0,0,0c0-.1.1-.4.7-.4.6,0,1.2,0,1.9,0h8.6c.4,0,.9,0,1.4,0h.2c.7,0,1.2,0,1.5-.3.3-.2.6-.5.8-1.1,0-.3.1-.7,0-1,0-.3,0-.6,0-.9,0-.5,0-1.1,0-1.8,0-.8-.2-1.4-.7-1.8-.2-.2-.5-.3-.9-.3-.3,0-.6,0-1,0-.2,0-.3,0-.5,0s-.4,0-.7,0c-.3,0-.7,0-.9,0h-9.2c-.2,0-.4,0-.6,0-.2,0-.3,0-.5,0-.1,0-.2-.1-.3-.2,0-.2-.1-.4-.2-.6v-.6s0,0,0,0c0-.1,0-.3,0-.5,0-.3,0-.5,0-.6v-2.5c0-.3,0-.6,0-1,0-.3,0-.6,0-.7.1-.4.3-.5.3-.5.2-.1.5-.2,1.3-.2h.1c.6,0,1.1,0,1.5,0h10.7c.4,0,.8,0,1.3,0h.1c.7,0,1.2-.1,1.6-.4.2-.2.4-.4.5-.6,0-.1.1-.3.2-.5h0s0-.1,0-.1c0-.2,0-.5,0-.8,0-.2,0-.5,0-.7,0-.3,0-.6,0-1,0-.4,0-.7,0-1.1,0-.4,0-.7,0-1.1,0-.4-.2-.7-.4-.9-.3-.3-.6-.5-1.1-.5-.3,0-.7,0-1.1,0s-22.2.2-22.2.2h0s0,0,0,0h0c-.1,0-.2,0-.3,0-.5.1-.9.4-1.1.7-.2.4-.3.9-.3,1.7,0,.6,0,1.2,0,1.7l.2,30.6ZM287.1,464.4l-.4,32.4c0,.4,0,.8,0,1.2,0,.5,0,1-.3,1.3-.2.3-.5.5-1,.7,0,0-.2,0-.3,0h-.2s-.1,0-.1,0h0s-17.4-.2-17.4-.2c-.5,0-1.1,0-1.6,0-.5,0-1,0-1.5-.2-.2,0-.3,0-.4,0-.3,0-.5,0-.7-.1l-.7-.2c-.3,0-.5-.2-.8-.3-.9-.4-1.7-.9-2.4-1.5-.7-.6-1.4-1.3-1.9-2-.1-.2-.3-.4-.4-.6,0-.2-.2-.3-.3-.4-.3-.6-.6-1.1-.7-1.7-.1-.5-.3-1.1-.4-1.7,0-.2,0-.4,0-.6,0,0,0,0,0-.1h0c0-.1,0-.6,0-.6,0-.3,0-.7,0-1.1,0-.4.1-.8.2-1,0-.2,0-.4,0-.6,0-.3,0-.5.1-.8.2-.5.4-1,.5-1.5.2-.5.4-1,.7-1.4,0-.1.2-.2.3-.4,0-.1.2-.2.2-.3.1-.2.3-.3.4-.5.1-.2.3-.3.5-.4l.6-.5c.2-.2.4-.3.7-.5.1,0,.2-.2.4-.3,0,0,.1-.1.2-.2,0,0-.2-.2-.3-.2l-1-.9c-.4-.3-.7-.7-1-1.1-.4-.6-.7-1.2-1-1.9-.2-.6-.5-1.4-.7-2.2,0-.3-.1-.7-.1-1.1,0-.3,0-.6-.1-.9h0c0,0,0-.1,0-.1,0-.2,0-.4,0-.5,0-.2,0-.4,0-.6,0-.2,0-.4,0-.5,0-.1,0-.2,0-.3,0-.2,0-.4,0-.6,0,0,0-.2,0-.3,0-.4-.1-.8,0-1.2,0-.3,0-.7,0-1v-.9c-.1,0-.3-.9-.3-.9,0-.3-.1-.6-.2-.9,0-.3,0-.6,0-.9.1-.3.3-.4.5-.5.2-.2.6-.3,1-.3s.1,0,.2,0c.3,0,.7,0,1.1,0h2.8c.6,0,1.1,0,1.5.1.6,0,1,.4,1.3.8.3.5.5,1.1.5,1.9,0,.6,0,1.2.2,1.8h0c0,0,0,.1,0,.1,0,.1,0,.2,0,.3,0,.1,0,.2,0,.3,0,.4.1.9.1,1.4,0,.4,0,.8,0,1.2,0,0,0,.3,0,.6,0,.3.1.7.2,1.1,0,.4.1.7.2,1.1.2.7.5,1.4.9,2,.3.5.8.9,1.4,1.2.1,0,.3,0,.4.1.2,0,.4,0,.6.2.6.2,1.2.3,2,.3h6.5c.3,0,.5,0,.7,0,0,0,.1,0,.2-.1.2-.2.3-.7.3-1.2,0-.7,0-1.4,0-2v-6.5c0-.3,0-.6.1-.9,0-.3,0-.6,0-.8v-.7c0-.3,0-.5.2-.8.2-.4.5-.7.9-.9.2,0,.4-.1.7-.1h3.8c.3,0,1.1,0,1.1,0,.8,0,1.3.2,1.7.5.3.2.6.5.6,1.3ZM277.8,490.4v-6c0-.3,0-.5,0-.7,0-.1-.2-.2-.4-.2-.3,0-.6-.1-1-.2-.3,0-.5,0-.8,0h-.3c-.3,0-.6,0-.9,0h-3.3c-.2,0-.5,0-.8,0,0,0-.1,0-.1,0-.1,0-.3,0-.4,0h0s-.7,0-.7,0c-.3,0-.5,0-.8,0h0c-.2,0-.4,0-.6,0-.5.2-1,.3-1.4.6-.4.2-.7.5-1,.9-.2.3-.3.5-.4.9-.1.4-.2.8-.3,1.2,0,.3,0,.7,0,1.2,0,.5,0,.9.1,1.1,0,.2.1.4.1.5h0s0,.1,0,.1c.4.9,1,1.6,2,2,.5.3,1.1.4,1.8.4.7,0,1.5,0,2.3,0h5.8c.1,0,.2,0,.3,0h0s.1,0,.1,0c.2,0,.4-.2.4-.3.1-.2.2-.5.2-.8,0-.4,0-.9,0-1.3ZM330.1,480.3c0,.3,0,.6,0,.8,0,.1,0,.3,0,.4,0,.3,0,.5,0,.7,0,.5-.2,1.1-.2,1.6,0,.6-.2,1.2-.3,1.8-.2.6-.4,1.2-.6,1.8-.2.6-.4,1.2-.7,1.8-.9,1.8-2,3.3-3.2,4.5-1.2,1.2-2.8,2.4-4.7,3.4-.5.2-.9.4-1.4.6-.5.1-.9.3-1.4.5-.2,0-.4.2-.6.2-.1,0-.2,0-.4,0l-1.5.3c0,0-.2,0-.3,0s-.1,0-.2,0c0,0,0,0,0,0h-.1c-1.1.1-2.1.2-3.1.2s-2.4-.1-3.4-.3c-1.9-.4-3.6-1-5.1-1.9-.5-.3-1-.6-1.5-.9-.5-.4-1-.8-1.4-1.2-.1-.1-.3-.3-.5-.5-.2-.2-.4-.3-.5-.5-.5-.5-.9-1.1-1.3-1.6-.4-.5-.8-1.1-1.2-1.8-.3-.5-.5-.9-.7-1.4l-.6-1.4c-.1-.4-.3-.7-.4-1.1-.1-.3-.2-.7-.3-1-.1-.3-.2-.5-.2-.8,0-.2,0-.3-.1-.5-.1-.3-.2-.5-.2-.8,0-.2,0-.3,0-.4v-.4c-.1-.2-.2-.6-.3-1.1,0-.5,0-.9,0-1.1v-.6c0,0,0,0,0,0,0-.3,0-.6,0-1,0-.4,0-.8,0-1.2,0-.3,0-.5,0-.7,0-.3,0-.5,0-.8.1-.6.2-1.2.3-1.8,0-.6.2-1.2.4-1.8.8-2.5,2-4.7,3.6-6.5,1.6-1.8,3.7-3.3,6.2-4.4.4-.2.8-.3,1.2-.4l1.1-.3c.1,0,.4-.1.6-.2.2,0,.3,0,.4,0l1.7-.3c.1,0,.4,0,.8-.1.1,0,.3,0,.4,0,.2,0,.3,0,.4,0,0,0,0,0,0,0s0,0,0,0c0,0,.1,0,.2,0,.1,0,.3,0,.4,0s.1,0,.2,0h.5c0,0,0,0,0,0,.2,0,.4,0,.6,0h.2c.2,0,.5,0,.8,0,.3,0,.5,0,.8,0,.3,0,.6,0,.9.1l1.2.3c.4,0,.8.2,1.2.4,2.2.7,4.1,1.7,5.7,3.1,1.6,1.4,3,3.1,4.1,5.1.3.5.5,1,.7,1.5.2.5.4,1,.6,1.5,0,.2.2.4.2.6,0,0,0,.2,0,.3,0,.2.2.5.2.8,0,.2.1.5.2.7,0,.2.1.5.1.7,0,0,0,.1,0,.2h0c0,0,0,.1,0,.1,0,.3,0,.5,0,.8,0,.2,0,.3,0,.4.1.2.2.5.2.9,0,.4,0,.7,0,1,0,0,0,.1,0,.2,0,.2,0,.4,0,.7v.3s0,0,0,0c0,.2,0,.4,0,.5ZM321.1,480.3c0-.3,0-.5,0-.7,0-.1,0-.3,0-.9,0-.6-.1-.7-.1-.7h0c0,0,0-.7,0-.7,0-.2,0-.3,0-.5,0-.1,0-.2,0-.3h0c0,0,0-.1,0-.1,0-.1,0-.2,0-.3,0-.1,0-.2,0-.4-.1-.4-.2-.7-.3-1.1,0-.3-.2-.6-.3-.9-.5-1-1-2-1.6-2.8-.6-.8-1.3-1.5-2.1-1.9-.2-.2-.4-.3-.5-.3-.2,0-.4-.2-.6-.2-.4-.2-.8-.3-1.2-.4-.4,0-.9-.2-1.4-.3-.1,0-.2,0-.2,0-.2,0-.3,0-.5,0s-.1,0-.2,0c-.2,0-.3,0-.4,0s0,0-.1,0h-1.1c-.1.1-.3.2-.5.2h0s0,0-.2,0c-.4.1-.8.2-1.1.3-.3,0-.6.2-.8.3-1.3.7-2.4,1.5-3.1,2.4-.7.9-1.3,2.2-1.7,3.6-.1.4-.2.8-.2,1.2,0,.5-.1.9-.2,1.4v1.1c0,.2,0,.3,0,.4v1c0,0,0,0,0,0,0,0,0,.2,0,.6,0,.3,0,.5.1.5h0c0,0,0,1,0,1,0,.2,0,.3,0,.5h0s0,.2,0,.2c.1.3.2.6.2.9,0,.2,0,.4.2.6h0c0,0,0,.1,0,.1,0,.1,0,.2.1.4l.4,1.1c.1.3.3.7.5,1,.9,1.6,2,2.8,3.5,3.7,1.1.7,2.5,1,4.3,1s.9,0,1.4,0c0,0,.2,0,.3,0h.1c.2,0,.3-.1.5-.1h0c.1,0,.2,0,.3,0h0s0,0,0,0c.4-.1.7-.2,1-.3.3-.1.6-.2.9-.4,1.3-.7,2.3-1.6,3-2.7.7-1.1,1.2-2.4,1.6-4,0-.3,0-.7.1-1,0-.4,0-.8.1-1.2,0,0,0-.2,0-.3,0-.2,0-.3,0-.5,0-.2,0-.3,0-.4ZM530.7,303.3c-.2-.2-.5-.4-.8-.5-.3-.1-.6-.2-.9-.3l-31.7-8.6c-.2,0-.4,0-.6,0s-.4,0-.5,0c-.4.1-.8.5-1,.9-.2.3-.3.8-.4,1.3l-5.8,21.4c-.1.4-.1.8,0,1.1,0,.3.3.6.6.9.2.2.5.3.8.3.2,0,.5.1.7.2l3.2.9c.2,0,.3,0,.5,0,.2,0,.5,0,.6-.1.3-.1.5-.4.7-.8.2-.3.3-.7.4-1.1.1-.4.2-.8.3-1.2,0-.4.2-.7.2-1l3.1-11.6c.2-.7.5-.8.6-.8,0,0,0,0,.1,0,0,0,.2,0,.3,0,.2,0,.4,0,.6.1h.5c0,.1.1.2.1.2h0c.2,0,.4,0,.5,0,.3,0,.5.2.8.2l23.6,6.4c.2,0,.5,0,.7,0s.4,0,.6-.1c.3-.1.7-.4.9-1,.1-.3.2-.7.3-1.1l1.2-4.3h0c0-.2,0-.3,0-.5,0-.5-.1-1-.4-1.2ZM537.2,261.8v-.3s0,0,0,0c0-.4-.3-.8-.6-1.1h0s0,0,0,0c-.3-.2-.6-.3-1-.3l-22.3-2.3c-.5,0-1,0-1.5,0s-1.3,0-1.9.2c-.1,0-.2,0-.2,0s-.1,0-.1,0c-.2,0-.3,0-.5,0-.8.2-1.6.4-2.3.6-.7.2-1.4.5-2.1.9-2.1,1.1-3.7,2.9-4.8,5.1-1.1,2.2-1.8,5-2.1,8.3,0,.5,0,1-.1,1.5,0,.5,0,1,0,1.5,0,.2,0,.3,0,.4,0,.2,0,.5,0,.7,0,.3,0,.6.1,1,0,.3,0,.7.2,1,.3,1.5.8,2.9,1.5,4,.7,1.3,1.7,2.5,2.8,3.3,1.1.9,2.5,1.6,4.1,2.3,1,.4,2.1.7,3.4.8,1.2.2,2.5.3,3.8.4l17.1,1.8c.4,0,.8,0,1.3.2.2,0,.4,0,.5,0,.4,0,.7,0,.9-.2.4-.2.7-.6.9-1.1.1-.3.2-.6.2-.9,0-.2,0-.5,0-.8l.3-3.3c0-.4,0-.8,0-1.1,0-.4-.2-.8-.5-1.1-.3-.3-.8-.5-1.5-.5-.6,0-1.1,0-1.6-.1l-16.9-1.8c-1.3-.1-2.5-.3-3.7-.5-1.1-.2-2.1-.5-2.9-.9-.5-.3-.9-.7-1.3-1.1-.4-.5-.7-1-.8-1.6,0-.2-.2-.6-.2-1.1,0-.2,0-.5,0-.7,0-.3,0-.5,0-.8v-.8c0,0,0,0,0,0,0,0,0-.1,0-.5,0-.4,0-.5,0-.5,0-.2,0-.4,0-.6,0,0,0-.1,0-.3.1-.3.2-.6.3-.9,0-.2.1-.5.2-.7.4-.9.9-1.6,1.5-2,.6-.5,1.3-.9,2.1-1.1.3,0,.7-.1,1-.1.4,0,.8,0,1.2,0,0,0,0,0,.1,0,0,0,.2,0,.3,0h0s0,0,0,0c0,0,.2,0,.3,0s.3,0,.5,0c.3,0,.7,0,1,.1h.8c0,0,.1,0,.1,0h0c0,0,.1,0,.2,0,.2,0,.3,0,.5,0l17.4,1.8c.4,0,.9,0,1.3.1,0,0,.2,0,.2,0,.4,0,.8,0,1.1-.3.3-.2.5-.6.6-1.1,0-.4.1-.7.2-1.1l.5-4.4h0ZM521.4,337.6c0,.1,0,.3-.1.4h0c0,0-5.5,12.8-5.5,12.8,0,.2-.1.4-.2.6,0,.3-.2.5-.3.7l-.2.6h0c0,.1-.1.2-.2.4,0,.3-.2.5-.4.7,0,0-.1.2-.2.3,0,.2-.2.5-.4.7-.2.4-.5.7-.8,1.1-.3.4-.6.8-.9,1.1-.3.3-.6.6-.8.8-.3.3-.6.6-1,.8-.9.6-1.7,1.1-2.4,1.6l-.5.2c-.4.2-.8.4-1.3.5l-.5.3h0c-.3,0-.6.1-.9.2-.4.1-.7.2-1,.2-.8.1-1.7.2-2.6.2h0c-.9,0-1.8,0-2.7-.2-.5,0-1-.1-1.5-.3-.4-.1-.9-.3-1.4-.3h0s0,0,0,0c-.1,0-.2-.1-.3-.1-.1,0-.2,0-.4-.1-.3,0-.5-.1-.7-.2-.1,0-.3-.1-.4-.1h0s-.6-.3-.6-.3c0,0-.2,0-.3-.1-.2,0-.4-.1-.6-.2-.2,0-.4-.2-.5-.3-.1,0-.2-.1-.3-.1-.2,0-.4-.2-.7-.3-.2,0-.4-.2-.5-.3h0s0-.1,0-.1c0,0-.1-.1-.2-.1-.2,0-.4-.2-.6-.3-.3-.2-.6-.4-.9-.6-.4-.2-.7-.4-1-.7-.5-.4-.9-.7-1.3-1.1-.5-.3-.9-.7-1.3-1.1-1.1-1.1-2.1-2.3-2.8-3.6-.8-1.3-1.3-2.7-1.6-4.1-.2-.8-.3-1.7-.3-2.5,0-.8,0-1.7,0-2.6,0-.4.1-.8.2-1.1,0-.3.2-.7.2-1,0-.2.1-.4.2-.6,0-.1,0-.2.1-.4,0-.2,0-.4.2-.5,0,0,0-.1,0-.2,0-.2,0-.3.2-.5h0c0,0,0-.1,0-.1,0-.3.2-.7.4-1.1.2-.3.3-.7.5-.9l4.7-10.9c.2-.5.5-1,.7-1.4.2-.3.6-.7,1.4-.7.4,0,.9.2,1.4.4.5.2.9.4,1.3.6l27.6,11.8c.4.2.8.3,1.2.5.5.2.9.5,1.2.8.2.3.3.7.3,1.2ZM511.1,341.8s0,0,0-.2c0-.2-.3-.3-.4-.3l-.9-.4c-.4-.2-.8-.4-1.3-.6-.4-.2-.9-.4-1.3-.6l-13.1-5.6c-.2,0-.4-.2-.6-.3-.1,0-.3-.1-.4-.1h0s-.6-.2-.6-.2c-.2,0-.4-.2-.6-.2-.2,0-.3,0-.4,0-.2,0-.4,0-.6.5-.2.5-.5,1.1-.7,1.6-.5,1.2-1,2.5-1.6,3.7-.5,1.2-.8,2.3-.8,3.3,0,1.3.2,2.4.7,3.3.5,1,1.2,1.9,2.1,2.8.2.2.4.4.7.6.3.2.6.4.8.6l.4.2h0c.2.2.3.3.5.4.3.1.5.3.8.4l.5.2h0c0,0,.2.2.6.4.4.2.6.2.6.2h0s.9.4.9.4c.3,0,.6.2,1,.3.3.1.6.2.8.2h0c.2,0,.4,0,.6.2,0,0,.1,0,.2,0l1.7.2c.2,0,.4,0,.6,0s.6,0,.8,0c.9-.1,1.7-.4,2.5-.7.8-.3,1.5-.9,2.2-1.5.2-.2.4-.4.6-.7.2-.2.4-.5.6-.7.1-.2.2-.4.3-.6.1-.2.3-.5.5-.7,0,0,0-.1.1-.2,0-.2.1-.3.2-.4l.4-1h0c0-.1.1-.3.2-.4,0-.2.1-.4.2-.6l.9-2c0-.2,0-.3.2-.6,0,0,0-.1,0-.1,0-.2,0-.4,0-.6ZM503,374.3l-28.9-17.4c-.3-.2-.7-.3-1-.3h0c-.5,0-.9.2-1.2.6-.2.3-.5.7-.7,1.1l-12.4,20.6c-.2.4-.3.8-.3,1.1,0,.5.2.9.6,1.2.3.2.6.4,1,.7l2,1.2c.2.1.5.3.7.4.3.1.5.2.7.3,0,0,.2,0,.3,0,.3,0,.6-.1.9-.3.3-.2.5-.4.6-.7l7.9-13.1c0-.2.2-.3.3-.5,0-.1.1-.3.2-.4h0s.2-.4.2-.4c.1-.1.3-.2.4-.4h.2c0-.1.1-.1.2-.1s.2,0,.3,0c.3.1.6.3.9.5l4.6,2.7c.1,0,.2.2.3.2.1.2.2.3.2.5,0,.2,0,.4-.1.6-.1.3-.3.6-.5.8-.2.3-.4.7-.6,1l-5.1,8.5c-.1.2-.3.4-.5.7-.2.3-.4.6-.6.9-.2.3-.4.6-.5.9-.1.3-.2.6-.2,1,0,.4.2.7.5.9.1.2.4.4.6.5l.6.4c.2.1.5.3.8.5.3.2.7.4,1,.6.3.2.7.3,1,.4.2,0,.4.1.6.1s.4,0,.5-.1c.2-.1.5-.3.7-.6.2-.2.4-.5.6-.8.2-.3.4-.6.6-.9.2-.3.3-.6.4-.8l5.9-9.9c.2-.3.3-.5.5-.7.1-.2.2-.3.4-.3,0,0,0,0,.2,0s0,0,0,0c.2,0,.4,0,.6.1l3.7,2.2c.3.2.6.4.8.6.2.2.2.3.2.4,0,0,0,.1-.1.5-.1.3-.2.6-.4.9-.2.3-.3.6-.5.9-.2.3-.4.6-.5.8l-7.1,11.8c-.2.3-.3.7-.3,1,0,.4.2.8.6,1.2h0s0,0,0,0c.3.2.5.3.6.4.2.2.4.3.7.5.2.1.4.2.7.4.2.1.4.3.6.4.2.2.5.3.7.4l.6.3h.1c0,0,.2,0,.3,0,.2,0,.4.1.5.1h0c.4,0,.8-.3,1.1-.7.2-.3.5-.7.7-1l12.2-20.3h0c0-.2.2-.3.2-.4.1-.5.1-.9,0-1.2-.1-.3-.4-.6-.7-.8ZM483,408c0,.3,0,.7-.1,1.2,0,.1-.1.3-.3.4h0c0,.1,0,.1,0,.1l-11.3,13.2c-.4.4-.7.8-1,1.2-.4.4-.7.7-1.1,1-.2,0-.3.2-.3.3-.2.2-.4.3-.6.5l-.6.4c-.2.1-.5.3-.7.4-.9.4-1.8.7-2.7.9-.6.1-1.2.2-1.8.2s-.6,0-1,0c-.2,0-.5,0-.7-.1-.2,0-.3,0-.5,0-.7-.1-1.2-.3-1.7-.5-.5-.2-1-.5-1.6-.7-.2-.1-.4-.2-.5-.4,0,0,0,0-.1,0h-.1s-.4-.4-.4-.4c-.3-.2-.6-.4-.9-.7-.3-.3-.5-.6-.7-.8-.1-.2-.3-.3-.4-.5-.2-.2-.4-.4-.5-.6-.3-.5-.6-.9-.8-1.4-.3-.5-.5-1-.6-1.5,0-.1,0-.3,0-.5,0-.1,0-.3,0-.4,0-.2,0-.4-.1-.6,0-.2,0-.4,0-.6v-.8c0-.3,0-.6,0-.9,0-.1,0-.3,0-.5,0-.1,0-.2,0-.3-.2,0-.3,0-.3,0l-1.3.3c-.3,0-.6,0-.8,0s-.4,0-.6,0c-.7,0-1.4-.2-2.1-.4-.6-.2-1.3-.5-2.1-.9-.3-.2-.6-.4-.9-.6-.3-.2-.5-.4-.7-.5h0s0,0,0,0c-.1-.1-.3-.2-.4-.3-.2-.1-.3-.2-.5-.4-.2,0-.3-.2-.4-.3,0,0-.2-.1-.3-.2-.2,0-.3-.2-.5-.3,0,0-.1-.1-.2-.2-.3-.2-.7-.4-1-.7-.3-.2-.5-.4-.8-.6l-.8-.5c-.3-.1-.5-.3-.8-.4-.3-.1-.5-.3-.8-.4-.3-.1-.5-.3-.7-.6-.1-.3-.2-.5-.1-.7,0-.3.2-.7.5-1.1.2-.3.5-.5.7-.8l1.8-2.1c.4-.4.7-.8,1-1.1.3-.3.7-.5,1.2-.5s.2,0,.3,0c.6,0,1.2.4,1.8.8.5.4,1,.7,1.5,1h0s0,0,0,0c0,0,.2.1.3.2,0,0,.2.1.3.2.4.2.8.5,1.1.8.3.3.6.5.9.7,0,0,.3.1.5.3.3.1.6.4.9.6.3.2.6.4,1,.5.7.3,1.4.5,2.1.6.2,0,.3,0,.5,0,.4,0,.9,0,1.3-.3.1,0,.2-.1.4-.2.1-.1.3-.2.5-.4.5-.3,1-.7,1.5-1.3l4.2-4.9c.1-.2.2-.5.3-.6,0,0,0-.1,0-.2,0-.3-.3-.6-.8-1-.6-.4-1.1-.9-1.5-1.2l-5-4.3c-.2-.2-.4-.4-.6-.6-.2-.2-.4-.4-.6-.5l-.6-.5c-.2-.2-.4-.4-.5-.6-.2-.4-.3-.8,0-1.3,0-.2.2-.4.4-.7l2-2.3c.4-.4.7-.9,1.1-1.3.5-.6.9-.9,1.4-1,0,0,.2,0,.3,0,.4,0,.7.2,1.1.5l24.6,21.1c.3.2.6.5.9.7.4.3.7.7.8,1.1ZM472.2,410.3c0-.2-.2-.4-.5-.6-.3-.3-.7-.5-1-.8l-4.5-3.9c-.2-.2-.4-.3-.6-.3v-.5h0v.5c0,0-.2,0-.3.1-.2.2-.5.4-.7.6-.3.2-.5.5-.7.8-.3.3-.5.6-.7.8l-2,2.3c-.2.2-.3.4-.5.6-.1.2-.2.3-.3.4h0c0,0-.4.6-.4.6-.1.3-.3.5-.5.7-.1.2-.2.3-.3.5-.2.5-.4,1-.5,1.5,0,.4,0,.9,0,1.3,0,.3.2.6.4.9.2.3.5.7.8,1,.2.2.5.5.9.8.4.3.7.5.9.6.2,0,.4.1.5.2h0s0,0,0,0c.4.1.8.2,1.2.2s1.1-.1,1.6-.4c.5-.2,1-.6,1.5-1.1.5-.5,1-1.1,1.6-1.7l3.8-4.4c0-.2.1-.3.3-.4.1-.2.2-.4.1-.5ZM178.2,26.9c0,.3,0,.5,0,.8,0,.2,0,.3.1.6v.5c0,.2.1.5.2.9,0,.4.2.6.3.8l.2.9c0,.1,0,.2,0,.3,0,.2,0,.4.2.6.1.2.2.4.2.6,0,.3.2.6.3.9,0,.1.1.2.1.2,0,.1,0,.3.2.6.3.4.5.8.7,1.3.2.5.5.9.8,1.4,1.3,1.9,2.8,3.5,4.4,4.7,1.6,1.2,3.5,2.1,5.8,2.7.9.2,1.9.4,3,.5.3,0,.5,0,.8,0s.5,0,.7,0h.2c.2,0,.4,0,.7,0,.2,0,.4,0,.5,0h.3s.4,0,.4,0c.2,0,.4,0,.6,0,.1,0,.2,0,.5,0h.4c0,0,0,0,0,0,.1,0,.3,0,.5,0,.3,0,.5-.1.7-.2.3-.1.5-.2.8-.3.3,0,.7-.2.9-.3.1,0,.3-.1.5-.2.2,0,.4-.2.6-.3.5-.3.9-.5,1.4-.8.5-.3.9-.6,1.3-1,.3-.3.6-.6.9-.9.3-.3.5-.6.8-1,.2-.2.3-.5.5-.7,0-.2.2-.3.3-.4,0,0,.1,0,.2.1.2.2.3.4.4.7.2.4.4.7.6,1,.4.5.9.8,1.4.8s.1,0,.2,0c.5,0,1.1-.2,1.8-.3l.8-.2c.4,0,.7-.2.9-.4.4-.3.8-.8.7-1.8-.1-.6-.2-1.2-.4-1.8l-3.2-14.6c-.1-.5-.3-.9-.6-1.3-.3-.2-.6-.3-1.1-.3s-.5,0-.8.1l-11.1,2.4c-.2,0-.3,0-.4.1h-.5c-.2.1-.4.2-.7.4-.3.2-.5.6-.6,1,0,.2,0,.5,0,.8,0,.2,0,.5.1.8,0,.3.1.6.2,1,0,.4.1.7.2,1,0,.3.2.7.3.9.2.4.4.6.7.8.1,0,.3,0,.5,0h.1c0,0,.2,0,.3,0s.1,0,.1,0h.4c0,0,.1,0,.1,0,.2,0,.4,0,.6,0,.2,0,.4-.1.6-.2l3.5-.7c.1,0,.2,0,.3,0s.2,0,.3,0c.2,0,.3.1.3.5,0,.5,0,.9,0,1.2-.2,1-.4,1.9-.7,2.6-.3.7-.8,1.4-1.5,2-.3.3-.6.5-1,.7l-1.3.7h0c-.2,0-.4,0-.6.2,0,0-.1,0-.2,0-.2,0-.4,0-.6.2-.2,0-.4.2-.7.2-.2,0-.4,0-.5,0s0,0,0,0c0,0-.2,0-.3,0-.2,0-.3,0-.5,0-.1,0-.3,0-.4,0-.4,0-.7,0-1.1,0-.3,0-.6,0-.9-.1-1.5-.3-2.8-1-3.8-1.9-1-1-1.9-2.2-2.7-3.8,0,0,0-.2,0-.2,0-.1,0-.3-.2-.5-.2-.4-.4-.9-.6-1.5-.2-.5-.3-1.1-.4-1.7,0-.2-.1-.5-.2-.7,0-.2,0-.3,0-.5h0c0,0-.1-.7-.1-.7,0-.4,0-.8,0-1.2,0-.4,0-.7,0-1.1,0-.9.1-1.7.2-2.5.1-.7.3-1.5.6-2.2.3-.8.7-1.5,1.3-2.1.5-.6,1.2-1.2,2-1.7.1-.1.3-.2.4-.3.2,0,.4-.2.6-.3.3-.1.8-.3,1.3-.5.5-.2,1-.3,1.5-.3.1,0,.2,0,.3,0s0,0,0,0c.2,0,.4,0,.6,0,0,0,.1,0,.2,0s.2,0,.3,0c.9,0,1.7.2,2.4.5.5.2.9.5,1.3.8.4.3.8.7,1.2,1,.2.3.4.6.6.9.3.4.6.8,1,.9.2.1.5.2.8.2s.2,0,.4,0c.3,0,.7-.1,1.1-.2l3.2-.7c.4,0,.7-.2,1-.3.4-.1.7-.4.9-.8.2-.3.2-.7,0-1.2-.1-.4-.2-.7-.4-.9-.7-1.3-1.5-2.5-2.4-3.5-1.7-1.8-4-3.1-6.6-3.9-1.3-.4-2.7-.6-4.2-.6s-3.2.2-4.9.6h-.1s0,0,0,0h0c-.2,0-.4,0-.5.1-.2,0-.3.1-.5.1-.3,0-.6.1-.9.3,0,0-.2.1-.3.1-.2,0-.5.2-.6.3-.4.2-.8.4-1.2.5-.5.2-.9.4-1.2.7-1.7,1.1-3.1,2.3-4.2,3.6-1.1,1.3-2,2.8-2.7,4.4-.2.5-.4,1-.5,1.5-.2.5-.3,1.1-.4,1.6-.1.5-.2,1-.2,1.5,0,.5-.1,1-.2,1.5,0,.4,0,.8,0,1.2,0,.4,0,.7,0,1.1,0,.3,0,.7,0,1,0,.3,0,.5,0,.7ZM110.9,429.3l-2.6-2.2c-.3-.3-.6-.5-.9-.7-.4-.2-.7-.4-1.2-.4-.3,0-.7.2-1,.5-.2.2-.5.5-.7.8l-2.4,2.8c-.3.3-.5.6-.6.9-.2.4-.3.8-.3,1.2.1.4.3.7.7,1l4,3.3h0s.1,0,.1,0c0,0,.2.2.2.2h0c0,0,0,0,0,0,.3.1.5.2.8.2s.4,0,.4,0c.3,0,.6-.3.9-.6l2.7-3.2c.3-.3.5-.6.7-.9.2-.4.4-.7.4-1.1,0-.4-.2-.8-.5-1.1-.2-.3-.5-.5-.8-.8ZM72.9,69.6l14.2,17.3c.8,1,1.6,1.7,2.5,2.3.1,0,.2.1.2.2.1.1.3.3.5.4.7.5,1.4.9,2,1.2.7.3,1.4.6,2.2.8,1,.3,2,.4,3,.4s2.7-.2,4-.7c2.3-.8,4.8-2.3,7.3-4.4.4-.3.8-.6,1.1-1,.4-.4.7-.7,1.1-1.1,0-.1.2-.2.3-.3.2-.2.4-.3.5-.5.2-.2.4-.5.6-.8.2-.3.4-.6.6-.8.8-1.3,1.4-2.6,1.8-3.9.4-1.4.5-2.9.3-4.3-.2-1.4-.6-2.9-1.3-4.5-.4-1-1-2-1.8-3-.8-1-1.5-2-2.4-3l-10.9-13.3c-.3-.3-.5-.7-.8-1-.4-.5-.7-.8-1.1-.9-.1,0-.3,0-.4,0-.3,0-.6,0-1,.3-.3.1-.5.3-.8.5-.2.2-.4.3-.6.5l-2.5,2.1c-.3.3-.6.5-.8.8-.3.3-.4.7-.4,1.1,0,.5.3.9.7,1.5.4.4.7.8,1,1.2l10.8,13.2c.8,1,1.6,2,2.3,2.9.7.9,1.2,1.8,1.4,2.7.1.6.2,1.1.1,1.7,0,.6-.2,1.1-.5,1.7-.1.2-.3.5-.6.9-.1.2-.3.4-.4.5-.2.2-.4.4-.5.6l-.6.5h0c0,0,0,.2-.3.4-.3.2-.4.3-.4.3-.2.1-.4.2-.5.4,0,0,0,0-.3.1-.3.1-.5.3-.8.4-.2.1-.4.3-.6.4-.8.3-1.5.4-2.1.4s-.2,0-.4,0c-.8,0-1.5-.3-2.3-.7-.3-.2-.6-.4-.8-.6-.3-.3-.6-.5-.9-.8,0,0-.1-.1-.3-.3h0s0,0,0,0c-.2-.1-.4-.3-.5-.6-.2-.3-.4-.5-.6-.8l-.6-.7h0c0,0-.1-.2-.2-.2,0-.1-.2-.3-.3-.4l-11.1-13.5c-.3-.3-.6-.7-.9-1-.3-.4-.7-.6-1.2-.8,0,0-.2,0-.2,0-.3,0-.6.1-1,.3-.3.2-.6.4-.9.7l-3.4,2.8h0c0,.1-.2.3-.2.3h0c-.3.4-.4.8-.4,1.2h0c0,0,0,.1,0,.1,0,.3.2.6.5.9ZM49.3,379.7c.3-.1.7-.2,1-.3h0s0,0,0,0c.3-.1.4-.2.5-.2.4-.1.8-.4,1.4-.7.5-.4.9-.6,1.2-.9.3-.3.5-.5.8-.7.3-.2.5-.5.7-.8.6-.8,1.1-1.7,1.4-2.7.3-.9.4-1.9.5-2.9,0-.7,0-1.5-.1-2.3-.1-.8-.2-1.6-.4-2.4,0-.3-.1-.5-.2-.7,0-.2-.1-.5-.2-.7,0-.2,0-.4-.2-.5,0,0,0,0,0-.3-.1-.5-.3-1.1-.4-1.7-.2-.5-.3-1.1-.4-1.6,0-.3-.2-.5-.2-.7,0-.2-.1-.4-.2-.6-.1-.6-.3-1.3-.4-1.9-.1-.6-.2-1.2-.2-1.8,0-.3,0-.5,0-.6,0-.9.3-1.6.9-2.3,0,0,.2-.2.5-.4.2-.1.4-.2.6-.3.6-.2,1.1-.3,1.5-.3s.8,0,1.1.2c.7.3,1.5.9,2.3,1.7.1,0,.2.2.3.3.1.2.2.3.3.4.1.3.3.4.4.5.2.2.4.5.6.8.2.4.4.7.4.9h0c0,0,.1.3.1.3,0,.3.2.5.3.7,0,.2.2.3.2.5.3,1,.4,2,.3,2.8,0,.2,0,.5,0,.7,0,.2,0,.5-.2.7-.1.3-.3.7-.5,1-.2.3-.4.6-.7.9-.2.3-.5.6-.8.8-.4.4-.6.9-.6,1.4,0,.3.1.6.3,1l2,3.5c.2.4.4.7.7,1,.3.4.7.6,1.1.6,0,0,.2,0,.2,0,.3,0,.7-.1,1-.4.3-.2.6-.5.9-.7.1-.2.3-.3.4-.4.2-.1.4-.3.5-.5.9-.9,1.5-1.8,2-2.7.8-1.5,1.2-3,1.3-4.6,0-1.5,0-3.2-.4-5,0-.4-.2-.9-.4-1.3-.2-.4-.3-.8-.4-1.2,0-.2-.1-.3-.2-.5,0-.1-.1-.3-.2-.4,0-.2-.2-.5-.3-.7-.1-.2-.2-.3-.2-.5h0c0,0-.2-.5-.2-.5,0-.2-.2-.5-.4-.9-.2-.4-.4-.6-.5-.8h0c0,0,0,0,0,0,0-.1-.1-.2-.1-.3l-.2-.4h0c-.1-.2-.2-.3-.3-.4-.1-.3-.3-.5-.5-.7-.3-.4-.6-.8-.9-1.2-.3-.4-.7-.8-1.1-1.2-.5-.5-1.1-.9-1.6-1.4-.5-.5-1.2-.8-1.8-1.2-.2-.1-.4-.2-.7-.3-.2,0-.4-.2-.6-.3-.3-.1-.6-.2-.9-.3-.3,0-.6-.2-.9-.2-.1,0-.3,0-.4,0-.2,0-.4-.1-.7-.2-.3,0-.7,0-1,0s-.5,0-.8,0c-.6,0-1.2.1-1.9.3-.4,0-.7.2-1.1.3-.3.1-.7.2-1.1.4l-.7.4c-.2,0-.4.2-.6.3-.7.4-1.3.8-1.7,1.2h0s0,0,0,0c-.1,0-.2.2-.4.3-.2.3-.4.6-.7.8-.3.3-.5.6-.6.9-.5,1-.9,2-1.1,2.9-.2.9-.3,1.9-.3,3,0,.7,0,1.5.2,2.3.2.7.3,1.4.5,2.1,0,.2.1.5.2.7,0,0,0,.2.1.4.2,1,.5,2,.8,2.9.3.9.5,1.9.7,2.8,0,.4.2.9.3,1.3.1.3.2.7.2,1.1,0,.7.1,1.3.1,1.9,0,.5-.2.9-.6,1.4,0,0-.2.2-.4.4-.2.1-.4.2-.6.3-.6.2-1,.3-1.5.3s-.3,0-.5,0c-.5-.1-1.1-.4-1.8-.9-.4-.3-.7-.6-1.1-1.1-.3-.5-.7-1-.9-1.5-.3-.5-.5-1.1-.7-1.6-.2-.5-.3-1-.3-1.4,0-.5,0-1,0-1.6,0-.3.1-.6.3-.9.2-.4.4-.7.6-1,.2-.3.5-.6.7-.9.4-.4.5-.9.5-1.5,0-.3-.2-.5-.4-.9l-2.1-3.6c-.2-.3-.4-.6-.6-.9-.3-.3-.6-.5-1-.6,0,0-.1,0-.2,0-.3,0-.6,0-.9.3-.4.2-.7.4-.9.6-.5.5-1,1-1.4,1.4-.4.5-.8,1-1.1,1.6-2.3,4.3-1.8,9.4,1.7,15.3v.2c.1,0,.2,0,.2,0,0,0,0,0,0,0,.1.3.2.5.3.6.2.3.4.5.6.7.2.3.4.6.7.9.6.7,1.2,1.3,1.8,1.9.6.6,1.3,1.1,2.1,1.5,1.1.6,2.3,1,3.5,1.3.8.2,1.6.3,2.4.3s.9,0,1.4,0c.4,0,.8-.1,1.1-.3ZM92.5,388.4l-14.7-19.1c-.3-.3-.6-.6-.9-.6-.2,0-.3,0-.5,0-.3,0-.6,0-.8.3-.3.2-.6.4-1,.7l-1.9,1.4c-.2.2-.4.3-.6.5-.2.2-.4.4-.5.6-.2.4-.3.8-.2,1.1,0,.3.2.6.4.9l9.3,12.1c.1.1.2.3.4.5.1.1.2.2.2.3h0s.3.4.3.4c0,.2.1.3.2.5l.4-.3-.4.4c0,0,0,.3-.2.4-.2.2-.5.4-.8.7l-4.2,3.3c-.1,0-.2.2-.3.2-.1,0-.2,0-.3,0s-.1,0-.2,0c-.2,0-.4-.2-.6-.3-.2-.2-.4-.4-.6-.7-.2-.3-.5-.6-.7-1l-6.1-7.9c-.1-.2-.3-.4-.5-.7-.2-.3-.4-.6-.7-.9-.2-.3-.5-.6-.7-.8-.2-.3-.5-.4-.8-.6-.1,0-.2,0-.4,0-.2,0-.5,0-.7.1-.2,0-.5.2-.7.4l-.6.4c-.2.2-.5.3-.8.6-.3.2-.6.5-.9.7-.3.3-.6.5-.8.8-.3.3-.4.7-.4,1,0,.3.1.5.3.9.2.3.3.5.5.8.2.3.4.6.7.9.2.3.4.5.5.7l7.1,9.2c.2.2.3.5.5.7.1.2.2.3.2.5,0,0,0,.1,0,.2,0,.1-.2.3-.4.5l-3.4,2.6c-.3.2-.6.4-.9.6-.1,0-.2,0-.3,0s-.1,0-.2,0c0,0-.1,0-.4-.3-.2-.2-.4-.4-.6-.7-.2-.3-.4-.5-.6-.8-.2-.3-.4-.6-.6-.8l-8.4-10.9c-.2-.3-.5-.5-.8-.6-.2,0-.3-.1-.5-.1s-.5,0-.8.2h0s0,0,0,0c-.3.2-.5.3-.6.4-.2.1-.5.3-.7.5-.2.2-.4.3-.6.5-.2.1-.4.3-.6.4-.3.2-.5.4-.6.5l-.5.4h0c0,.2,0,.3-.2.3-.2.2-.3.3-.3.5,0,.3-.1.8.2,1.3.2.3.4.7.7,1l14.5,18.8h0c0,.2.2.3.3.3.4.3.7.4,1.1.4s.1,0,.1,0c.3,0,.7-.1,1-.4l26.7-20.6c.3-.3.6-.6.7-.9.2-.4.1-.9-.1-1.3-.2-.3-.4-.7-.7-1.1ZM253,463.2c0,.3,0,.5-.1.8,0,.2-.2.5-.3.7,0,.2-.2.4-.3.6-.4.7-.8,1.5-1.1,2.2-.4.8-.7,1.6-1.1,2.3-.2.3-.3.5-.4.7-.1.3-.2.6-.4.9-.3.6-.6,1.3-1,2.1-.3.7-.7,1.4-1,2.1-.3.7-.6,1.3-.9,1.9-.3.6-.6,1.3-1,2-1,1.8-1.9,3.6-2.7,5.4-.8,1.9-1.8,3.7-2.7,5.5,0,.1-.1.3-.2.4,0,.1-.1.3-.2.5-.3.7-.7,1.4-1,2.1-.3.7-.7,1.4-1.1,2.1-.2.3-.4.7-.5,1.1-.2.5-.5.9-.9,1.1-.3.1-.5.2-.8.3,0,0-.2,0-.2,0h-.3s-4.6-.4-4.6-.4c-.4,0-.7,0-1.1,0-.5,0-.9-.2-1.2-.4-.4-.3-.7-.7-.8-1.2,0-.4-.2-.8-.3-1.2-.2-.6-.4-1.2-.5-1.8-.2-.6-.3-1.2-.5-1.7l-.3-1.3c-.2-.7-.4-1.4-.6-2.1-.2-.7-.4-1.4-.6-2.1-.5-1.7-1-3.5-1.4-5.3-.4-1.8-.9-3.6-1.5-5.3,0-.1-.1-.3-.1-.5,0,0,0-.2,0-.2l-.9-3.4c-.1-.3-.2-.6-.2-.9,0-.2,0-.5-.2-.8-.3-1.1-.6-2.3-.9-3.4-.3-1.1-.6-2.2-.9-3.3,0-.1-.1-.3,0-.5h0c0,0,0-.2,0-.2,0-.1,0-.3-.1-.5,0-.2-.1-.5-.2-.7,0-.3,0-.6,0-.8,0-.4.3-.6.7-.8.2-.1.5-.2.9-.2s.5,0,.7,0c.6,0,1.1.2,1.5.2l2.4.2c.3,0,.5,0,.7,0,.3,0,.6,0,.8.2.5.2.8.5,1,.9.2.3.3.7.3,1,0,.3.1.6.2.9.1.6.3,1.2.4,1.7.1.6.3,1.1.4,1.6l.2.9c0,.2.1.4.2.6,0,.1.1.3.3.4.1.1.3.2.6.3h0c0,0,.3,0,.4,0,.1,0,.3,0,.4,0l8,.7c.6,0,1.2.1,1.9.2.1,0,.3,0,.4,0,.4,0,.6,0,.9-.2.2-.1.3-.3.4-.5.1-.3.3-.7.5-1,.3-.6.6-1.1.8-1.7.2-.6.5-1.2.8-1.8.2-.3.3-.7.5-1,.2-.5.5-.8.9-1,.2-.2.6-.3,1-.3.1,0,.3,0,.4,0,.2,0,.5,0,.7,0,.4,0,.8,0,1.2.1.4,0,.7,0,1,.1.4,0,1,0,1.6.1.7,0,1.3.2,1.6.5.3.2.4.5.4.9ZM237.8,476c0,0-.2-.2-.4-.2-.4,0-.8-.1-1.2-.2l-4.9-.5c-.2,0-.3,0-.4,0s-.3,0-.4,0c-.3,0-.3.2-.3.3,0,.4,0,.7.2,1,0,.2.1.4,0,.6,0,0,0,0,0,.2.4,1.2.7,2.5.9,3.7.3,1.2.6,2.4.9,3.6,0,.2.1.4.2.7,0,.2,0,.4.2.7,0,.2.2.4.2.5,0,0,0,0,0,0,0,0,0,0,0,0,.3-.3.5-.6.6-1,.2-.5.4-1,.6-1.4.5-.9.9-1.8,1.4-2.8.4-1,.9-1.9,1.3-2.9.2-.3.3-.6.4-.9.1-.3.3-.6.4-1,0-.2,0-.3,0-.5ZM107.9,43.8l16.1,28.6c.2.4.5.6.8.8.2.1.5.2.7.2s.4,0,.6-.1c.4-.1.7-.3,1.2-.6l19.3-10.9c.4-.2.6-.5.8-.8.2-.3.2-.6.2-1,0-.3-.1-.5-.3-.8-.1-.2-.3-.4-.4-.6l-1.6-2.9c-.2-.4-.5-.6-.8-.8-.1,0-.3,0-.4,0s-.4,0-.6.1c-.3.1-.7.2-1.1.4-.3.2-.7.4-1.1.6-.3.2-.6.4-.9.5l-10.5,5.9c-.3.2-.5.2-.7.2s-.2,0-.3,0c-.1,0-.2-.2-.3-.3-.1-.2-.2-.4-.3-.6l-.3-.5h0c-.1-.2-.2-.3-.3-.5-.1-.2-.2-.5-.4-.7l-12-21.3c-.2-.4-.5-.7-.9-.9-.2,0-.4-.1-.6-.1s-.5,0-.7.2c-.3.2-.7.3-1,.5l-3.9,2.2h0c-.1,0-.2.2-.3.3-.4.4-.6.8-.6,1.2,0,.3,0,.6.2.9.1.3.3.6.4.8ZM214.8,460c0,.4,0,.8-.1,1.5-.1.5-.2,1-.3,1.4l-6.2,29.4c0,.4-.2.8-.2,1.3,0,.6-.3,1-.6,1.3-.3.3-.6.4-1.1.5h-.2c0,0-.2,0-.3,0h0s0,0,0,0l-13.5-2.8c-.2,0-.4,0-.6-.1-.2,0-.5,0-.7-.2h-.7c0-.1,0-.2,0-.2,0,0-.2,0-.3-.1-.3,0-.5-.1-.8-.3-.1,0-.2-.1-.3-.1-.3,0-.5-.1-.7-.3-.4-.2-.8-.4-1.2-.5-.4-.2-.9-.4-1.3-.7-.3-.2-.7-.5-1-.7-.4-.2-.7-.5-1-.8-.7-.7-1.4-1.4-2-2.1l-.3-.4c-.3-.3-.5-.7-.7-1.1l-.4-.5h0c0-.3-.2-.6-.4-.9-.2-.3-.3-.7-.4-1-.3-.8-.5-1.7-.7-2.5-.2-.9-.3-1.8-.4-2.7,0-.5,0-1,0-1.5,0-.5,0-.9,0-1.4h0c0,0,0-.1,0-.1,0-.1,0-.3,0-.4,0-.1,0-.2,0-.4,0-.3,0-.5,0-.8,0-.2,0-.3,0-.4h0c0,0,.1-.7.1-.7,0,0,0-.2,0-.4,0-.2,0-.4,0-.6,0-.2,0-.4.2-.6,0-.1,0-.2,0-.3,0-.2.1-.5.2-.7,0-.2.1-.4.1-.6h0c0,0,0-.2,0-.2,0,0,0-.2,0-.3,0-.2,0-.4.2-.6.1-.3.3-.7.4-1,.1-.4.3-.8.5-1.1.3-.5.6-1,.8-1.5.3-.5.5-1,.9-1.5.9-1.3,1.9-2.5,3-3.5,1.1-1,2.4-1.8,3.8-2.4.8-.3,1.6-.6,2.4-.8.8-.2,1.7-.3,2.6-.4.2,0,.4,0,.6,0s.3,0,.5,0c.2,0,.4,0,.5,0s.3,0,.5,0h0c.2,0,.4,0,.6,0,.1,0,.3,0,.4,0h0c.2,0,.4,0,.6,0,0,0,.1,0,.2,0h.1c.1,0,.3,0,.4,0h0s0,0,0,0h0c.4,0,.8,0,1.2.2.4.1.7.2,1,.3l11.7,2.5c.6.1,1.1.3,1.5.4.4.1.9.5,1,1.2ZM204.6,465.4c0-.2,0-.3,0-.5,0-.1-.1-.4-.6-.5-.6-.1-1.1-.3-1.7-.4-1.3-.3-2.6-.5-4-.8-.8-.2-1.5-.2-2.2-.2s-.8,0-1.2,0c-1.2.2-2.3.7-3.1,1.3-.8.6-1.6,1.5-2.4,2.6-.2.2-.3.5-.4.8-.1.3-.3.6-.4.9v.4c0,0-.1,0-.1,0,0,.2-.2.4-.2.6,0,.3-.2.6-.3.8v.5c-.1,0-.2,0-.2,0,0,0-.1.2-.2.6,0,.4,0,.6,0,.6h0c0,0-.2,1.1-.2,1.1,0,.3,0,.7,0,1,0,.3,0,.6,0,.8,0,.2,0,.4,0,.7,0,0,0,.1,0,.2l.2,1.7c0,.5.1.9.3,1.4.3.9.7,1.6,1.2,2.3.5.7,1.1,1.3,2,1.9.2.1.5.3.8.4.3.1.6.3.8.4.2,0,.4.1.6.2.2,0,.5.2.8.3,0,0,.1,0,.2,0,.2,0,.3,0,.5.1l1,.2c.2,0,.3.1.5.1.2,0,.4,0,.6.1l2.1.4c0,0,.1,0,.2,0,.1,0,.3,0,.4,0,0,0,.1,0,.1,0,.2,0,.4,0,.5,0,0,0,0,0,.1,0,.1-.1.2-.3.2-.4l.2-1c0-.4.2-.9.3-1.4.1-.5.2-.9.3-1.4l2.9-14c0-.2.1-.4.2-.7,0-.2,0-.3,0-.4h0c0,0,.1-.7.1-.7,0-.2,0-.4.1-.6ZM174.3,453.4c.7,2,1,4.1.9,6.4,0,.6,0,1.1-.2,1.7,0,.5-.2,1.1-.3,1.6,0,.2,0,.4-.1.6,0,0,0,.2,0,.3,0,.3-.1.5-.2.8,0,.2-.1.5-.2.7,0,.3-.1.5-.2.6,0,0,0,0,0,.1h0c0,0,0,.1,0,.1,0,.2-.2.5-.3.7,0,.1-.2.3-.2.4,0,.2-.1.5-.3.9-.2.4-.4.7-.5.8,0,0,0,.1,0,.2,0,.2-.1.4-.3.6v.3c-.1,0-.2,0-.2,0-.1.1-.2.3-.3.4,0,.3-.2.5-.4.7-.1.1-.2.2-.2.3-.1.2-.3.4-.4.6-.4.4-.7.9-1,1.3-.4.5-.8,1-1.2,1.4-.5.4-1,.8-1.4,1.3-.5.4-1,.8-1.6,1.2-1.6,1.1-3.3,1.8-5.1,2.3-1.4.4-3,.5-4.7.5s-.7,0-1.1,0c-.5,0-1-.1-1.5-.2-.5-.1-1-.2-1.4-.3-.2,0-.4,0-.6-.2-.1,0-.2,0-.4-.1l-1.5-.5c-.2,0-.3-.1-.5-.2h-.1c-2.3-1-4.1-2.2-5.5-3.4-1.4-1.3-2.6-2.7-3.4-4.2-.3-.5-.5-1-.8-1.6-.3-.6-.5-1.2-.6-1.7,0-.2-.1-.4-.2-.7,0-.3-.1-.5-.2-.7-.1-.7-.2-1.4-.3-2-.1-.7-.2-1.4-.1-2.1,0-.5,0-1,0-1.5,0-.5.1-1,.2-1.5,0-.4.1-.8.2-1.1,0-.3.2-.7.2-1.1,0-.3.1-.6.2-.8,0-.2.1-.3.1-.5,0-.3.1-.5.3-.8,0-.2.1-.3.2-.4h0c0,0,.2-.4.2-.4,0-.3.2-.6.3-1.1.2-.5.4-.8.5-1l.3-.6h0c.2-.3.3-.6.5-.9.2-.4.4-.7.6-1.1.2-.2.3-.4.4-.6.1-.2.3-.4.5-.6.4-.5.8-1,1.2-1.4.4-.5.8-.9,1.3-1.3,2-1.8,4.1-3,6.4-3.8,1.6-.5,3.4-.8,5.2-.8s1.6,0,2.4.1c.4,0,.8.1,1.2.2,0,0,1.1.3,1.1.3.1,0,.4,0,.6.2.1,0,.3.1.4.1l1.6.6c.1,0,.4.1.7.3.5.2.6.4.7.4,0,0,.2,0,.2.1.2,0,.4.2.5.3l.5.2h0c.2.2.4.3.6.4.2.1.5.3.7.5.2.2.4.3.6.5.2.2.5.3.7.5.3.3.6.6.9.9.3.3.6.6.9.9,1.5,1.7,2.6,3.6,3.3,5.6ZM166.4,456.7c0-1-.4-1.9-.8-2.7,0-.3-.2-.4-.3-.6-.1-.2-.3-.3-.4-.5-.2-.4-.5-.7-.8-1-.3-.3-.7-.6-1-.9-.1-.1-.2-.2-.2-.2-.2,0-.4-.2-.6-.3-.2-.2-.3-.2-.4-.3l-1-.5c-.1,0-.3,0-.5-.2,0,0,0,0-.2,0-.4,0-.8-.2-1.1-.3-.3,0-.6-.1-.9-.1-.3,0-.5,0-.7,0-1.2,0-2.3.2-3.2.6-1.1.5-2.2,1.2-3.3,2.3-.3.3-.6.6-.8.9-.3.4-.6.7-.9,1.1l-.6,1c0,.1-.2.2-.2.3l-.4.9h0c0,.1-.2.2-.3.5-.1.3-.2.5-.2.5h0c0,0-.4.9-.4.9,0,.2-.1.3-.2.5h0c0,0,0,.2,0,.2,0,.3-.1.6-.2.9,0,.2-.1.4-.2.6h0c0,0,0,.1,0,.1,0,.1,0,.2,0,.4l-.2,1.2c0,.4,0,.7,0,1.1,0,1.8.3,3.5,1.1,5,.8,1.4,2.2,2.7,4.4,3.7.1,0,.3,0,.4.2h0,0c.2,0,.4,0,.6.2,0,0,0,0,.2,0,.5.1.8.2,1.2.3.3,0,.6.1,1,.1h.3c1.3,0,2.6-.3,3.6-.8,1.2-.6,2.3-1.5,3.4-2.6.2-.3.4-.5.6-.8.2-.3.4-.6.7-1,0,0,.1-.1.1-.2,0-.1.2-.3.3-.4.1-.1.2-.2.2-.3,0-.3.2-.5.3-.7,0,0,.2-.2.5-.7.3-.5.3-.7.3-.7h0c0,0,.3-.6.3-.6,0-.2,0-.3.2-.5,0-.1,0-.2,0-.3h0c0,0,0-.1,0-.1,0-.1,0-.2.1-.3,0-.1,0-.2.1-.4,0-.4.2-.8.3-1.1,0-.3.2-.6.2-1,.1-1.1.1-2.2,0-3.3ZM30.8,346.5l-1.8-4.4c-.3-.7-.5-1.2-.6-1.7,0-.2,0-.5.3-.8h0c0,0,0,0,0,0,.2,0,.4-.1.7-.3.1,0,.3-.2.4-.2.3,0,.5-.2.7-.3l23.1-9.5c.5-.2.8-.5,1.1-.9.2-.4.2-.8,0-1.2,0-.3-.2-.7-.4-1l-1.7-4c-.1-.3-.3-.6-.5-.9-.3-.3-.7-.4-1.1-.4s-.3,0-.4,0c-.4.1-.9.3-1.4.5l-22.3,9.2c-.2,0-.4.2-.7.3-.2,0-.3.2-.5.2-.3,0-.5,0-.7.2,0,0-.1,0-.2,0,0,0-.1,0-.2,0-.4,0-.5-.2-.6-.3-.2-.4-.5-.9-.7-1.6l-2-4.8c-.3-.7-.5-1.2-.8-1.7-.3-.6-.8-.9-1.5-.9s-.2,0-.2,0c-.3,0-.5,0-.8.2-.2,0-.4.2-.6.3l-2.3,1c-.2,0-.3.1-.5.2h-.2c0,0,0,.1,0,.1-.2.1-.3.2-.4.3-.2.2-.3.4-.4.6,0,.4,0,.8.2,1.3.1.4.3.8.5,1.2l9.9,24h0c.2.3.4.5.5.6.3.2.6.3.9.3s.3,0,.4,0c.4,0,.7-.2,1.2-.4l2.3-1c.3-.1.5-.2.8-.3.3-.2.6-.3.7-.6.2-.3.3-.6.3-1.1,0-.3-.2-.7-.4-1.2-.2-.4-.4-.8-.5-1.1ZM149.3,58.1c0-.2,0-.5,0-.7,0-.2,0-.5,0-.6,0-.8,0-1.7,0-2.5,0-.9,0-1.7,0-2.6,0-.3,0-.6,0-.8,0-.3,0-.7,0-1,0-.7,0-1.5,0-2.3,0-.8,0-1.6,0-2.4,0-.7,0-1.4,0-2.1,0-.7,0-1.4,0-2.2,0-2,.1-4.1,0-6.1,0-2,0-4.1,0-6.1,0-.2,0-.3,0-.4,0-.2,0-.3,0-.6,0-.8,0-1.5,0-2.3,0-.8,0-1.6,0-2.4,0-.4,0-.8,0-1.2,0-.5,0-1,.3-1.4.2-.2.4-.4.7-.6,0,0,.2-.1.3-.2h0s4.3-1.6,4.3-1.6c.3-.1.7-.3,1-.4.3-.1.6-.2.9-.2s.3,0,.4,0c.5,0,.9.3,1.3.8.2.3.5.6.8.9.4.5.8.9,1.2,1.4.4.5.8.9,1.2,1.4l.8,1c.5.5,1,1.1,1.4,1.6.5.5.9,1.1,1.4,1.6,1.2,1.3,2.4,2.7,3.6,4.2,1.1,1.4,2.4,2.8,3.6,4.1.1.1.2.3.3.4,0,0,0,.1.2.2l2.3,2.7c.2.2.4.4.6.7.1.2.3.4.5.6.8.8,1.5,1.7,2.3,2.7.7.9,1.5,1.7,2.2,2.6.1,0,.2.2.3.4h0c0,0,0,.1,0,.1,0,.1.2.2.3.4.2.2.3.4.5.6.2.2.3.5.3.8,0,.4,0,.7-.3,1-.2.3-.7.6-1.4.8-.6.2-1.1.3-1.5.5l-2.3.8c-.2,0-.5.2-.7.3-.3.1-.5.2-.8.2,0,0-.1,0-.2,0-.4,0-.8-.1-1.2-.4-.3-.2-.5-.5-.7-.8-.2-.2-.4-.5-.6-.7-.4-.5-.7-.9-1.1-1.4-.4-.4-.7-.9-1.1-1.3l-.6-.7c-.2-.2-.3-.4-.5-.5-.1-.1-.2-.2-.4-.2,0,0-.2,0-.3,0s-.2,0-.3,0c-.2,0-.3.1-.5.1-.1,0-.3,0-.4.1l-7.6,2.8c-.5.2-1.1.4-1.8.6-.5.2-.9.4-1.1.7-.1.2-.2.4-.2.7,0,.4,0,.7,0,1.1,0,.6,0,1.3,0,1.9,0,.7,0,1.3,0,2,0,.4,0,.7,0,1.1,0,.5,0,.9-.3,1.3-.2.3-.4.5-.8.7-.3.2-.7.3-1.1.5-.4.1-.8.3-1.2.4-.4.1-.7.2-1,.3-.4.2-.9.3-1.5.6-.5.2-1,.3-1.3.3s-.2,0-.3,0c-.3,0-.6-.3-.8-.6-.1-.2-.2-.5-.2-.8ZM157.3,30.4c0,.5,0,1,0,1.5,0,1,0,2.1,0,3.1,0,1,0,2.1,0,3.2,0,.4,0,.7,0,1,0,.3,0,.7,0,1.1,0,.2,0,.3.2.5,0,0,.1,0,.2,0s.2,0,.3,0c.4,0,.7-.2,1.1-.4l4.6-1.7c.3-.1.6-.2.8-.4.2-.2.1-.3.1-.4-.1-.3-.3-.6-.6-.9-.2-.1-.3-.3-.3-.5,0,0,0,0-.1-.1-.9-1-1.7-2-2.4-2.9-.8-1-1.6-1.9-2.4-2.9-.1-.1-.3-.3-.5-.6-.1-.2-.3-.4-.4-.5-.1-.1-.3-.3-.4-.4h0s0,0,0,0c-.1.4-.2.8-.1,1.2Z" fill="#fff"/>
  <path d="M380.9,90.7c-77.2-44.1-174.1-39.1-246.2,12.8-51.2,35.5-65.6,66.6-68.9,127.8v1.1c-.6,40,4.1,81.9,23.2,117.6,56.1,86.2,182.1,111.4,273.2,68.9,75.3-32.2,104.5-95.2,108.8-173.2,5.3-63.7-34.1-125.9-90.2-155ZM443.1,265.1v.9c-2.9,52.6-15.3,79.3-59.3,109.9-62,44.6-145.3,48.9-211.7,11-48.2-25-82.1-78.4-77.5-133.2,3.7-67.1,28.8-121.3,93.6-148.9,78.3-36.6,186.7-14.9,234.9,59.2,16.5,30.7,20.5,66.8,20,101.1ZM348.8,112.5c-1.6-.3-3-.5-4.4-.6-1.1,0-2.1-.1-3-.1-4.9,0-9.9-.2-14.8-.3-5.1,0-10.3-.2-15.5-.3h-.2s0,0,0,0h0c-.1,0-.2,0-.4,0-13.6,0-27.1.1-40.7.2h-.2c-3.5,0-7.2.1-10.8.1-5.1,0-10.4,0-15.9-.3-.4,0-.9,0-1.3,0,0,0,0,0-.1,0-3.5-.1-7.1-.3-10.8-.5-.3,0-.7,0-1,0s0,0,0,0c0,0,0,0,0,0-.5,0-1,0-1.5,0-.1,0-.2,0-.3,0-.4,0-.8.1-1.3.2,0,0-.1,0-.2,0-3.6.7-6.9,2.5-9.4,5.2l-25.3,25.3c-1.8,1.6-3.1,3.5-4.2,5.8-1.8,3.8-3.5,7.7-5.3,11.4-1.4,2.6-2.7,5.2-4.1,7.7-2.7,5.1-2.5,10.8.5,16,3.4,5.8,8.9,9.1,15.3,9.1s2,0,2.9-.2c4.7-.8,9.6-1.2,14.9-1.2s1.3,0,2,0c1,0,2,0,3,0,3.3,0,6.3-.1,9.2-.3.5,6.8.4,13.7.3,20.3l-.5,27.4.5,9.1.5,7.3v65.3c0,0,.2,33,.2,33v20.8s.2,8.6.2,8.6c.2,8.1,6.8,14.3,15.3,14.3h28.7c3.9-.1,7.6-1.6,10.3-4.3.2-.2,24.4-24.4,26.1-26.1,2.9-2.7,4.7-6.6,4.7-11v-67.6c0,0,0-3.9,0-3.9v-11s.1-25.7.1-25.7c0-10.7.3-18.6.9-26.3.7-8.6.6-17.3,0-26.4,0,0,0,0,0,0,0,0,0,0,0,0,2.9-.8,5.5-2.2,7.7-4.3,0,0,.8-.7,1-1,.3-.2.5-.5.8-.8.1-.1.4-.4.5-.5.3-.3.6-.5.8-.8l.7-.7c.3-.2.5-.5.8-.8l.7-.7c.3-.2.5-.5.8-.8l.6-.6c.3-.2.5-.5.8-.8l.7-.7c.3-.2.5-.5.7-.7l.6-.6c.3-.3.5-.5.8-.8l.6-.6c.3-.3.5-.5.8-.8l.7-.7c.3-.2.5-.5.7-.7l.6-.6c.3-.2.5-.5.7-.7l.7-.7c.3-.2.5-.5.8-.8.2-.2.5-.5.7-.7.3-.3.5-.5.8-.8l.6-.6c.3-.2.5-.5.7-.7l.7-.7c.3-.2.5-.5.7-.7l.7-.7c.3-.2.5-.5.8-.8l.6-.6c.3-.2.5-.5.7-.7l.7-.7c.3-.2.5-.5.8-.8l.6-.6c.3-.3.5-.5.8-.8l.5-.5c1.7-1.5,3.2-3.4,4.4-5.7,0,0,.1-.2.2-.3.3-.6.6-1.2.9-1.8,3.5-8.2,6.8-16.4,8-26,1.1-8.3-3.9-15.6-11.7-17.2ZM350.1,128.4c-1.1,8.3-4.1,15.7-7.3,23.1-1.8,4.1-5.1,6.7-9.7,5.7-5.6-1.2-11.1-2.9-16.9-3.8-4.6-.7-12.3-.8-12.4,2.8-.4,7.8-.8,15.5-1.1,23.2-.3,5.2,0,10,.4,15.1.7,8.4.7,16.5,0,24.7-.7,9.2-.9,18-1,27.1,0,6.6,0,13.2,0,19.7,0,7,0,14,0,20.9,0,23.2,0,45.8,0,67.6,0,2.2-1.6,4.4-4.3,4.5-9.6,0-19.1,0-28.7,0-2.7,0-4.8-1.6-4.8-4,0-2.8-.1-5.7-.2-8.6,0-6.8,0-13.7,0-20.7,0-10.9,0-21.9,0-33,0-21.5,0-43.4,0-65.6-.2-2.5-.3-5.1-.5-7.6-.2-2.9-.3-5.8-.5-8.6.2-8.9.3-17.9.5-27,.2-9.3.2-18.5-1-27.8-.3-2.6-2.5-4.2-4.8-3.9-5.8.9-11.3,1.1-17.1,1-6.4-.1-12.6.3-18.7,1.3-3.3.5-5.9-1.1-7.5-3.8-1.2-2-1.4-3.8-.3-5.7,1.4-2.7,2.8-5.3,4.3-8,1.8-3.9,3.6-7.8,5.4-11.8,1.2-2.6,3.7-4.3,6.6-4.1,13.3.8,26.3,1.1,39.8.7,13.7,0,27.4-.1,41.1-.2,10.1.2,20.2.4,30.2.6,1.9,0,3.6.1,5.3.5,2.5.5,3.8,2.7,3.5,5.6Z" fill="#fff"/>
</svg>