<?xml version="1.0" encoding="UTF-8"?>
<svg id="Layer_1" data-name="Layer 1" xmlns="http://www.w3.org/2000/svg" viewBox="0 0 429.4 500">
  <path d="M335.1,63.1h84.1c-3.8,10.8-8.2,21.4-12.8,32-5.6,13-16,20.9-30.3,17.8-17.5-3.8-34.9-9.1-53-11.8-14.3-2.1-38.5-2.5-39,8.7-1.2,24.4-2.4,17.1-3.6,41.1-.8,16.2-1.7,115.7-1.7,136.2,0,22-.2-99.8-.3-78.2,0,72.8-.2,208.2-.2,276.9,0,7-4.9,14-13.6,14-12.3,0-24.5,0-36.8.1V78.8c0-8.7,7.1-15.7,15.7-15.7h91.4ZM187.2,63.1s-65.4-2.4-100.4-2.4-78.4,2.4-78.4,2.4c-2.1,4-4.2,8-6.3,11.9-3.3,6.2-2.6,11.8,1,18,4.9,8.4,13.1,13.4,23.4,11.8,19.4-3.2,38.7-4.4,58.8-4,18.3.3,35.6-.2,53.7-3,7.1-1.1,14,3.9,14.9,12.2,3.5,29.1,3.5,26.3,3,55.7-.5,28.4,1.9,39.1,2,106.4,0,34.8.2,42.4.2,76.6,0,21.7,0,90.7,0,112.2.2,9,.4,17.9.6,26.8.2,7.5,6.8,12.5,15.1,12.5,9.4,0,18.7,0,28.1,0V78.8c0-8.7-7.1-15.7-15.7-15.7ZM418.4,5.1c-5.5-1.2-11-1.5-16.8-1.6-31.6-.6-63.2-1.2-94.9-1.8-42.9.2-85.9.4-128.8.6-42.2,1.1-83,.1-124.8-2.2-9.4-.5-17.1,4.8-20.8,13-4.3,9.5-8.7,19-13,28.4l153.1,2.2c8.7,0,133.2-4.5,141.9-4.5l111.3,2.3c1.5-6.1,2.7-12.4,3.5-18.8,1.2-9-2.9-15.8-10.8-17.5Z" fill="#fff"/>
</svg>