<?xml version="1.0" encoding="UTF-8"?>
<svg id="Layer_1" data-name="Layer 1" xmlns="http://www.w3.org/2000/svg" viewBox="0 0 323 500">
  <path d="M302.2,3.2c-2.7-.6-5.3-.9-7.7-1.1-1.8-.1-3.6-.2-5.2-.2-8.7-.2-17.3-.3-26-.5-9-.2-18-.3-27.1-.5h-.3s0,0,0,0h0c-.2,0-.4,0-.6,0-23.8.1-47.6.2-71.4.3h-.3c-6.2.2-12.6.2-18.9.2-9,0-18.2-.2-27.8-.5-.8,0-1.5,0-2.3,0,0,0-.2,0-.2,0-6.2-.2-12.5-.5-19-.9-.6,0-1.1,0-1.7,0h0c-.9,0-1.8,0-2.6.1-.2,0-.4,0-.6,0-.7,0-1.5.2-2.2.3-.1,0-.2,0-.4,0-6.4,1.2-12.1,4.4-16.5,9.2L27,54c-3.1,2.8-5.5,6.2-7.3,10.1-3.1,6.7-6.1,13.4-9.2,20.1-2.4,4.5-4.8,9.1-7.2,13.5-4.8,8.9-4.4,18.9.9,28.1,5.9,10.1,15.7,15.9,26.8,15.9s3.4-.1,5.1-.4c8.3-1.4,16.9-2,26.1-2s2.3,0,3.4,0c1.8,0,3.6,0,5.3,0,5.7,0,11-.2,16-.6.8,11.9.8,24.1.6,35.6l-.8,48,.9,16,.9,12.7v114.4c.1,0,.3,57.8.3,57.8v36.4s.4,15.2.4,15.2c.3,14.3,11.8,25,26.9,25h0l50.3-.2c6.8,0,13.3-2.6,18-7.3.4-.4,42.7-42.7,45.7-45.7,5.1-4.8,8.3-11.6,8.3-19.3v-118.5c.1,0,.2-6.8.2-6.8v-19.3c0,0,.2-45.1.2-45.1,0-18.8.6-32.6,1.6-46.2,1.2-15.1,1.1-30.3-.1-46.3,0,0,0,0,0,0,0,0,0,0,0,0,5-1.3,9.6-3.9,13.4-7.6.1-.1,1.3-1.3,1.7-1.7.4-.4.9-.9,1.3-1.3.2-.2.7-.7.9-.9.5-.5,1-.9,1.4-1.4l1.2-1.2c.5-.4.9-.9,1.3-1.3l1.2-1.2c.4-.4.9-.9,1.3-1.3l1-1c.5-.4.9-.9,1.3-1.3l1.2-1.2c.4-.4.9-.9,1.3-1.3l1-1c.5-.4.9-.9,1.3-1.3l1.1-1.1c.5-.4.9-.9,1.4-1.4l1.2-1.2c.4-.4.9-.9,1.3-1.3l1-1c.4-.4.9-.9,1.3-1.3l1.2-1.2c.5-.4.9-.9,1.3-1.3.3-.3.9-.9,1.1-1.1.5-.4.9-.9,1.4-1.4l1-1c.4-.4.9-.9,1.3-1.3l1.2-1.2c.4-.4.9-.9,1.3-1.3l1.2-1.2c.4-.4.9-.9,1.3-1.3l1-1c.4-.4.9-.9,1.3-1.3l1.2-1.2c.5-.4.9-.9,1.3-1.3l1-1c.5-.5.9-.9,1.3-1.3l.9-.9c3-2.7,5.7-6,7.8-9.9,0-.2.2-.3.3-.5.5-1,1.1-2.1,1.5-3.2,6.2-14.4,12-28.7,14.1-45.5,1.9-14.6-6.8-27.3-20.5-30.2ZM304.4,31.1c-1.9,14.5-7.1,27.5-12.7,40.5-3.1,7.3-8.9,11.7-16.9,9.9-9.8-2.1-19.5-5.1-29.6-6.6-8-1.2-21.5-1.4-21.8,4.9-.7,13.7-1.3,27.2-2,40.6-.5,9,0,17.5.7,26.4,1.2,14.8,1.3,28.9.1,43.4-1.3,16.2-1.6,31.6-1.7,47.5,0,11.6,0,23.2-.1,34.6,0,12.3,0,24.5-.1,36.6,0,40.7,0,80.2-.1,118.6,0,3.9-2.8,7.8-7.6,7.8-16.7,0-33.5.1-50.2.2-4.7,0-8.4-2.8-8.5-7-.1-5-.2-10-.3-15,0-12,0-24.1,0-36.2,0-19.1,0-38.4-.1-57.8,0-37.7,0-76-.1-115-.3-4.4-.6-8.9-.9-13.3-.3-5-.6-10.1-.9-15.2.3-15.7.5-31.4.8-47.3.3-16.4.3-32.5-1.7-48.8-.5-4.6-4.4-7.4-8.4-6.8-10.1,1.6-19.8,1.9-30,1.7-11.2-.2-22,.5-32.8,2.2-5.7.9-10.3-1.9-13.1-6.6-2-3.5-2.4-6.6-.6-10.1,2.5-4.7,5-9.3,7.5-14.1,3.2-6.8,6.3-13.7,9.5-20.6,2.1-4.6,6.4-7.5,11.6-7.2,23.3,1.3,46.2,1.9,69.7,1.3,24,0,48-.2,72-.3,17.7.3,35.4.7,53,1,3.2,0,6.3.2,9.4.9,4.4.9,6.7,4.7,6.1,9.8Z" fill="#fff"/>
</svg>