<?xml version="1.0" encoding="UTF-8"?>
<svg id="Layer_1" data-name="Layer 1" xmlns="http://www.w3.org/2000/svg" viewBox="0 0 537.4 300">
  <path d="M112.2,57.9c-.9,6.8-3.3,12.9-6,19-1.5,3.4-4.2,5.5-7.9,4.6-4.6-1-9.1-2.4-13.9-3.1-3.7-.5-10.1-.7-10.2,2.3-.3,6.4-.6,12.7-.9,19-.2,4.2,0,8.2.3,12.4.5,6.9.6,13.5,0,20.3-.6,7.6-.8,14.8-.8,22.2,0,5.4,0,10.8,0,16.2,0,5.7,0,11.4,0,17.1,0,19,0,37.5,0,55.4,0,1.8-1.3,3.6-3.5,3.7-7.8,0-15.7,0-23.5,0-2.2,0-3.9-1.3-4-3.3,0-2.3,0-4.7-.2-7,0-5.6,0-11.3,0-16.9,0-8.9,0-17.9,0-27,0-17.6,0-35.5,0-53.8-.1-2.1-.3-4.2-.4-6.2-.1-2.4-.3-4.7-.4-7.1.1-7.3.3-14.7.4-22.1.1-7.7.1-15.2-.8-22.8-.3-2.2-2-3.5-3.9-3.2-4.7.7-9.2.9-14,.8-5.3,0-10.3.2-15.4,1.1-2.7.4-4.8-.9-6.1-3.1-1-1.6-1.1-3.1-.3-4.7,1.2-2.2,2.3-4.4,3.5-6.6,1.5-3.2,2.9-6.4,4.4-9.6,1-2.1,3-3.5,5.4-3.4,10.9.6,21.6.9,32.6.6,11.2,0,22.4,0,33.7-.1,8.3.2,16.5.3,24.8.5,1.5,0,3,.1,4.4.4,2.1.4,3.1,2.2,2.8,4.6ZM296,218c-3.1-.2-6.3-.3-9.5.2-5.8,1-11.5,2-17.3,3-5.4.9-10.6,1.3-16,1.3-1.1,0-2-.7-2.2-1.8-.9-6.8-1.1-13.4-1-20.3.1-6.5.3-12.9.4-19.4-.1-3.4-.2-6.8-.3-10.1-.2-2.4-.3-4.8-.5-7.2,0-18.1,0-36.3,0-54.5,0-17.6,0-35.2,0-52.9,0-2.4-1.8-4.1-4-4.1-3.4,0-6.9,0-10.3,0-4.1,0-8.2.1-12.3.2-2.5,0-4,2.2-4,4.9.4,14.5.3,28.6-.2,42.8.1,6.2.2,12.4.4,18.5.2,8.8.3,17.6.5,26.3-.1,13.5-.2,26.9-.3,40.1-.2,9-.4,17.9-.6,26.8,0,5,0,10,.1,15,0,5.5,0,11.4-.1,16.8,0,2.7,2.6,4,5.6,3.9,17-.2,34-.4,50.9-.6,4.9,0,9.8-.2,14.6-.2,2.8,0,4.6-1.8,5.2-4.6.9-3.9,1.7-8.2,2.6-12,1.1-4.9,3.6-11.8-1.7-12.1ZM210.8,112.1c0-6.6,0-13.1,0-19.8,0-9.5,0-19.1,0-28.8,0-2.4-.1-4.9-.2-7.3,0-2.4-1.7-3.9-4-4-5.3-.1-10.7-.2-16-.3-1.2,0-2.6.6-3.2,1.6-.7,1.2-.9,2.7-.9,4.1,0,6.6,0,13.2,0,19.8,0,26.4,0,52.1,0,77.1,0,9.2,0,18.2.1,27.2,0,10.6-1.1,20.9-4.2,30.8-1.2,3.8-3.4,7.1-6.4,9.6-4,3.4-8.9,4.8-14.1,4-8.1-1.2-14.2-7-15.2-14.8-1.2-9.3-1.2-18.6-1.2-28.3,0-11.7,0-23.7,0-35.9-.2-12.6-.3-25.5-.5-38.6-.2-11.7-.4-23.7-.7-35.8,0-3.6,0-7.1,0-10.7,0-2,.2-3.9-.2-5.8-.3-2.1-1.8-3.9-3.9-3.9-4.9,0-9.7,0-14.6,0-8.9,0-14.5,21.7-14.4,42.5.2,11.2.3,22.1.5,32.9.5,14.9.6,28.9.3,42.9-.2,11-.2,21.5.2,32.1.2,6.4,1.8,12.4,4.6,18,5.6,11.4,16,18.8,28.5,23.2,14.1,5,24.8,3.6,38.8-1.4,1.2-.5,2.4-1.1,3.6-1.6,1.2-.5,2.3-1.4,3.4-2.2,10.8-7.1,15.8-19.1,18.2-31.5,1.3-6.9,2-13.6,2.1-20.6,0-8.2,0-16.5,0-24.8,0-9.3-.2-18.3-.4-27.8-.1-7.3-.2-14.7-.4-22ZM537.1,192.9c0-11.6,0-23.2-.1-34.8-.2-6.1-.3-12.3-.5-18.4-.2-10.3-.4-20.5-.6-30.7,0-17.4,0-34.8,0-52.2,0-2.5-2-4-4.2-4.1-3.4,0-6.8-.2-10.2-.3-4.1,0-8.2,0-12.3.1-2.1,0-3.8,1.6-3.8,3.8,0,8.9.1,17.8.2,26.8.1,11.2.2,22.5.3,33.9,0,13.9-.1,27.9-.2,42.1,0,3.1,0,6.1,0,9.2.2,5.2.3,10.4.5,15.7,0,8.1,0,16.3,0,24.6,0,8.2.1,16.4.2,24.6,0,3.3.2,6.6.2,9.9,0,1.3.6,2.8,1.8,3.3,1.1.5,2.3.6,3.6.6,6.3,0,12.6,0,18.9,0,3.4,0,6.1-1,6.2-4.1,0-2.3.2-4.6.2-6.9-.1-14.4-.2-28.8-.3-43.2ZM401.5,241.5c.4,2.1-.3,3.8-1.7,4.4-2.3.9-4.7,1.1-7.1,1.1-2.7,0-17.2-.2-21.7-.3-2.5,0-4.3-2.1-4.9-5.4-1.8-10.4-3.7-20.6-5.5-30.6-.4-2.3-1.6-3.7-3.6-3.7-7.5,0-15,.1-22.5.2-2.2,0-3.8,1.9-4.3,4.5-.7,3.7-1.5,7.4-2.2,11.2-.8,3.1-1.5,6.3-2.3,9.5-.9,3.5-1.3,7.1-1.4,10.8,0,2.4-1.5,3.8-3.3,3.8-3.2,0-20.3.5-20.3-.5,0-1.9,1-5.2,1.7-8,1.6-6.2,3.2-12.4,4.8-18.5,1.3-5.7,2.6-11.5,3.9-17.2,4.3-18.2,8.6-36.4,12.8-54.3,0-1.1,22-99.8,24-98.8,1.9-.4,2.2-.4,4.3-.4,2.1,0,3.7,0,4.4.6.7.5,5.8,19.5,7.6,28.8,2.6,11.4,5.2,23,7.8,34.8,2.5,10.5,5.1,21.1,7.6,32,2.9,12.2,5.8,24.6,8.7,37.3,1.7,6.6,3.3,13.3,5,20,2.8,12.7,5.6,25.6,8.4,38.7ZM356.6,188.5c-.7-3.3-1.4-6.7-2.1-10-1.1-5.4-2.2-10.9-3.3-16.2-1.1-5.2-1.8-10.2-2.5-15.6-.5-3.4-3-2.6-4,1.8-.4,1.5-1.3,6.2-1.3,6.2-2.6,11-5.1,22.1-7.7,33.3-.2.8,0,1.8.3,2.3.3.4.9.9,1.5.9,3.2,0,6.5,0,9.7.1,2.6,0,5.3,0,7.9,0,.7,0,1.2-.4,1.4-.9.2-.5.3-1.2.2-1.9ZM409.1,220.2c4.6,7.4,10.6,13.3,17.7,17.9,9.3,6,15.6,9,26.4,9,3.1,0,6-.5,8.8-1.5,5-1.4,9.3-3.5,12.8-5.8,0,0,4.7,6.2,7.6,6.2,2.8,0,14.4,1.5,14.4-1.8s0-72.7,0-72.3c0,0,0,0,0,0,0-1.8,0-3.3.1-4.7-.1-8.9-.2-17.8-.3-26.6,0-2.6-2.2-4.3-4.8-4.5-7.7-.4-15.5-.7-23.2-1-1.9,0-8.9-.2-10.6.4-1.4.5-2.1,1.9-2,3.4,0,3.6.2,7.3.2,11,0,1.7,6.4,3.1,7.9,3.6,1.8.6,3.2,2.4,3.2,4.5,0,9.4,0,18.9,0,28.6,0,8.1,0,16.2,0,24.4,0,5.6-4.5,13.6-14.2,13.6-7.1,0-12.6-10.2-15.1-14.4-2.9-5-4.6-10.3-5.7-16-1.4-7.5-2.3-14.8-2.8-22.3-1-16.4-1.4-32.2-.9-47.9.5-14.5,2-28.3,5-41.7.6-2.9,1.4-5.4,2.9-7.9,1.9-3.1,4.7-5.5,8.3-6.8,3.1-1.1,6.3-.2,8.6,1.9,2,1.8,3.4,4,4.4,6.4,1.5,3.7,2.9,7.4,4.4,11.2,1.8,4.6,3.4,9.1,4.7,14,1,3,1.9,5.9,2.9,8.9.2.7.9,1.4,1.4,1.5.8.2,1.5,0,2-.4,1.2-1.2,2.3-2.3,3.5-3.5,1.9-2.2,3.8-4.3,5.8-6.5,1.9-2.8,3.9-5.5,5.8-8.3,3.4-3.3,4.4-7.7,2.8-12.2-2.3-6.4-5.7-12.3-10.1-17.4-5.3-6.2-11-10.3-19.1-12.5-4.8-1.3-8.1-1.8-13.1-2.2-14-1.1-22.6,4.2-32,13.5-8.6,8.6-14.7,18.9-18.5,30.5-3.3,10.1-4.5,20.6-4.9,31.4-.1,3.4-.2,6.9-.4,10.4-1.6,22.1.2,44.8,7.6,67.2,2.2,6.6,5,12.7,8.7,18.6ZM337.2,265.3c-.2-.3-.6-.5-1-.5-.3,0-.7,0-1,0h-20.5c-.1,0-.3,0-.3,0-.5.1-.8.4-1,.7-.2.3-.3.8-.3,1.5,0,.6,0,1.1,0,1.5v28.2c0,.4,0,.7,0,1,0,.6.3.9.5,1.1.3.2.6.3,1,.4.3,0,.6,0,1,0h2.7c.2,0,.5,0,.7,0,0,0,.2,0,.3,0,.2,0,.4,0,.6,0,.1,0,.3-.1.4-.2.3,0,.5-.3.7-.5.2-.4.3-.9.3-1.6,0-.6,0-1.2,0-1.6v-9c0-.1,0-.3,0-.4h0c0-.2.1-.4.7-.5.6,0,1.1,0,1.7,0h7.7c.4,0,.9,0,1.5,0,.7,0,1.2,0,1.5-.2.3-.2.6-.5.7-1,0-.3.1-.6,0-1,0-.3,0-.6,0-.8,0-.5,0-1.1,0-1.7,0-.8-.2-1.3-.6-1.6-.2-.1-.5-.2-.8-.3-.3,0-.6,0-.9,0s-.7,0-1,0c-.3,0-.6,0-.8,0h-8.3c-.2,0-.5,0-.7,0-.2,0-.3,0-.4,0,0,0-.2,0-.2-.2,0-.2-.1-.3-.2-.6v-.5h0c0-.2,0-.4,0-.5,0-.2,0-.4,0-.6v-2.3c0-.3,0-.6,0-.9,0-.3,0-.5,0-.7.1-.3.2-.4.3-.5.2,0,.5-.2,1.3-.2.7,0,1.3,0,1.8,0h9.1c.4,0,1,0,1.6,0,.7,0,1.2,0,1.6-.4.2-.2.3-.3.4-.6,0-.1,0-.3.2-.4h0c0-.3,0-.6,0-.8,0-.2,0-.4,0-.6s0-.6,0-.9c0-.3,0-.7,0-1s0-.7,0-1c0-.3-.2-.6-.4-.9ZM367.7,293.1c-.1-.4-.4-.7-.8-.8-.3-.1-.5-.2-.8-.2h-14.1c-.2,0-.4,0-.6,0-.1,0-.3,0-.5,0h-.4c-.2,0-.3,0-.5-.1h-.1c0-.1-.2-.2-.2-.5,0-.3,0-.6,0-.9v-4.9c0-.1,0-.3,0-.3,0-.2.1-.3.3-.4.1-.1.3-.2.6-.2.3,0,.6,0,.9,0,.4,0,.7,0,1.1,0h9.2c.2,0,.5,0,.8,0,.7,0,1.4,0,2,0,.3,0,.6-.1.9-.3.3-.2.4-.5.5-.8,0-.2.1-.5.1-.7v-.7c0-.2,0-.5,0-.9,0-.4,0-.7,0-1.1,0-.4,0-.7-.1-1,0-.4-.3-.7-.5-.8-.2-.1-.5-.2-.8-.3-.3,0-.6,0-.9,0-.3,0-.7,0-1,0-.3,0-.6,0-.8,0h-10.6c-.3,0-.5,0-.8,0-.2,0-.3,0-.4-.1,0,0-.1,0-.1-.2,0-.1-.1-.3-.2-.5v-4c0-.4,0-.7,0-.9,0-.2.1-.3.2-.4,0,0,.1,0,.4-.1.3,0,.6,0,.9,0,.3,0,.6,0,.9,0,.3,0,.6,0,.9,0h12.7c.4,0,.7,0,.9-.2.3-.2.6-.5.7-1.1h0c0-.5,0-.6,0-.8,0-.3,0-.5,0-.8,0-.2,0-.5,0-.7s0-.4,0-.7c0-.3,0-.5,0-.7v-.6h0c0-.2,0-.2,0-.3,0-.2,0-.4-.2-.5-.2-.2-.5-.5-1.1-.6-.4,0-.7,0-1.1,0h-21.9c-.1,0-.3,0-.3,0-.5.1-.8.4-1,.6-.2.2-.3.6-.3,1v31.1c0,.4,0,.7.3,1,.2.4.6.6,1.1.7.4,0,.8,0,1.2,0h22.2c.4,0,.8-.1,1-.3.4-.2.6-.6.6-1.1,0-.3,0-.7,0-1.1v-2.2c0-.3,0-.5,0-.7,0-.3,0-.5-.1-.7ZM399.4,286.6h0c0-.2,0-.4,0-.5-.1-.3-.2-.6-.3-.9-.1-.3-.3-.7-.4-.9-.6-.9-1.2-1.6-1.8-2.2-.6-.5-1.4-1.1-2.2-1.6-.6-.4-1.2-.7-1.9-.9-.7-.2-1.3-.4-1.9-.6-.2,0-.4-.1-.6-.1s-.2,0-.3,0c-.9-.3-1.8-.5-2.7-.7-.9-.2-1.7-.4-2.6-.7-.4-.1-.8-.2-1.2-.3-.3,0-.7-.2-1-.3-.6-.2-1.1-.5-1.6-.7-.4-.2-.6-.6-.9-1.2,0,0,0-.2-.1-.5,0-.2,0-.4,0-.6.1-.8.4-1.3.7-1.7.3-.4.9-.7,1.5-1,.4-.2.9-.3,1.4-.3.5,0,1.1,0,1.6,0,.6,0,1.1,0,1.6.2.5.1,1,.2,1.3.4.4.2.8.5,1.2.8.2.2.4.4.6.7.2.3.4.6.5.9.1.3.3.6.4,1,.1.5.5.9,1,1.1.2,0,.5.1.9.1h3.8c.4,0,.7,0,1,0,.4,0,.7-.2,1-.5.2-.2.3-.6.3-1,0-.4,0-.7,0-1-.2-.6-.3-1.2-.5-1.8-.2-.6-.4-1.1-.8-1.7-2.3-3.7-6.5-5.6-12.5-5.6s-.3,0-.4,0h-.2s0,0,0,0c0,0,0,0,0,0-.3,0-.5,0-.6,0-.3,0-.6,0-.9.1-.3,0-.6,0-1,.1-.8.2-1.6.4-2.3.6-.8.2-1.5.5-2.1,1-1,.6-1.9,1.4-2.7,2.2-.8.8-1.4,1.8-1.9,3-.1.3-.2.7-.3,1,0,.3-.1.6-.2,1h0c0,.4,0,.5,0,.6,0,.4,0,.9,0,1.4,0,.6,0,1,.2,1.3,0,.3.2.6.2.9,0,.3.2.7.3,1,.4.9.9,1.6,1.5,2.3.6.7,1.3,1.2,2.1,1.7.6.4,1.2.7,1.9,1,.7.3,1.4.5,2.1.8.2,0,.5.1.7.2.2,0,.4.1.7.2.2,0,.3.1.5.1s0,0,.2,0c.5.2,1,.3,1.5.4.5.1,1,.2,1.5.4.3,0,.5.1.7.2.2,0,.4.1.6.2.6.2,1.1.4,1.7.5.5.2,1,.4,1.5.7.2.1.4.2.5.3.7.4,1.1,1,1.4,1.8,0,0,0,.3.1.6,0,.2,0,.4,0,.6-.2,1-.6,1.7-1.1,2.1-.6.4-1.4.8-2.4,1.1-.1,0-.2,0-.4,0-.2,0-.4,0-.4,0-.3,0-.5,0-.6,0-.4.1-1.4.1-1.8,0h-.3c-.5-.1-.8,0-1.2-.2-1-.3-1.8-.6-2.4-1-.2-.1-.3-.2-.5-.4-.2-.1-.3-.3-.4-.4-.2-.3-.4-.6-.6-.8-.2-.3-.3-.6-.4-1-.1-.3-.2-.7-.3-1,0-.5-.4-.9-.9-1.1-.3-.1-.6-.2-.9-.2h-3.8c-.4,0-.8,0-1.1,0-.4,0-.8.3-1,.6-.2.3-.3.7-.3,1.2,0,.4,0,.7.2,1,0,.2,0,.4.1.5,0,.2,0,.5.1.7.3,1.1.7,2,1.2,2.8.8,1.3,1.8,2.4,3.1,3.2,1.2.8,2.6,1.4,4.2,2,.4.1.8.2,1.2.3.4,0,.8.1,1.2.2.2,0,.3,0,.5,0,.1,0,.3,0,.4,0,.2,0,.5,0,.7,0,.2,0,.4,0,.5,0h0s.4,0,.4,0c.2,0,.5,0,.9,0s.7,0,.9,0h0s0,0,0,0c.1,0,.2,0,.3,0h.5c.1,0,.3,0,.4,0,.3,0,.5,0,.8,0,.5,0,.9-.2,1.4-.2.5,0,1-.2,1.5-.3.6-.2,1.2-.4,1.8-.7.6-.2,1.2-.5,1.8-.9.2-.1.4-.3.6-.4.2-.1.3-.3.5-.4.2-.2.5-.3.7-.5.2-.2.4-.4.6-.6,0-.1.1-.2.2-.3.1-.1.3-.3.5-.5.3-.5.6-.9.8-1.4.2-.5.4-1,.6-1.6,0-.3.2-.7.2-1,0-.3.1-.6.2-1.1v-.8c0-.2,0-.4,0-.6,0-.8,0-1.4-.2-1.9ZM429.4,266.8c0-.2,0-.3,0-.5v-.3c0-.2,0-.3-.1-.5,0-.2-.2-.4-.4-.6-.3-.2-.7-.3-1.2-.3-.4,0-.8,0-1.2,0h-24c-.3,0-.5.2-.7.3-.4.2-.6.6-.7,1,0,.3,0,.7,0,1.2v2.3c0,.3,0,.5,0,.8,0,.3,0,.6.2.8.2.3.4.5.8.6.3,0,.7.1,1.1,0,.4,0,.8,0,1.1,0h4.4c.6,0,1.2,0,1.7,0,.2,0,.4,0,.6.5h0c0,.3,0,.5,0,.8,0,.1,0,.3,0,.5,0,.2,0,.5,0,.7v23c0,.5.1.9.3,1.3.2.3.6.5,1,.5.3,0,.7,0,1,0h4c.3,0,.6,0,.9-.1.5-.2.8-.6.9-1.1,0-.4,0-.8,0-1.4v-22.2c0-.2,0-.4,0-.7,0-.2,0-.3,0-.5,0-.2,0-.4,0-.7,0,0,0-.1,0-.2.1-.4.3-.5.5-.5.4,0,1,0,1.6,0h4.8c.7,0,1.2,0,1.7,0,.7,0,1.2-.5,1.4-1.2,0-.2.1-.5,0-.8,0-.2,0-.4,0-.6v-2.3ZM441,267.5c0-.4,0-.8,0-1.2,0-.4-.1-.8-.3-1.1-.2-.2-.5-.5-1.1-.5-.3,0-.7,0-1,0h-4.1c0,0-.2,0-.3,0,0,0,0,0-.2,0h-.2c-.4.2-.6.4-.8.7-.2.3-.3.8-.3,1.5,0,.6,0,1.1,0,1.5v28.2c0,.4,0,.7,0,1,0,.4.2.8.5,1,.3.2.6.3,1,.4.3,0,.7,0,1,0h2.8c.2,0,.5,0,.7,0,.1,0,.2,0,.3,0,.2,0,.4,0,.6,0,.6-.2.9-.4,1.1-.7.2-.3.3-.8.3-1.4,0-.5,0-.9,0-1.4v-28.2ZM472.5,272.5c0-.2,0-.3.2-.5.3-.8.5-1.5.7-2.3.2-.8.5-1.5.8-2.2,0-.3.2-.7.3-1.1.1-.6,0-1.1-.5-1.4-.3-.2-.6-.3-1-.3h-5c-.4,0-.8.1-1,.3-.3.2-.6.5-.7.9,0,.2-.2.5-.3.8-.2.5-.3,1-.5,1.5-.2.5-.3,1-.5,1.5-.7,2.1-1.4,4.1-2,6.2-.6,2.1-1.3,4.1-2,6.2-.3.7-.5,1.5-.7,2.2-.2.7-.4,1.3-.6,2l-.3.8s0,0-.1.1c0,0,0,0,0,0-.1-.2-.2-.4-.3-.6l-.3-.8c-.2-.5-.3-1.1-.5-1.6-.2-.5-.3-1.1-.5-1.6-.6-1.9-1.2-3.9-1.9-5.8-.6-1.9-1.2-3.9-1.9-5.9-.2-.6-.4-1.2-.6-1.8-.2-.6-.4-1.2-.6-1.8-.1-.3-.2-.7-.3-1-.1-.5-.4-.8-.7-1-.3-.2-.7-.3-1.1-.3h-5c-.1,0-.3,0-.4,0-.6.1-.8.4-.9.7-.1.2-.1.4-.1.7,0,.2,0,.3,0,.6,0,.3.2.6.3.8,0,.3.2.5.2.8.3.9.6,1.7.9,2.6.3.9.5,1.7.8,2.7.1.3.2.5.3.8,0,.3.2.6.3.9.3.9.6,1.8.9,2.6.3.9.5,1.8.8,2.7.7,2,1.4,4,2,6,.6,2,1.3,4,2,6,.2.7.4,1.3.6,2,.2.7.4,1.4.6,2,.1.4.2.7.3,1.1.1.5.5.9.9,1.1.3.2.8.3,1.2.3.4,0,.7,0,1.1,0h3.4c.3,0,.6,0,.9,0,0,0,.1,0,.2,0,.3,0,.5,0,.8,0,.6-.2,1-.5,1.3-1,.2-.4.3-.8.5-1.2.3-.7.5-1.5.7-2.2.2-.7.5-1.4.7-2.2.8-2.5,1.7-5.1,2.5-7.7s1.7-5.1,2.5-7.6c.3-.7.5-1.4.7-2.1.2-.7.4-1.4.7-2,0-.2.1-.4.2-.6ZM504.9,297.4c0,.3,0,.5,0,.8,0,.3-.3.6-.6.8-.3.2-.6.2-1.2.2s-.2,0-.3,0c-.6,0-1,0-1.4,0h-2.2c-.2,0-.5,0-.6,0-.3,0-.5,0-.8,0-.4-.1-.8-.4-1-.8-.2-.3-.3-.6-.4-.9,0-.3-.2-.5-.3-.8-.2-.5-.3-1-.5-1.5-.2-.5-.3-1-.5-1.4l-.3-.8c0-.2-.1-.4-.2-.6s-.2-.2-.3-.3c-.1,0-.3-.2-.6-.2,0,0-.2,0-.4,0-.1,0-.3,0-.4,0h-7.4c-.5,0-1.1,0-1.7,0-.5,0-.9,0-1.1.3-.2.1-.3.3-.3.5,0,.3-.2.7-.3,1-.3.5-.5,1.1-.6,1.6-.2.6-.4,1.2-.6,1.8-.1.3-.2.6-.3,1-.1.4-.4.8-.7,1-.2.2-.5.3-.9.3-.6,0-1.4,0-2.2,0-.4,0-.7,0-1,0-.4,0-.9,0-1.5,0-.7,0-1.2,0-1.5-.3-.3-.2-.5-.4-.5-.8,0-.2,0-.5,0-.7,0-.2.1-.4.2-.6,0-.2.1-.4.2-.5.3-.7.6-1.4.8-2.2.3-.8.5-1.5.8-2.2.1-.3.2-.5.3-.7,0-.3.2-.6.3-.8.2-.6.5-1.3.7-2,.3-.7.5-1.4.8-2,.3-.6.5-1.2.7-1.9.2-.6.5-1.2.7-1.9.7-1.7,1.4-3.5,2-5.2.6-1.8,1.3-3.5,2-5.3,0-.1,0-.2.1-.4,0-.1,0-.3.2-.5.2-.6.5-1.3.7-2,.3-.7.5-1.4.8-2.1.2-.3.3-.7.4-1,.1-.5.4-.8.8-1.1.2-.1.5-.2.7-.3.1,0,.3,0,.4,0h0s4.3,0,4.3,0c.3,0,.7,0,1,0,.5,0,.9,0,1.2.3.4.2.7.6.9,1.1.1.3.2.7.4,1.1.2.5.4,1.1.6,1.6.2.5.4,1,.6,1.6l.4,1.2c.2.6.5,1.2.7,1.9.2.6.5,1.2.7,1.8.6,1.6,1.2,3.2,1.8,4.8.5,1.6,1.2,3.2,1.8,4.7,0,.1.1.3.2.5,0,0,0,.1,0,.2l1.2,3.1c.1.2.2.5.3.8,0,.2.1.5.2.7.4,1,.8,2,1.1,3,.3,1,.7,2,1.1,2.9,0,0,.1.3.1.4h0c0,.3,0,.4.1.5,0,.2.2.4.2.7ZM486.6,280c-.3.9-.6,1.8-1,2.8-.1.3-.2.6-.3.9,0,.3-.2.6-.3.9,0,.2,0,.3,0,.5,0,0,.2.1.4.1.3,0,.7,0,1.1,0h4.5c.3,0,.5,0,.8,0,.3-.1.2-.2.2-.3,0-.3-.1-.6-.2-.9,0-.2-.1-.4-.1-.5s0,0,0-.1c-.4-1.1-.8-2.2-1.2-3.3-.3-1.1-.7-2.2-1.2-3.3,0-.2-.1-.4-.2-.6,0-.2-.1-.4-.2-.6,0-.2-.2-.3-.3-.4,0,0,0,0,0,0,0,0,0,0,0,0-.2.3-.4.6-.5,1-.1.5-.3.9-.4,1.3-.4.9-.7,1.8-1,2.7ZM532.6,293.6c0-.4-.1-.7-.3-1-.2-.2-.5-.4-.9-.5-.3,0-.7-.1-1-.1-.4,0-.7,0-1.1,0-.4,0-.7,0-.9,0h-11.1c-.7,0-.9-.3-.9-.3,0-.1,0-.2,0-.4,0-.2,0-.4,0-.6v-.5h0c0-.3,0-.5,0-.7,0-.2,0-.5,0-.8v-22.5c0-.5-.1-.8-.3-1.1-.2-.2-.5-.5-1.1-.5-.3,0-.7,0-1,0h-4.2c-.1,0-.3,0-.4,0-.5.1-.8.4-1,.7-.1.2-.2.5-.2.9,0,.3,0,.6,0,.9v30.3c0,.4,0,.7.3,1,.2.4.6.6,1.1.7.4,0,.8,0,1.2,0h20.4c.4,0,.7,0,1-.3.3-.1.5-.4.7-.7,0-.2.1-.5.1-.8,0-.2,0-.4,0-.7v-3.1ZM12,34.3c-.1-.3-.2-.8-.2-1.4,0-.5,0-.9,0-1.3V4c0-.4,0-.8,0-1.2,0-.5,0-.9.3-1.3.2-.3.5-.5,1-.7,0,0,.2,0,.3,0h0s14.2,0,14.2,0c.2,0,.4,0,.6,0,.3,0,.5,0,.7,0h.1c0,0,.1,0,.2,0,.2,0,.4,0,.7,0h.3s0,0,0,0c.1,0,.3,0,.4,0,.3,0,.5,0,.8,0,.2,0,.4,0,.7.1.3,0,.5,0,.8.2.6.2,1.2.4,1.8.7.6.2,1.1.5,1.6.8.7.5,1.2,1.1,1.7,1.8.4.7.8,1.5,1,2.4,0,.3.1.5.1.8,0,.2,0,.4.1.6,0,.2,0,.4,0,.6,0,0,0,.1,0,.2,0,.1,0,.3,0,.5,0,.1,0,.3,0,.3v.3c0,.1,0,.2,0,.4,0,.1,0,.2,0,.2h0c0,.3,0,.5-.1.6,0,.2,0,.4-.1.6-.4,1.2-1,2.2-1.7,2.9-.3.3-.5.5-.8.6-.2.1-.4.3-.5.5,0,0-.1.2-.2.3,0,.2.3.3.4.3.4.2.7.4.9.5.9.6,1.6,1.3,2.2,2.1.5.8.9,1.7,1.2,2.7,0,.3.2.6.2.9,0,.2,0,.5.1.7h0v.6c0,.4,0,.9,0,1.4,0,.6-.1,1-.2,1.4,0,.3-.1.6-.2.9,0,.3-.2.6-.3.9-.7,1.7-1.8,3-3.2,4.1-.6.4-1.2.7-1.8,1-.6.3-1.3.5-2,.7-.4.1-.8.2-1.2.3-.4,0-.7,0-1.1.2-.3,0-.6,0-.9,0-.2,0-.4,0-.6,0,0,0,0,0-.2,0-.2,0-.3,0-.4,0s-.1,0-.2,0c-.1,0-.3,0-.4,0h-13.8c-.5,0-1,0-1.4,0-.4,0-.9-.2-1.2-.9ZM20.2,26.6c0,.4,0,.7,0,1.1,0,.3,0,.5.2.7,0,0,.1.1.4.2.3,0,.5.1.9.1.3,0,.7,0,1.1,0,.4,0,.7,0,1,0,.9,0,1.9,0,2.7,0,.8,0,1.7,0,2.4-.1.7-.1,1.4-.3,2-.5.5-.2,1-.6,1.3-1.1.1-.2.2-.5.3-.7,0-.3.2-.6.3-.9v-.3c0-.4,0-.8,0-1.2-.1-.5-.2-.8-.3-1-.4-1-1.2-1.7-2.3-2.1-.5-.1-1-.2-1.6-.3-.6,0-1.3,0-2,0h-5.2c-.2.1-.4,0-.4,0-.2,0-.3.1-.4.2-.1.2-.2.4-.2.7v5.3ZM30.8,9.1c-.3-.5-.8-.9-1.5-1.3-.1,0-.3,0-.5-.1-.2,0-.5-.1-.7-.2,0,0-.2,0-.5,0h-.1c-.3,0-.7-.1-1.2-.1-.5,0-1,0-1.4,0h-3.9c0,0-.2,0-.3,0-.3,0-.4.2-.5.3h0c0,.2-.1.3-.1.6v3.6c0,.2,0,.5,0,.7,0,.2,0,.3,0,.5v.5c0,.2.1.3.1.5,0,.1,0,.2.1.3,0,0,.2,0,.3,0,.2,0,.5,0,.8.1.3,0,.6,0,1,0,.4,0,.7,0,1,0,.5,0,1,0,1.5,0,1,0,2.1,0,3,0,.4,0,.8-.1,1.1-.2.9-.3,1.5-.8,1.9-1.4.2-.3.3-.8.4-1.4,0-.9,0-1.7-.4-2.2ZM44,18.2c0-.4,0-.7.1-.9,0,0,0,0,0-.2,0-.2,0-.4,0-.6v-.3s0,0,0,0c0-.2,0-.3,0-.5,0-.3,0-.5,0-.8,0-.1,0-.2,0-.3,0-.2,0-.5.1-.7.1-.5.3-1,.4-1.5,0-.5.2-1.1.4-1.6.3-.6.5-1.1.7-1.6.2-.6.5-1.1.8-1.6,1-1.5,2.1-2.8,3.3-3.9,1.3-1,2.8-1.9,4.6-2.7.4-.2.9-.3,1.4-.4.4,0,.9-.2,1.3-.3.3-.1.6,0,.9-.2h1.4c.1-.2.3-.2.5-.1h.1c2.3,0,4.3.2,6,.7,1.7.5,3.2,1.3,4.5,2.2.4.3.8.6,1.3,1,.5.4.9.8,1.2,1.2.1.1.3.3.4.5.2.2.3.4.4.5.4.5.7,1,1.1,1.6.4.5.7,1.1.9,1.8.2.4.4.9.5,1.3.1.4.3.9.4,1.3.1.3.2.7.3,1,0,.3.1.6.2,1,0,.3.1.5.1.8s0,.3,0,.4c0,.3.1.5,0,.8,0,.2,0,.3,0,.4h0v.4c0,.2.1.6.1,1,0,.5,0,.8,0,1.1v.5c0,.4,0,.7,0,1s0,.7-.1,1.1c0,.2-.1.4-.1.6,0,.2,0,.5-.2.7-.2.6-.3,1.1-.4,1.6-.1.5-.3,1.1-.6,1.6-1,2.2-2.3,4.1-3.9,5.6-1.6,1.5-3.7,2.7-6.1,3.5-.4.1-.7.2-1.1.3l-1,.2c-.2,0-.7,0-1,.1h-1.6c0,.2-.2.2-.4.2s-.2,0-.3,0c-.5,0-.6,0-.7,0,0,0-.2,0-.2,0-.2,0-.4,0-.6,0h-.5s0,0,0,0c-.2,0-.4,0-.6-.1-.3,0-.5,0-.8-.1-.2,0-.5-.1-.7-.2-.3,0-.5-.1-.8-.2-.4-.1-.7-.3-1.1-.4-.4-.1-.7-.3-1.1-.4-1.9-.8-3.6-2-4.9-3.4-1.3-1.4-2.4-3.1-3.3-5-.2-.5-.4-1-.5-1.5-.1-.5-.3-1-.4-1.5,0-.2-.1-.4-.1-.5s0-.2,0-.2c0-.2-.1-.5-.2-.7,0-.2,0-.4-.1-.7,0-.2,0-.4,0-.6,0,0,0,0,0-.1h0c0-.4,0-.6,0-.9,0-.1,0-.3,0-.4,0-.2-.1-.5-.1-.8ZM52.4,17.1c0,.1,0,.3-.1.8,0,.5,0,.7,0,.7v.2s0,.5,0,.5c0,.1,0,.3,0,.5s0,.2,0,.3h0c0,.2,0,.3,0,.4,0,.1,0,.2,0,.4,0,.3.2.7.2,1,0,.3.1.6.2.9.3,1,.8,1.9,1.2,2.7.5.8,1.1,1.5,1.8,2,.2.2.3.3.4.3.2,0,.3.2.5.3.4.2.7.4,1,.5.4.1.8.2,1.2.4.1,0,.2,0,.3,0,0,0,.1,0,.2,0,.1,0,.3,0,.4,0,.2,0,.3,0,.5,0h1c.1,0,.3,0,.5,0,0,0,0,0,.2,0,.4,0,.7-.1,1-.2.3,0,.5-.1.8-.2,1.3-.5,2.3-1.2,3-2,.7-.8,1.4-1.9,1.9-3.2.1-.3.3-.7.3-1,0-.4.2-.9.3-1.3v-1.1c.2-.1.2-.2.2-.3v-1c0,0,0-.2,0-.5s0-.5,0-.5v-.2s0-.7,0-.7c0-.2,0-.3,0-.5v-.2c-.1-.3-.2-.5-.2-.8,0-.2,0-.4-.1-.6h0c0-.2,0-.4,0-.5l-.3-1.1c0-.3-.2-.6-.4-1-.7-1.5-1.6-2.8-2.8-3.7-1.2-.9-2.9-1.4-5.1-1.4-.1,0-.3,0-.4,0-.2,0-.4,0-.6,0,0,0,0,0-.2,0-.4,0-.8.2-1.1.2-.3,0-.6.2-.8.3-1.2.5-2.2,1.3-2.9,2.2-.7,1-1.3,2.1-1.8,3.5,0,.3-.1.6-.2.9,0,.3-.1.7-.2,1.1,0,0,0,.2,0,.2,0,.1,0,.3,0,.5,0,.1,0,.2,0,.3,0,.2,0,.5,0,.7ZM83,26.5c0,.2,0,.4.1.5.2.7.5,1.4.7,2.1.3.6.6,1.3,1.1,1.8,1.2,1.8,3,3.1,5.2,3.9,2.1.8,4.6,1.1,7.5,1.1.6,0,1.1,0,1.7,0,.5,0,.9,0,1.4-.2.4-.1.7,0,1-.2.3,0,.6-.1.9-.2.3,0,.6-.1.9-.2,1.4-.5,2.6-1,3.6-1.8,1.1-.8,2.1-1.8,2.8-2.9.7-1.1,1.3-2.4,1.7-4,.3-.9.4-2,.4-3.2,0-1.1,0-2.3,0-3.5V4c0-.4,0-.8,0-1.2,0-.6,0-1-.3-1.3-.2-.3-.6-.6-1.1-.7-.3,0-.6-.1-.8,0-.2,0-.5,0-.7,0h-3c-.4,0-.7,0-1,0-.4,0-.7.2-1,.5-.3.3-.4.8-.4,1.5,0,.5,0,1,0,1.4v15.7c0,1.2,0,2.3,0,3.4,0,1.1-.3,2-.6,2.7-.2.5-.5.9-.9,1.3-.4.4-.8.7-1.4.9-.2.1-.5.2-1,.3-.2,0-.4,0-.6.1-.3,0-.5,0-.8.1h-.8s-.1,0-.4,0c-.3,0-.5,0-.5,0-.2,0-.4,0-.6,0,0,0,0,0-.2,0-.3,0-.5-.1-.8-.2-.2,0-.5,0-.7-.1-.8-.3-1.5-.7-2-1.2-.5-.5-.9-1.1-1.2-1.8-.1-.3-.2-.6-.2-.9,0-.4-.1-.7-.2-1.1,0,0,0-.2,0-.4h0c0-.3,0-.6,0-.8,0-.3,0-.6,0-.9v-.8h0c0-.2,0-.3,0-.4,0-.2,0-.3,0-.5V3.7c0-.4,0-.8,0-1.2,0-.5-.1-.9-.4-1.2-.2-.3-.6-.5-1-.5-.3,0-.7,0-1.1,0h-4.1s-.1,0-.1,0h-.3c-.4.1-.7.3-1,.6h0c-.1.4-.2.7-.2,1v20.7c0,1.1.1,2.2.4,3.1,0,.1,0,.2,0,.2ZM119.3,35.2c.4,0,.8,0,1.2,0h20.4c.4,0,.7,0,1-.3.3-.1.5-.4.7-.7,0-.2.1-.5.1-.8,0-.2,0-.4,0-.7v-3.1c0-.4-.1-.7-.3-1-.2-.2-.5-.4-.9-.5-.3,0-.7-.1-1-.1-.4,0-.7,0-1.1,0-.4,0-.7,0-.9,0h-11.1c-.7,0-.9-.3-.9-.3,0-.1,0-.2,0-.4,0-.2,0-.4,0-.6v-.5h0c0-.3,0-.5,0-.7,0-.2,0-.5,0-.8V2.5c0-.5-.1-.8-.3-1.1-.2-.2-.5-.5-1.1-.5-.3,0-.7,0-1,0h-4.2c-.1,0-.3,0-.4,0-.5.1-.8.4-1,.7-.1.2-.2.5-.2.9,0,.3,0,.6,0,.9v30.3c0,.4,0,.7.3,1,.2.4.6.6,1.1.7ZM146.6,34.3c-.1-.3-.2-.8-.2-1.4,0-.5,0-.9,0-1.3V4c0-.4,0-.8,0-1.2,0-.5,0-1,.3-1.3.2-.3.5-.5.9-.7,0,0,.2,0,.4,0h0s12.8,0,12.8,0c.2,0,.4,0,.6,0,.2,0,.5,0,.7,0h.6s0,0,0,0c0,0,.2,0,.3,0,.3,0,.5,0,.7.1.1,0,.2,0,.3,0,.2,0,.5,0,.7,0,.4,0,.8.2,1.2.2.4,0,.9.2,1.3.4.3.2.7.3,1,.4.4.1.7.3,1.1.5.8.5,1.5,1,2.2,1.5l.3.3c.3.2.6.6.9.9l.5.4c.1.2.3.5.5.7.2.3.4.5.6.8.4.7.8,1.4,1.1,2.2.3.8.6,1.6.9,2.4.2.4.3.9.3,1.4,0,.4.1.8.2,1.3h0c0,.2,0,.3,0,.4,0,.1,0,.2,0,.4,0,.2,0,.5,0,.7,0,.1,0,.3,0,.4v.2s0,.5,0,.5c0,0,0,.2,0,.3,0,.2,0,.4,0,.6s0,.4,0,.6c0,.1,0,.2,0,.3,0,.2,0,.5,0,.7,0,.2,0,.4,0,.6v.2c0,0,0,.2,0,.2,0,.2,0,.4,0,.6,0,.3-.1.7-.1,1,0,.4-.1.8-.2,1.1-.2.5-.3,1-.4,1.5-.1.5-.3,1-.5,1.5-.5,1.4-1.2,2.6-2,3.7-.8,1.1-1.8,2.1-2.9,2.8-.6.5-1.3.8-2,1.2-.7.3-1.4.6-2.2.9-.3.1-.7.2-1,.2-.3,0-.6.1-1,.2-.4,0-.6,0-.9.1-.2,0-.3,0-.5,0,0,0-.1,0-.2,0-.1,0-.3,0-.5,0h0s0,0,0,0c-.2,0-.4,0-.7,0s-.3,0-.4,0c-.4,0-.7,0-1,0h-11c-.5,0-1,0-1.4,0-.4,0-.9-.2-1.2-.9ZM168.8,17.7v-.8c0-.3-.1-.6-.1-.9,0-.3,0-.5-.1-.8,0-.2-.1-.4,0-.6,0,0,0-.1,0-.2l-.5-1.5c-.1-.4-.3-.8-.5-1.2-.4-.7-1-1.3-1.5-1.9-.6-.5-1.3-1-2.1-1.3-.2,0-.5-.2-.8-.2-.3,0-.6-.1-.8-.2-.2,0-.4,0-.6,0-.2,0-.5,0-.8-.1,0,0-.1,0-.2,0-.2,0-.3,0-.5,0h-1c-.2,0-.3,0-.5,0-.2,0-.4,0-.6,0h-2c-.1,0-.3,0-.5,0,0,0,0,0,0,0s0,0,0,0c-.1,0-.3.1-.5.2,0,0,0,0-.1,0,0,.1-.1.2-.1.4v.9c0,.4,0,.8,0,1.3,0,.4,0,.9,0,1.3v13.1c0,.2,0,.4,0,.6,0,.1,0,.3,0,.4v.2s0,.5,0,.5c0,.2,0,.4,0,.6,0,.2,0,.3,0,.4,0,.1.2.3.7.3,1.7,0,3.5,0,5.4,0,1.2,0,2.2-.2,3-.5,1.1-.4,1.9-1,2.6-1.8.6-.7,1.2-1.7,1.6-2.8.1-.2.2-.5.3-.8,0-.3.1-.6.2-.9v-.4c0-.2,0-.4,0-.6s0-.5,0-.8v-.6c0,0,0-.2,0-.6s0-.5,0-.6v-.2ZM183.1,35.2c.4,0,.8,0,1.2,0h22.2c.4,0,.8-.1,1-.3.4-.2.6-.6.6-1.1,0-.3,0-.7,0-1.1v-2.2c0-.3,0-.5,0-.7,0-.3,0-.5-.1-.7-.1-.4-.4-.7-.8-.8-.3-.1-.5-.2-.8-.2h-14.1c-.2,0-.4,0-.6,0-.1,0-.3,0-.5,0h-.4c-.2,0-.3,0-.5-.1h-.1c0-.1-.2-.2-.2-.5,0-.3,0-.6,0-.9v-4.9c0-.1,0-.3,0-.3,0-.2.1-.3.3-.4.1-.1.3-.2.6-.2.3,0,.6,0,.9,0,.4,0,.7,0,1.1,0h9.2c.2,0,.5,0,.8,0,.7,0,1.4,0,2,0,.3,0,.6-.1.9-.3.3-.2.4-.5.5-.8,0-.2.1-.5.1-.7v-.7c0-.2,0-.5,0-.9,0-.4,0-.7,0-1.1,0-.4,0-.7-.1-1,0-.4-.3-.7-.5-.8-.2-.1-.5-.2-.8-.3-.3,0-.6,0-.9,0-.3,0-.7,0-1,0-.3,0-.6,0-.8,0h-10.6c-.3,0-.5,0-.8,0-.2,0-.3,0-.4-.1,0,0-.1,0-.1-.2,0-.1-.1-.3-.2-.5v-4c0-.4,0-.7,0-.9,0-.2.1-.3.2-.4,0,0,.1,0,.4-.1.3,0,.6,0,.9,0,.3,0,.6,0,.9,0,.3,0,.6,0,.9,0h12.7c.4,0,.7,0,.9-.2.3-.2.6-.5.7-1.1h0c0-.5,0-.6,0-.8,0-.3,0-.5,0-.8,0-.2,0-.5,0-.7s0-.4,0-.7c0-.3,0-.5,0-.7v-.6h0c0-.2,0-.2,0-.3,0-.2,0-.4-.2-.5-.2-.2-.5-.5-1.1-.6-.4,0-.7,0-1.1,0h-21.9c-.1,0-.3,0-.3,0-.5.1-.8.4-1,.6-.2.2-.3.6-.3,1v31.1c0,.4,0,.7.3,1,.2.4.6.6,1.1.7ZM219.4,35.3h-2.8c-.5,0-1,0-1.6,0-.7,0-1.2-.1-1.6-.4-.2-.1-.6-.5-.6-1.2V3.7c0-.3,0-.7,0-1.1,0-.5,0-.9.3-1.2.2-.3.5-.5.9-.6,0,0,.3,0,.4,0h0s16.1,0,16.1,0c.5,0,1,0,1.5,0,.5,0,1,0,1.4.2.2,0,.3,0,.4,0,.2,0,.5,0,.7.1l.6.2c.2,0,.5.2.7.3.8.4,1.6.8,2.3,1.3.7.5,1.3,1.2,1.8,1.9.1.2.2.4.3.6,0,.1.1.3.2.4.3.5.5,1,.7,1.5.1.5.3,1,.4,1.5,0,.2,0,.4,0,.6,0,0,0,0,0,.1h0v.6c0,.3,0,.6,0,1,0,.4,0,.7-.2,1,0,.2,0,.4,0,.6,0,.2,0,.5-.1.8-.2.5-.3.9-.5,1.4-.2.5-.4.9-.7,1.3,0,.1-.2.2-.3.4,0,0-.1.2-.2.3-.1.2-.2.3-.3.4-.1.1-.3.3-.4.4l-.5.5c-.2.2-.4.3-.6.5-.1,0-.2.2-.3.3,0,0-.1.1-.2.2.1,0,.2.2.2.2l1,.8c.4.3.7.6.9,1,.4.5.7,1.1.9,1.7.2.6.4,1.3.6,2,0,.3.1.7.1,1,0,.3,0,.6.1.8h0c0,.3,0,.4,0,.6,0,.2,0,.4,0,.5,0,.2,0,.3,0,.5,0,0,0,.2,0,.3,0,.2,0,.4,0,.5,0,0,0,.2,0,.3,0,.3.1.7.1,1.1s0,.6,0,.9l.3,1.7c0,.3.1.5.2.8,0,.3,0,.6,0,.9-.1.2-.3.4-.4.5-.2.2-.5.3-.9.3s0,0-.1,0c-.3,0-.7,0-1,0h-2.6c-.5,0-1,0-1.4,0-.5,0-.9-.3-1.2-.8-.3-.5-.5-1-.5-1.7,0-.6-.1-1.1-.2-1.6h0c0-.2,0-.3,0-.4,0-.1,0-.2,0-.3,0-.4-.1-.8-.1-1.3s0-.8,0-1.1c0,0,0-.3,0-.5,0-.3-.1-.6-.2-1,0-.3-.1-.7-.2-1-.2-.7-.5-1.3-.8-1.8-.3-.5-.7-.8-1.3-1.1-.1,0-.2,0-.4-.1-.2,0-.4,0-.6-.2-.5-.2-1.1-.3-1.8-.3h-6c-.2,0-.5.1-.6.1,0,0-.1,0-.2.1-.2.2-.3.6-.2,1.1,0,.7,0,1.3,0,1.8v6c0,.3,0,.5,0,.8,0,.3,0,.5,0,.8v.7c0,.3,0,.5-.1.7-.1.4-.4.7-.9.8-.2,0-.4.1-.7.1ZM221.1,9.5v5.5c0,.3,0,.5.1.6,0,0,0,.1.3.2.3,0,.6.1.9.1.3,0,.7,0,1,0,.4,0,.7,0,1,0h2.8c.2,0,.5,0,.7,0,.2,0,.4,0,.5,0h.2s.6,0,.6,0c.5-.1.9,0,1.3-.2.5-.1.9-.3,1.3-.6.4-.2.7-.5.9-.9.2-.2.3-.5.4-.8,0-.3.2-.7.3-1.1,0-.3,0-.7,0-1.1,0-.4,0-.8-.1-1,0-.2-.1-.3-.1-.5h0c-.3-1-.9-1.6-1.8-2-.5-.2-1-.4-1.7-.4-.7,0-1.4,0-2.1,0h-5.3c-.1,0-.3,0-.5,0-.2,0-.4.1-.4.2-.1.2-.2.4-.2.7,0,.4,0,.8,0,1.2Z" fill="#fff"/>
</svg>