<?xml version="1.0" encoding="UTF-8"?>
<svg id="Layer_1" data-name="Layer 1" xmlns="http://www.w3.org/2000/svg" viewBox="0 0 807.9 300">
  <path d="M746.8,179c0,2-.1,4.4-.2,7.1,0,0,0,0,0,0,0-.6,0,103.3,0,108.9,0,4.9-17.4,2.7-21.7,2.7-4.3,0-11.4-9.3-11.4-9.3-5.2,3.5-11.7,6.7-19.3,8.8-4.3,1.5-8.7,2.2-13.3,2.3-16.3,0-25.8-4.5-39.8-13.5-10.7-6.9-19.7-15.8-26.7-26.9-5.6-8.8-9.8-18.1-13-28.1-11.1-33.7-13.9-67.9-11.4-101.2.2-5.3.4-10.5.6-15.7.6-16.4,2.5-32.2,7.4-47.4,5.7-17.5,14.9-33,27.8-45.9,14.1-14,27.2-22.1,48.2-20.4,7.5.6,12.5,1.5,19.7,3.4,12.2,3.3,20.7,9.5,28.8,18.9,6.6,7.8,11.7,16.6,15.2,26.3,2.4,6.8,1,13.5-4.2,18.4-2.9,4.2-5.9,8.3-8.8,12.5-2.9,3.2-5.8,6.5-8.7,9.7-1.7,1.7-3.5,3.5-5.2,5.2-.8.8-1.9.9-3,.6-.8-.2-1.8-1.1-2.1-2.2-1.5-4.5-2.9-9-4.4-13.5-1.9-7.3-4.3-14.1-7-21.1-2.2-5.7-4.4-11.3-6.6-16.9-1.5-3.7-3.7-6.9-6.6-9.7-3.4-3.2-8.3-4.5-12.9-2.9-5.3,1.9-9.7,5.5-12.5,10.2-2.2,3.7-3.4,7.6-4.4,11.9-4.5,20.3-6.8,41.1-7.5,62.9-.7,23.6-.2,47.5,1.4,72.2.7,11.4,2.1,22.3,4.2,33.7,1.6,8.6,4.1,16.5,8.5,24.1,3.7,6.3,12.1,21.6,22.7,21.7,14.6.1,21.3-12,21.3-20.5,0-12.4,0-24.7,0-36.8,0-14.5,0-28.9.1-43.1,0-3.2-2-5.8-4.8-6.8-2.3-.8-11.9-2.9-11.9-5.5-.1-5.6-.2-11.1-.3-16.6,0-2.2,1-4.4,3.1-5.1,2.6-.9,13.1-.7,16-.5,11.7.4,23.3.9,35,1.5,3.9.2,7.2,2.7,7.2,6.7.2,13.3.3,26.6.5,40.1ZM316.7,95.9c0-9.9,0-19.8,0-29.8,0-14.4,0-28.8,0-43.4,0-3.7-.2-7.3-.3-11,0-3.6-2.5-5.9-6-6-8.1-.2-16.1-.3-24.2-.5-1.8,0-3.9.9-4.8,2.4-1.1,1.8-1.4,4-1.4,6.2,0,10,0,19.9-.1,29.8,0,39.8,0,78.5,0,116.1,0,13.8.1,27.5.2,41,0,16-1.7,31.4-6.3,46.4-1.8,5.7-5.2,10.7-9.7,14.5-6,5.1-13.4,7.3-21.3,6-12.2-1.9-21.3-10.5-22.9-22.3-1.8-14-1.8-28-1.8-42.7,0-17.7,0-35.7,0-54.1-.2-19-.5-38.4-.7-58.1-.3-17.7-.7-35.7-1-54,0-5.4,0-10.8.1-16.2,0-3,.2-5.8-.2-8.8-.5-3.2-2.7-5.8-5.9-5.8-7.3,0-14.7,0-22,0-13.5,0-21.8,32.7-21.8,64,.3,16.8.5,33.4.8,49.7.7,22.5.9,43.5.5,64.7-.3,16.6-.3,32.4.3,48.4.3,9.7,2.7,18.6,6.9,27.2,8.5,17.2,24.2,28.3,43,35,21.2,7.5,37.4,5.4,58.4-2.1,1.8-.8,3.6-1.6,5.4-2.4,1.9-.8,3.5-2.2,5.2-3.3,16.3-10.6,23.8-28.8,27.4-47.4,2-10.3,3.1-20.5,3.1-31.1,0-12.4,0-24.8.1-37.3,0-14.1-.3-27.6-.6-41.9-.2-11-.4-22.1-.6-33.2ZM603.1,291c.7,3.2-.4,5.8-2.6,6.7-3.5,1.4-7,1.7-10.7,1.7-4.1,0-26-.3-32.8-.4-3.8,0-6.5-3.2-7.4-8.1-2.8-15.6-5.5-31-8.3-46.2-.6-3.5-2.5-5.6-5.4-5.5-11.3,0-22.6.2-33.9.3-3.3,0-5.7,2.8-6.5,6.9-1.1,5.6-2.2,11.2-3.3,16.8-1.1,4.7-2.3,9.5-3.4,14.3-1.3,5.3-2,10.7-2.2,16.3-.1,3.7-2.3,5.8-5,5.7-4.8-.1-30.6.7-30.6-.7,0-2.9,1.4-7.8,2.5-12,2.4-9.3,4.8-18.6,7.2-27.9,1.9-8.7,3.9-17.3,5.8-26,6.5-27.5,12.9-54.8,19.4-81.8,0-1.6,33.2-150.4,36.1-148.9,2.9-.6,3.3-.6,6.5-.6,3.2,0,5.6,0,6.7.9,1.1.8,8.7,29.4,11.4,43.4,3.9,17.2,7.8,34.7,11.8,52.4,3.8,15.8,7.7,31.9,11.5,48.2,4.4,18.4,8.7,37.1,13.1,56.2,2.5,10,5,20,7.5,30.2,4.2,19.1,8.4,38.5,12.6,58.3ZM535.5,211c-1.1-5-2.2-10-3.2-15-1.6-8.2-3.3-16.4-4.9-24.5-1.6-7.9-2.7-15.4-3.8-23.4-.7-5.1-4.5-3.9-6.1,2.7-.5,2.3-2,9.3-2,9.3-3.9,16.6-7.7,33.3-11.6,50.2-.3,1.2,0,2.7.5,3.5.4.6,1.3,1.3,2.3,1.3,4.9,0,9.7.1,14.6.2,4,0,8,0,12-.1,1,0,1.7-.6,2.1-1.4.3-.7.4-1.9.2-2.9ZM164.8,7.3c-2.2-.5-4.3-.6-6.6-.6-12.5-.2-24.9-.5-37.4-.7-16.9,0-33.8.2-50.7.2-16.6.4-32.7,0-49.2-.9-3.7-.2-6.7,1.9-8.2,5.1-2.2,4.9-4.4,9.7-6.7,14.5-1.8,3.3-3.5,6.6-5.3,9.9-1.3,2.5-1,4.6.4,7.1,1.9,3.3,5.2,5.3,9.2,4.6,7.6-1.3,15.2-1.7,23.2-1.6,7.2.1,14,0,21.2-1.2,2.8-.4,5.5,1.5,5.9,4.8,1.4,11.5,1.4,22.8,1.2,34.4-.2,11.2-.4,22.3-.6,33.4.2,3.6.4,7.1.6,10.7.2,3.1.4,6.3.6,9.4,0,27.5,0,54.5.1,81.1,0,13.7,0,27.3,0,40.7,0,8.6,0,17.1,0,25.5,0,3.5.1,7.1.2,10.6,0,3,2.7,4.9,6,4.9,11.8,0,23.6,0,35.4-.1,3.4,0,5.3-2.8,5.3-5.5,0-27,0-54.9,0-83.6,0-8.5,0-17.1.1-25.8,0-8.1,0-16.2,0-24.4,0-11.2.3-22.1,1.2-33.5.8-10.2.7-20.2,0-30.6-.5-6.3-.8-12.3-.5-18.6.5-9.5.9-19,1.4-28.6.2-4.4,9.7-4.2,15.4-3.4,7.1,1,14,3.1,20.9,4.6,5.6,1.2,9.7-1.9,11.9-7,4-9.2,7.7-18.3,9-28.6.5-3.6-1.2-6.2-4.3-6.9ZM445.1,255.5c-4.7-.3-9.5-.5-14.2.3-8.7,1.5-17.3,3-26,4.5-8.1,1.4-15.9,2-24.1,1.9-1.7,0-3-1-3.3-2.7-1.3-10.2-1.7-20.2-1.5-30.6.2-9.7.4-19.5.6-29.2-.2-5.1-.3-10.2-.5-15.3-.2-3.6-.5-7.2-.7-10.8,0-27.3,0-54.7,0-82.2,0-26.5,0-53.1-.1-79.8,0-3.7-2.7-6.2-6-6.2-5.2,0-10.4,0-15.6,0-6.2,0-12.4.2-18.6.3-3.8,0-6.1,3.3-6,7.4.5,21.8.4,43.1-.3,64.6.2,9.3.4,18.7.5,27.9.3,13.3.5,26.5.8,39.7-.2,20.4-.3,40.5-.5,60.5-.3,13.6-.6,27-.9,40.4,0,7.5.2,15.1.2,22.6,0,8.2-.1,17.1-.2,25.3,0,4.1,4,6,8.5,5.9,25.6-.3,51.2-.6,76.8-.9,7.4-.1,14.7-.2,22.1-.4,4.2,0,7-2.7,7.9-6.9,1.3-5.8,2.6-12.3,3.9-18.1,1.6-7.3,5.5-17.8-2.6-18.3ZM807.4,217.6c0-17.5-.1-34.9-.2-52.4-.2-9.3-.5-18.5-.7-27.8-.3-15.4-.6-30.9-1-46.3,0-26.2,0-52.4,0-78.6,0-3.8-3-6.1-6.3-6.1-5.1-.1-10.3-.3-15.4-.4-6.2,0-12.3.1-18.5.2-3.2,0-5.8,2.4-5.8,5.7,0,13.4.2,26.9.2,40.5.2,16.9.3,33.9.5,51.1,0,20.9-.2,42-.3,63.4,0,4.6,0,9.3.1,13.9.2,7.8.5,15.7.7,23.6,0,12.3,0,24.6,0,37,0,12.3.2,24.7.2,37.1.1,4.9.2,9.9.4,14.9,0,2,.9,4.2,2.7,5,1.6.7,3.5.9,5.4.9,9.5,0,19,0,28.5,0,5.1,0,9.2-1.5,9.4-6.1.1-3.5.3-7,.4-10.5-.2-21.7-.3-43.4-.5-65.1Z"/>
</svg>