<?xml version="1.0" encoding="UTF-8"?>
<svg id="Layer_1" data-name="Layer 1" xmlns="http://www.w3.org/2000/svg" viewBox="0 0 900 229.4">
  <path d="M23.4,196.7v-116c0-18.9-8.7-19.4-23.4-22.2v-8.4h85.3c48.2,0,86.5,13,86.5,52.1s-37.5,57.5-91.5,57.5-4.5-12.1,0-12.1c38.6,0,45.1-21.4,45.1-43.7s-4.8-41.4-37.2-41.4-20.6,4.5-20.6,13v121.4c0,18.9,8.7,19.4,23.4,22.2v8.4H0v-8.4c14.6-2.8,23.4-3.4,23.4-22.2Z"/>
  <path d="M244,207.2c-9.6,10.1-25.1,22.2-46.8,22.2s-36.1-8.2-36.1-29.9,24.2-31.5,58.3-41.4c8.7-2.8,19.2-4.5,24.5-12.7v-5.4c0-22.2-9-26.8-25.9-26.8s-7,2.8-8.7,7.3c-7.9,22.5-14.6,29.3-24.2,29.3s-14.6-6.5-14.6-13.5c0-21.4,45.6-35.5,71-35.5s43.4,16.6,43.4,43.4v55.5c0,8.7,9.3,11.3,21.1,4.2v8.2c-11.8,8.2-20,13.5-36.6,17.2-12.1,0-24.5-10.7-25.3-22.2ZM219.2,210.8c9.3,0,17.7-6.5,24.8-15.8v-32.7l-20.8,5.6c-14.6,4.2-20.8,13.5-20.8,23.1s5.9,19.7,16.9,19.7Z"/>
  <path d="M322.1,202.7v-62c0-10.1-2.3-15.8-20-17.5v-7.9c20-3.1,38.9-7.6,57.7-16.3l5.6,5.4-5.1,34.4h8.4c9.9-25.3,20-39.7,36.9-39.7s7,.6,11,2.3v36.9c-6.8-3.4-13.2-4.2-18.6-4.2-25.3,0-35.2,20.3-35.2,39.4v29.3c0,12.4,6.8,13.8,20.8,16.3v8.4h-81.7v-8.4c13.2-2.5,20-3.9,20-16.3Z"/>
  <path d="M495,207.2c-9.6,10.1-25.1,22.2-46.8,22.2s-36.1-8.2-36.1-29.9,24.2-31.5,58.3-41.4c8.7-2.8,19.2-4.5,24.5-12.7v-5.4c0-22.2-9-26.8-25.9-26.8s-7,2.8-8.7,7.3c-7.9,22.5-14.6,29.3-24.2,29.3s-14.6-6.5-14.6-13.5c0-21.4,45.6-35.5,71-35.5s43.4,16.6,43.4,43.4v55.5c0,8.7,9.3,11.3,21.1,4.2v8.2c-11.8,8.2-20,13.5-36.6,17.2-12.1,0-24.5-10.7-25.3-22.2ZM470.3,210.8c9.3,0,17.7-6.5,24.8-15.8v-32.7l-20.8,5.6c-14.6,4.2-20.8,13.5-20.8,23.1s5.9,19.7,16.9,19.7Z"/>
  <path d="M570.7,202.7v-97.9c0-10.1.3-49.7-20.6-51.7v-7.9c20-2.3,38.6-7.3,55.8-16.1l5.6,5.4v168.2c0,12.4,5.9,13.8,20.6,16.3v8.4h-82v-8.4c14.6-2.5,20.6-3.9,20.6-16.3Z"/>
  <path d="M647.8,202.7V41.7c0-10.1.3-15.8-20.6-17.7v-7.9c20-2.3,38.6-7.3,55.8-16.1l5.6,5.4v197.3c0,12.4,5.9,13.8,20.6,16.3v8.4h-82v-8.4c14.6-2.5,20.6-3.9,20.6-16.3Z"/>
  <path d="M700.2,166.1c0-41.4,32.1-65.1,67.6-65.1s64.8,34.9,53.2,62.5h-79.4c3.7,27.3,20.6,43.9,45.1,43.9s24.2-4.5,29.9-11.8l5.9,4.8c-7.3,18-28.2,29-54.6,29-39.1,0-67.6-24.5-67.6-63.4ZM783.3,152c3.7-19.7-2-39.4-18.6-39.4s-23.9,12.4-23.9,38.9v.6h42.5Z"/>
  <path d="M838.6,202.7V41.7c0-10.1.3-15.8-20.6-17.7v-7.9c20-2.3,38.6-7.3,55.8-16.1l5.6,5.4v197.3c0,12.4,5.9,13.8,20.6,16.3v8.4h-82v-8.4c14.6-2.5,20.6-3.9,20.6-16.3Z"/>
</svg>